<?xml version="1.0" encoding="iso-8859-1"?>
<!-- Generator: Adobe Illustrator 18.0.0, SVG Export Plug-In . SVG Version: 6.00 Build 0)  -->
<!DOCTYPE svg PUBLIC "-//W3C//DTD SVG 1.1//EN" "http://www.w3.org/Graphics/SVG/1.1/DTD/svg11.dtd">
<svg version="1.1" id="Capa_1" xmlns="http://www.w3.org/2000/svg" xmlns:xlink="http://www.w3.org/1999/xlink" x="0px" y="0px"
	 viewBox="0 0 197.652 197.652" style="enable-background:new 0 0 197.652 197.652;" xml:space="preserve">
<path d="M156.567,20.592h-0.305l-2.833-5.834c3.239-0.829,5.638-3.759,5.638-7.258c0-4.142-3.357-7.5-7.5-7.5h-10H56.085h-10
	c-4.143,0-7.5,3.358-7.5,7.5c0,3.499,2.398,6.429,5.638,7.258l-2.833,5.834h-0.305c-4.143,0-7.5,3.357-7.5,7.5v141.469
	c0,4.143,3.357,7.5,7.5,7.5h0.305l7.949,16.368c1.254,2.583,3.874,4.224,6.746,4.224h85.482c2.872,0,5.492-1.641,6.746-4.224
	l7.949-16.368h0.305c4.143,0,7.5-3.357,7.5-7.5V28.092C164.067,23.949,160.71,20.592,156.567,20.592z M48.585,35.592h100.482
	v126.469H48.585V35.592z M60.78,15h76.092l2.716,5.592H58.064L60.78,15z M136.872,182.652H60.78l-2.716-5.592h81.523
	L136.872,182.652z"/>
<g>
</g>
<g>
</g>
<g>
</g>
<g>
</g>
<g>
</g>
<g>
</g>
<g>
</g>
<g>
</g>
<g>
</g>
<g>
</g>
<g>
</g>
<g>
</g>
<g>
</g>
<g>
</g>
<g>
</g>
</svg>
