<?xml version="1.0" encoding="iso-8859-1"?>
<!-- Generator: Adobe Illustrator 18.0.0, SVG Export Plug-In . SVG Version: 6.00 Build 0)  -->
<!DOCTYPE svg PUBLIC "-//W3C//DTD SVG 1.1//EN" "http://www.w3.org/Graphics/SVG/1.1/DTD/svg11.dtd">
<svg version="1.1" id="Capa_1" xmlns="http://www.w3.org/2000/svg" xmlns:xlink="http://www.w3.org/1999/xlink" x="0px" y="0px"
	 viewBox="0 0 212.395 212.395" style="enable-background:new 0 0 212.395 212.395;" xml:space="preserve">
<path d="M189.205,155.154l-35.183-66.152c-0.607-1.143-1.499-2.107-2.59-2.803l-22.957-14.633v-15.49h11.808
	c4.142,0,7.5-3.357,7.5-7.5s-3.358-7.5-7.5-7.5h-9.763l7.742-31.802c0.544-2.236,0.032-4.599-1.39-6.408
	C135.45,1.057,133.276,0,130.975,0H81.42c-2.301,0-4.476,1.057-5.897,2.866c-1.422,1.81-1.934,4.172-1.39,6.408l7.742,31.802h-9.763
	c-4.142,0-7.5,3.357-7.5,7.5s3.358,7.5,7.5,7.5H83.92v15.49L60.963,86.199c-1.091,0.695-1.983,1.66-2.59,2.803L23.19,155.154
	c-1.126,2.116-1.172,4.644-0.124,6.8l22.461,46.219c1.255,2.582,3.875,4.222,6.746,4.222h107.851c2.872,0,5.491-1.64,6.746-4.222
	l22.46-46.219C190.376,159.798,190.331,157.27,189.205,155.154z M121.43,15l-6.348,26.076H97.313L90.965,15H121.43z
	 M155.429,197.395H56.966l-18.742-38.566l32.465-61.042l24.762-15.783c2.161-1.377,3.469-3.762,3.469-6.324V56.076h14.555V75.68
	c0,2.563,1.308,4.947,3.469,6.324l24.762,15.783l32.465,61.042L155.429,197.395z"/>
<g>
</g>
<g>
</g>
<g>
</g>
<g>
</g>
<g>
</g>
<g>
</g>
<g>
</g>
<g>
</g>
<g>
</g>
<g>
</g>
<g>
</g>
<g>
</g>
<g>
</g>
<g>
</g>
<g>
</g>
</svg>
