<?xml version="1.0" encoding="iso-8859-1"?>
<!-- Generator: Adobe Illustrator 18.0.0, SVG Export Plug-In . SVG Version: 6.00 Build 0)  -->
<!DOCTYPE svg PUBLIC "-//W3C//DTD SVG 1.1//EN" "http://www.w3.org/Graphics/SVG/1.1/DTD/svg11.dtd">
<svg version="1.1" id="Capa_1" xmlns="http://www.w3.org/2000/svg" xmlns:xlink="http://www.w3.org/1999/xlink" x="0px" y="0px"
	 viewBox="0 0 193.642 193.642" style="enable-background:new 0 0 193.642 193.642;" xml:space="preserve">
<path d="M146.132,3.202C144.729,1.195,142.434,0,139.986,0h-86.33c-2.448,0-4.743,1.195-6.146,3.202
	C33.443,23.313,24.354,49.954,24.354,71.07c0,19.2,7.656,36.55,21.557,48.856c11.432,10.119,26.439,16.309,42.885,17.832v40.883
	H70.743c-4.142,0-7.5,3.358-7.5,7.5c0,4.142,3.358,7.5,7.5,7.5h51.107c4.142,0,7.5-3.358,7.5-7.5c0-4.142-3.358-7.5-7.5-7.5h-18.055
	v-40.785c16.858-1.352,32.261-7.595,43.936-17.93c13.901-12.306,21.557-29.656,21.557-48.856
	C169.288,49.954,160.198,23.313,146.132,3.202z M96.821,123.14c-33.298,0-57.467-21.898-57.467-52.069
	c0-16.892,7.264-38.958,18.298-56.07h78.337c11.035,17.113,18.298,39.178,18.298,56.07
	C154.288,101.241,130.119,123.14,96.821,123.14z"/>
<g>
</g>
<g>
</g>
<g>
</g>
<g>
</g>
<g>
</g>
<g>
</g>
<g>
</g>
<g>
</g>
<g>
</g>
<g>
</g>
<g>
</g>
<g>
</g>
<g>
</g>
<g>
</g>
<g>
</g>
</svg>
