<?xml version="1.0" encoding="iso-8859-1"?>
<!-- Generator: Adobe Illustrator 18.0.0, SVG Export Plug-In . SVG Version: 6.00 Build 0)  -->
<!DOCTYPE svg PUBLIC "-//W3C//DTD SVG 1.1//EN" "http://www.w3.org/Graphics/SVG/1.1/DTD/svg11.dtd">
<svg version="1.1" id="Capa_1" xmlns="http://www.w3.org/2000/svg" xmlns:xlink="http://www.w3.org/1999/xlink" x="0px" y="0px"
	 viewBox="0 0 197.723 197.723" style="enable-background:new 0 0 197.723 197.723;" xml:space="preserve">
<path d="M179.379,52.57h-18.314c1.939-3.769,3.04-8.035,3.04-12.557c0-12.593-8.496-23.232-20.055-26.508V7.5
	c0-4.143-3.357-7.5-7.5-7.5H61.172c-4.142,0-7.5,3.357-7.5,7.5v27.918c0,4.143,3.358,7.5,7.5,7.5h4.111v9.652h-46.94
	c-4.143,0-7.5,3.357-7.5,7.5v130.152c0,4.143,3.357,7.5,7.5,7.5h161.035c4.143,0,7.5-3.357,7.5-7.5V60.07
	C186.879,55.928,183.521,52.57,179.379,52.57z M149.105,40.014c0,6.924-5.633,12.557-12.557,12.557h-4.111v-9.652h4.113
	c4.143,0,7.5-3.357,7.5-7.5V29.97C147.111,32.262,149.105,35.904,149.105,40.014z M68.672,15h60.379v4.92
	c0,0.014-0.002,0.026-0.002,0.039c0,0.013,0.002,0.025,0.002,0.039v7.92h-4.113H72.783h-4.111V15z M80.283,42.918h37.154v9.652
	H80.283V42.918z M171.879,182.723H25.844V67.57h46.94h52.154h46.941V182.723z"/>
<g>
</g>
<g>
</g>
<g>
</g>
<g>
</g>
<g>
</g>
<g>
</g>
<g>
</g>
<g>
</g>
<g>
</g>
<g>
</g>
<g>
</g>
<g>
</g>
<g>
</g>
<g>
</g>
<g>
</g>
</svg>
