<?xml version="1.0" encoding="iso-8859-1"?>
<!-- Generator: Adobe Illustrator 18.0.0, SVG Export Plug-In . SVG Version: 6.00 Build 0)  -->
<!DOCTYPE svg PUBLIC "-//W3C//DTD SVG 1.1//EN" "http://www.w3.org/Graphics/SVG/1.1/DTD/svg11.dtd">
<svg version="1.1" id="Capa_1" xmlns="http://www.w3.org/2000/svg" xmlns:xlink="http://www.w3.org/1999/xlink" x="0px" y="0px"
	 viewBox="0 0 197.723 197.723" style="enable-background:new 0 0 197.723 197.723;" xml:space="preserve">
<path d="M158.084,62.236h-10.822v-2.5c0-7.31-2.546-14.034-6.789-19.344c0.814-1.2,1.289-2.646,1.289-4.205V7.5
	c0-4.142-3.357-7.5-7.5-7.5H34.191c-4.143,0-7.5,3.358-7.5,7.5v28.688c0,1.371,0.374,2.651,1.016,3.757
	c-4.459,5.377-7.144,12.276-7.144,19.791v106.937c0,17.121,13.929,31.05,31.049,31.05h64.602c17.12,0,31.049-13.929,31.049-31.05
	v-10.829h10.822c10.518,0,19.076-8.557,19.076-19.075V81.312C177.16,70.793,168.602,62.236,158.084,62.236z M41.691,15h85.07v13.688
	h-10.549H51.611h-9.92V15z M132.262,166.673c0,8.85-7.199,16.05-16.049,16.05H51.611c-8.85,0-16.049-7.2-16.049-16.05V59.736
	c0-8.849,7.199-16.049,16.049-16.049h64.602c8.85,0,16.049,7.2,16.049,16.049V166.673z M162.16,136.768
	c0,2.209-1.866,4.075-4.076,4.075h-10.822V77.236h10.822c2.21,0,4.076,1.866,4.076,4.075V136.768z"/>
<g>
</g>
<g>
</g>
<g>
</g>
<g>
</g>
<g>
</g>
<g>
</g>
<g>
</g>
<g>
</g>
<g>
</g>
<g>
</g>
<g>
</g>
<g>
</g>
<g>
</g>
<g>
</g>
<g>
</g>
</svg>
