<?xml version="1.0" encoding="iso-8859-1"?>
<!-- Generator: Adobe Illustrator 18.0.0, SVG Export Plug-In . SVG Version: 6.00 Build 0)  -->
<!DOCTYPE svg PUBLIC "-//W3C//DTD SVG 1.1//EN" "http://www.w3.org/Graphics/SVG/1.1/DTD/svg11.dtd">
<svg version="1.1" id="Capa_1" xmlns="http://www.w3.org/2000/svg" xmlns:xlink="http://www.w3.org/1999/xlink" x="0px" y="0px"
	 viewBox="0 0 197.723 197.723" style="enable-background:new 0 0 197.723 197.723;" xml:space="preserve">
<path d="M135.502,110.204V7.5c0-4.142-3.357-7.5-7.5-7.5H69.721c-1.99,0-3.899,0.791-5.305,2.198
	c-1.407,1.408-2.196,3.316-2.195,5.306l0.063,102.7c0,17.614,12.51,32.359,29.113,35.829v36.689H69.721c-4.143,0-7.5,3.358-7.5,7.5
	c0,4.142,3.357,7.5,7.5,7.5h58.281c4.143,0,7.5-3.358,7.5-7.5c0-4.142-3.357-7.5-7.5-7.5h-21.605v-36.689
	C122.995,142.563,135.502,127.818,135.502,110.204z M77.283,110.2L77.226,15h43.276v95.204c0,11.913-9.692,21.604-21.605,21.604
	C86.979,131.809,77.283,122.117,77.283,110.2z"/>
<g>
</g>
<g>
</g>
<g>
</g>
<g>
</g>
<g>
</g>
<g>
</g>
<g>
</g>
<g>
</g>
<g>
</g>
<g>
</g>
<g>
</g>
<g>
</g>
<g>
</g>
<g>
</g>
<g>
</g>
</svg>
