<?xml version="1.0" encoding="iso-8859-1"?>
<!-- Generator: Adobe Illustrator 19.0.0, SVG Export Plug-In . SVG Version: 6.00 Build 0)  -->
<svg version="1.1" id="Layer_1" xmlns="http://www.w3.org/2000/svg" xmlns:xlink="http://www.w3.org/1999/xlink" x="0px" y="0px"
	 viewBox="0 0 490 490" style="enable-background:new 0 0 490 490;" xml:space="preserve">
<g>
	<g id="XMLID_35_">
		<g>
			<path style="fill:#F1F2F2;" d="M200,230H70v-40h120c5.498,0,10,4.502,10,10V230z"/>
			<rect x="10" y="340" style="fill:#E7ECED;" width="40" height="65"/>
			<rect x="440" y="340" style="fill:#E7ECED;" width="40" height="65"/>
			<polygon style="fill:#FFD248;" points="480,280 480,340 440,340 50,340 10,340 10,280 20,280 470,280 			"/>
			<path style="fill:#AFB6BB;" d="M70,230h130h270c5.498,0,10,4.502,10,10v40H10V95c0-5.498,4.502-10,10-10h40
				c5.498,0,10,4.502,10,10v95V230z"/>
		</g>
		<g>
			<path style="fill:#231F20;" d="M470,220H210v-20c0-11.028-8.972-20-20-20H80V95c0-11.028-8.972-20-20-20H20
				C8.972,75,0,83.972,0,95v310c0,5.523,4.477,10,10,10h40c5.523,0,10-4.477,10-10v-55h370v55c0,5.523,4.477,10,10,10h40
				c5.523,0,10-4.477,10-10V240C490,228.972,481.028,220,470,220z M80,200h110v20H80V200z M60,95v125H35v20h435v30H20V95H60z
				 M40,395H20v-45h20V395z M20,330v-10h310v-20H20v-10h450v40H20z M470,395h-20v-45h20V395z"/>
			<rect x="345" y="300" style="fill:#231F20;" width="20" height="20"/>
			<rect x="380" y="300" style="fill:#231F20;" width="20" height="20"/>
		</g>
	</g>
</g>
<g>
</g>
<g>
</g>
<g>
</g>
<g>
</g>
<g>
</g>
<g>
</g>
<g>
</g>
<g>
</g>
<g>
</g>
<g>
</g>
<g>
</g>
<g>
</g>
<g>
</g>
<g>
</g>
<g>
</g>
</svg>
