<?xml version="1.0" encoding="iso-8859-1"?>
<!-- Generator: Adobe Illustrator 19.0.0, SVG Export Plug-In . SVG Version: 6.00 Build 0)  -->
<svg version="1.1" id="Layer_1" xmlns="http://www.w3.org/2000/svg" xmlns:xlink="http://www.w3.org/1999/xlink" x="0px" y="0px"
	 viewBox="0 0 490 490" style="enable-background:new 0 0 490 490;" xml:space="preserve">
<g>
	<g id="XMLID_26_">
		<g>
			<rect x="285" y="280" style="fill:#FCBB47;" width="40" height="35"/>
			<rect x="285" y="10" style="fill:#E7ECED;" width="35" height="35"/>
			<rect x="95" y="100" style="fill:#E7ECED;" width="35" height="35"/>
			<rect x="165" y="260" style="fill:#E7ECED;" width="35" height="35"/>
			<rect x="275" y="350" style="fill:#E7ECED;" width="40" height="35"/>
			<polygon style="fill:#31C0D8;" points="405,350 405,385 315,385 315,350 385,350 			"/>
			<rect x="285" y="45" style="fill:#31C0D8;" width="35" height="90"/>
			<polygon style="fill:#31C0D8;" points="225,100 225,135 130,135 130,100 205,100 			"/>
			<rect x="165" y="295" style="fill:#31C0D8;" width="35" height="90"/>
			<rect x="355" y="100" style="fill:#666C70;" width="35" height="35"/>
			<polygon style="fill:#666C70;" points="235,30 235,65 205,65 200,65 200,30 			"/>
			<rect x="95" y="350" style="fill:#666C70;" width="35" height="35"/>
			<rect x="95" y="260" style="fill:#AFB6BB;" width="35" height="90"/>
			<polygon style="fill:#AFB6BB;" points="385,315 385,350 315,350 275,350 255,350 255,315 285,315 325,315 			"/>
			<rect x="355" y="10" style="fill:#AFB6BB;" width="35" height="90"/>
			<rect x="105" y="30" style="fill:#AFB6BB;" width="95" height="35"/>
			<polygon style="fill:#FFD248;" points="415,280 415,315 385,315 325,315 325,280 			"/>
			<polygon style="fill:#FFD248;" points="165,295 165,385 130,385 130,350 130,260 165,260 			"/>
			<polygon style="fill:#FFD248;" points="205,65 205,100 130,100 95,100 75,100 75,65 105,65 200,65 			"/>
			<polygon style="fill:#FFD248;" points="355,100 355,135 320,135 320,45 320,10 355,10 			"/>
			<rect x="415" y="425" style="fill:#704324;" width="35" height="55"/>
			<rect x="40" y="425" style="fill:#704324;" width="35" height="55"/>
			<rect x="40" y="175" style="fill:#704324;" width="35" height="55"/>
			<rect x="415" y="175" style="fill:#704324;" width="35" height="55"/>
			<polygon style="fill:#A26234;" points="480,385 480,425 450,425 415,425 75,425 40,425 10,425 10,385 95,385 130,385 165,385 
				200,385 275,385 315,385 405,385 			"/>
			<polygon style="fill:#A26234;" points="480,135 480,175 450,175 415,175 75,175 40,175 10,175 10,135 95,135 130,135 225,135 
				285,135 320,135 355,135 390,135 			"/>
		</g>
		<g>
			<path style="fill:#231F20;" d="M480,375h-65v-25c0-5.523-4.478-10-10-10h-10v-15h20c5.522,0,10-4.477,10-10v-35
				c0-5.523-4.478-10-10-10H285c-5.522,0-10,4.477-10,10v25h-20c-5.522,0-10,4.477-10,10v35c0,5.523,4.478,10,10,10h10v15h-55V260
				c0-5.523-4.478-10-10-10H95c-5.522,0-10,4.477-10,10v115H10c-5.522,0-10,4.477-10,10v40c0,5.523,4.478,10,10,10h20v45
				c0,5.523,4.478,10,10,10h35c5.522,0,10-4.477,10-10v-45h320v45c0,5.523,4.478,10,10,10h35c5.522,0,10-4.477,10-10v-45h20
				c5.522,0,10-4.477,10-10v-40C490,379.477,485.522,375,480,375z M395,360v15h-70v-15H395z M405,305h-70v-15h70V305z M295,290h20
				v15h-20V290z M265,325h110v15H265V325z M305,360v15h-20v-15H305z M190,285h-15v-15h15V285z M190,305v70h-15v-70H190z M105,360h15
				v15h-15V360z M155,270v105h-15V270H155z M120,270v70h-15v-70H120z M65,470H50v-35h15V470z M440,470h-15v-35h15V470z M470,415H20
				v-20h450V415z"/>
			<path style="fill:#231F20;" d="M480,125h-80V10c0-5.523-4.478-10-10-10H285c-5.522,0-10,4.477-10,10v115h-40v-25
				c0-5.523-4.478-10-10-10h-10V75h20c5.522,0,10-4.477,10-10V30c0-5.523-4.478-10-10-10H105c-5.522,0-10,4.477-10,10v25H75
				c-5.522,0-10,4.477-10,10v35c0,5.523,4.478,10,10,10h10v15H10c-5.522,0-10,4.477-10,10v40c0,5.523,4.478,10,10,10h20v45
				c0,5.523,4.478,10,10,10h35c5.522,0,10-4.477,10-10v-45h320v45c0,5.523,4.478,10,10,10h35c5.522,0,10-4.477,10-10v-45h20
				c5.522,0,10-4.477,10-10v-40C490,129.477,485.522,125,480,125z M380,90h-15V20h15V90z M380,110v15h-15v-15H380z M295,55h15v70
				h-15V55z M345,20v105h-15V20H345z M310,20v15h-15V20H310z M215,110v15h-75v-15H215z M225,55h-15V40h15V55z M115,40h75v15h-75V40z
				 M85,75h110v15H85V75z M120,110v15h-15v-15H120z M65,220H50v-35h15V220z M440,220h-15v-35h15V220z M470,165H20v-20h450V165z"/>
		</g>
	</g>
</g>
<g>
</g>
<g>
</g>
<g>
</g>
<g>
</g>
<g>
</g>
<g>
</g>
<g>
</g>
<g>
</g>
<g>
</g>
<g>
</g>
<g>
</g>
<g>
</g>
<g>
</g>
<g>
</g>
<g>
</g>
</svg>
