<?xml version="1.0" encoding="iso-8859-1"?>
<!-- Generator: Adobe Illustrator 19.0.0, SVG Export Plug-In . SVG Version: 6.00 Build 0)  -->
<svg version="1.1" id="Layer_1" xmlns="http://www.w3.org/2000/svg" xmlns:xlink="http://www.w3.org/1999/xlink" x="0px" y="0px"
	 viewBox="0 0 490 490" style="enable-background:new 0 0 490 490;" xml:space="preserve">
<g>
	<g id="XMLID_35_">
		<g>
			<polygon style="fill:#F1F2F2;" points="410,325 410,365 390,365 375,365 375,325 			"/>
			<path style="fill:#AFB6BB;" d="M480,10v470H10V10H480z M445,445V260v-30V45H45v185v30v185h45h40h40h40h60h130H445z"/>
			<polygon style="fill:#546A79;" points="445,230 445,260 45,260 45,230 90,230 185,230 220,230 280,230 320,230 360,230 400,230 
							"/>
			<polygon style="fill:#E7ECED;" points="445,260 445,445 400,445 400,405 390,405 390,365 410,365 410,325 375,325 280,325 
				280,365 260,365 260,405 270,405 270,445 210,445 210,405 210,315 170,315 130,315 90,315 90,350 90,445 45,445 45,260 			"/>
			<polygon style="fill:#E7ECED;" points="445,45 445,230 400,230 400,100 360,100 320,100 280,100 280,140 280,230 220,230 
				220,190 210,190 210,150 230,150 230,110 140,110 100,110 100,150 80,150 80,190 90,190 90,230 45,230 45,45 			"/>
			<polygon style="fill:#AFB6BB;" points="400,405 400,445 270,445 270,405 295,405 390,405 			"/>
			<polygon style="fill:#AFB6BB;" points="400,100 400,230 360,230 360,190 360,100 			"/>
			<polygon style="fill:#31C0D8;" points="390,365 390,405 295,405 295,365 375,365 			"/>
			<polygon style="fill:#AFB6BB;" points="375,325 375,365 295,365 280,365 280,325 			"/>
			<rect x="320" y="190" style="fill:#AFB6BB;" width="40" height="40"/>
			<polygon style="fill:#FFD248;" points="360,100 360,190 320,190 320,140 320,100 			"/>
			<polygon style="fill:#AFB6BB;" points="320,190 320,230 280,230 280,140 320,140 			"/>
			<rect x="280" y="100" style="fill:#F1F2F2;" width="40" height="40"/>
			<polygon style="fill:#F1F2F2;" points="295,365 295,405 270,405 260,405 260,365 280,365 			"/>
			<polygon style="fill:#AFB6BB;" points="230,110 230,150 210,150 140,150 140,110 			"/>
			<polygon style="fill:#AFB6BB;" points="220,190 220,230 185,230 185,190 210,190 			"/>
			<rect x="170" y="405" style="fill:#AFB6BB;" width="40" height="40"/>
			<rect x="170" y="315" style="fill:#AFB6BB;" width="40" height="90"/>
			<polygon style="fill:#31C0D8;" points="210,150 210,190 185,190 90,190 80,190 80,150 100,150 140,150 			"/>
			<rect x="90" y="190" style="fill:#AFB6BB;" width="95" height="40"/>
			<polygon style="fill:#FFD248;" points="170,405 170,445 130,445 130,350 130,315 170,315 			"/>
			<rect x="100" y="110" style="fill:#F1F2F2;" width="40" height="40"/>
			<rect x="90" y="350" style="fill:#AFB6BB;" width="40" height="95"/>
			<rect x="90" y="315" style="fill:#F1F2F2;" width="40" height="35"/>
		</g>
		<g>
			<path style="fill:#231F20;" d="M480,0H10C4.477,0,0,4.477,0,10v470c0,5.523,4.477,10,10,10h470c5.522,0,10-4.477,10-10V10
				C490,4.477,485.522,0,480,0z M470,470H20V20h450V470z"/>
			<path style="fill:#231F20;" d="M45,455h400c5.522,0,10-4.477,10-10V45c0-5.523-4.478-10-10-10H45c-5.523,0-10,4.477-10,10v400
				C35,450.523,39.477,455,45,455z M140,325h20v110h-20V325z M200,395h-20v-70h20V395z M120,340h-20v-15h20V340z M100,435v-75h20v75
				H100z M180,435v-20h20v20H180z M285,375v20h-15v-20H285z M380,375v20h-75v-20H380z M385,355v-20h15v20H385z M365,355h-75v-20h75
				V355z M390,435H280v-20h110V435z M410,435v-30c0-5.523-4.478-10-10-10v-20h10c5.522,0,10-4.477,10-10v-40c0-5.523-4.478-10-10-10
				H280c-5.522,0-10,4.477-10,10v30h-10c-5.522,0-10,4.477-10,10v40c0,5.523,4.478,10,10,10v20h-40V315c0-5.523-4.477-10-10-10H90
				c-5.523,0-10,4.477-10,10v120H55V270h380v165H410z M200,160v20H90v-20H200z M210,200v20h-15v-20H210z M150,140v-20h70v20H150z
				 M130,140h-20v-20h20V140z M175,200v20h-75v-20H175z M435,240v10H55v-10H435z M330,110h20v70h-20V110z M350,220h-20v-20h20V220z
				 M290,150h20v70h-20V150z M310,130h-20v-20h20V130z M370,220V110h20v110H370z M435,55v165h-25V100c0-5.523-4.478-10-10-10H280
				c-5.522,0-10,4.477-10,10v120h-40v-30c0-5.523-4.477-10-10-10v-20h10c5.523,0,10-4.477,10-10v-40c0-5.523-4.477-10-10-10H100
				c-5.523,0-10,4.477-10,10v30H80c-5.523,0-10,4.477-10,10v40c0,5.523,4.477,10,10,10v20H55V55H435z"/>
		</g>
	</g>
</g>
<g>
</g>
<g>
</g>
<g>
</g>
<g>
</g>
<g>
</g>
<g>
</g>
<g>
</g>
<g>
</g>
<g>
</g>
<g>
</g>
<g>
</g>
<g>
</g>
<g>
</g>
<g>
</g>
<g>
</g>
</svg>
