<?xml version="1.0" encoding="iso-8859-1"?>
<!-- Generator: Adobe Illustrator 19.0.0, SVG Export Plug-In . SVG Version: 6.00 Build 0)  -->
<svg version="1.1" id="Layer_1" xmlns="http://www.w3.org/2000/svg" xmlns:xlink="http://www.w3.org/1999/xlink" x="0px" y="0px"
	 viewBox="0 0 490 490" style="enable-background:new 0 0 490 490;" xml:space="preserve">
<g>
	<g id="XMLID_35_">
		<g>
			<polygon style="fill:#A26234;" points="415,305 415,430 395,430 355,430 245,430 245,305 			"/>
			<polygon style="fill:#704324;" points="415,225 415,305 245,305 75,305 75,225 			"/>
			<rect x="75" y="195" style="fill:#685642;" width="340" height="30"/>
			<rect x="75" y="115" style="fill:#704324;" width="340" height="80"/>
			<rect x="75" y="85" style="fill:#685642;" width="340" height="30"/>
			<rect x="75" y="10" style="fill:#704324;" width="340" height="75"/>
			<rect x="355" y="430" style="fill:#553323;" width="40" height="50"/>
			<polygon style="fill:#A26234;" points="245,305 245,430 135,430 95,430 75,430 75,305 			"/>
			<rect x="95" y="430" style="fill:#553323;" width="40" height="50"/>
		</g>
		<g>
			<path style="fill:#231F20;" d="M415,0H75c-5.523,0-10,4.478-10,10v420c0,5.523,4.477,10,10,10h10v40c0,5.523,4.477,10,10,10h40
				c5.523,0,10-4.477,10-10v-40h200v40c0,5.523,4.477,10,10,10h40c5.523,0,10-4.477,10-10v-40h10c5.523,0,10-4.477,10-10V10
				C425,4.478,420.523,0,415,0z M405,20v55H85V20H405z M405,185H85v-60h320V185z M85,295v-60h320v60H85z M405,95v10H85V95H405z
				 M405,205v10H85v-10H405z M125,470h-20v-30h20V470z M85,420V315h150v105H85z M385,470h-20v-30h20V470z M255,420V315h150v105H255z
				"/>
			<rect x="270" y="355" style="fill:#231F20;" width="30" height="20"/>
			<rect x="190" y="355" style="fill:#231F20;" width="30" height="20"/>
		</g>
	</g>
</g>
<g>
</g>
<g>
</g>
<g>
</g>
<g>
</g>
<g>
</g>
<g>
</g>
<g>
</g>
<g>
</g>
<g>
</g>
<g>
</g>
<g>
</g>
<g>
</g>
<g>
</g>
<g>
</g>
<g>
</g>
</svg>
