<?xml version="1.0" encoding="iso-8859-1"?>
<!-- Generator: Adobe Illustrator 19.0.0, SVG Export Plug-In . SVG Version: 6.00 Build 0)  -->
<svg version="1.1" id="Layer_1" xmlns="http://www.w3.org/2000/svg" xmlns:xlink="http://www.w3.org/1999/xlink" x="0px" y="0px"
	 viewBox="0 0 490 490" style="enable-background:new 0 0 490 490;" xml:space="preserve">
<g>
	<g id="XMLID_35_">
		<g>
			<rect x="40" y="430" style="fill:#E7ECED;" width="50" height="50"/>
			<rect x="400" y="430" style="fill:#E7ECED;" width="50" height="50"/>
			<polygon style="fill:#546A79;" points="325,10 325,110 245,110 165,110 165,10 			"/>
			<rect x="10" y="10" style="fill:#546A79;" width="155" height="100"/>
			<rect x="325" y="10" style="fill:#546A79;" width="155" height="100"/>
			<polygon style="fill:#AFB6BB;" points="245,110 245,430 90,430 40,430 10,430 10,110 165,110 			"/>
			<polygon style="fill:#AFB6BB;" points="480,110 480,430 450,430 400,430 245,430 245,110 325,110 			"/>
		</g>
		<g>
			<path style="fill:#231F20;" d="M480,0H10C4.478,0,0,4.478,0,10v420c0,5.523,4.478,10,10,10h20v40c0,5.523,4.478,10,10,10h50
				c5.522,0,10-4.477,10-10v-40h290v40c0,5.523,4.478,10,10,10h50c5.522,0,10-4.477,10-10v-40h20c5.522,0,10-4.477,10-10V10
				C490,4.478,485.522,0,480,0z M470,100H335V20h135V100z M175,100V20h140v80H175z M155,20v80H20V20H155z M80,470H50v-30h30V470z
				 M20,420V120h215v300H20z M440,470h-30v-30h30V470z M255,420V120h215v300H255z"/>
			<rect x="225" y="50" style="fill:#231F20;" width="40" height="20"/>
			<rect x="370" y="50" style="fill:#231F20;" width="40" height="20"/>
			<rect x="65" y="50" style="fill:#231F20;" width="40" height="20"/>
			<rect x="290" y="235" style="fill:#231F20;" width="20" height="50"/>
			<rect x="180" y="235" style="fill:#231F20;" width="20" height="50"/>
		</g>
	</g>
</g>
<g>
</g>
<g>
</g>
<g>
</g>
<g>
</g>
<g>
</g>
<g>
</g>
<g>
</g>
<g>
</g>
<g>
</g>
<g>
</g>
<g>
</g>
<g>
</g>
<g>
</g>
<g>
</g>
<g>
</g>
</svg>
