<?xml version="1.0" encoding="iso-8859-1"?>
<!-- Generator: Adobe Illustrator 19.0.0, SVG Export Plug-In . SVG Version: 6.00 Build 0)  -->
<svg version="1.1" id="Layer_1" xmlns="http://www.w3.org/2000/svg" xmlns:xlink="http://www.w3.org/1999/xlink" x="0px" y="0px"
	 viewBox="0 0 490 490" style="enable-background:new 0 0 490 490;" xml:space="preserve">
<g>
	<g id="XMLID_26_">
		<g>
			<rect x="30" y="310" style="fill:#A26234;" width="430" height="90"/>
			<rect x="30" y="390" style="fill:#704324;" width="430" height="100"/>
			<polygon style="fill:#704324;" points="480,270 480,310 460,310 30,310 10,310 10,270 210,270 280,270 			"/>
			<rect x="210" y="220" style="fill:#546A79;" width="70" height="50"/>
			<path style="fill:#AFB6BB;" d="M100,190h290V40H100V190z M420,10v210H280h-70H70V10H420z"/>
			<rect x="100" y="40" style="fill:#31C0D8;" width="290" height="150"/>
		</g>
		<g>
			<path style="fill:#231F20;" d="M480,260H290v-30h130c5.522,0,10-4.477,10-10V10c0-5.523-4.478-10-10-10H70
				c-5.523,0-10,4.477-10,10v210c0,5.523,4.477,10,10,10h130v30H10c-5.523,0-10,4.477-10,10v40c0,5.523,4.477,10,10,10h10v170h20
				v-80h410v80h20V320h10c5.522,0,10-4.477,10-10v-40C490,264.477,485.522,260,480,260z M80,20h330v190H80V20z M270,230v30h-50v-30
				H270z M40,390v-70h410v70H40z M470,300H20v-20h450V300z"/>
			<rect x="220" y="345" style="fill:#231F20;" width="50" height="20"/>
			<rect x="220" y="445" style="fill:#231F20;" width="50" height="20"/>
			<path style="fill:#231F20;" d="M400,190V40c0-5.523-4.478-10-10-10H100c-5.523,0-10,4.477-10,10v150c0,5.523,4.477,10,10,10h290
				C395.522,200,400,195.523,400,190z M380,180H110V50h270V180z"/>
			
				<rect x="189.999" y="89.643" transform="matrix(-0.7071 -0.7071 0.7071 -0.7071 253.0332 354.8068)" style="fill:#231F20;" width="20.001" height="70.71"/>
			
				<rect x="232.499" y="71.891" transform="matrix(-0.7071 -0.7071 0.7071 -0.7071 355.638 312.3057)" style="fill:#231F20;" width="20.001" height="21.213"/>
			
				<rect x="209.47" y="107.498" transform="matrix(0.7071 -0.7071 0.7071 0.7071 -6.1989 220.0317)" style="fill:#231F20;" width="106.065" height="20.001"/>
		</g>
	</g>
</g>
<g>
</g>
<g>
</g>
<g>
</g>
<g>
</g>
<g>
</g>
<g>
</g>
<g>
</g>
<g>
</g>
<g>
</g>
<g>
</g>
<g>
</g>
<g>
</g>
<g>
</g>
<g>
</g>
<g>
</g>
</svg>
