<?xml version="1.0" encoding="iso-8859-1"?>
<!-- Generator: Adobe Illustrator 19.0.0, SVG Export Plug-In . SVG Version: 6.00 Build 0)  -->
<svg version="1.1" id="Layer_1" xmlns="http://www.w3.org/2000/svg" xmlns:xlink="http://www.w3.org/1999/xlink" x="0px" y="0px"
	 viewBox="0 0 490 490" style="enable-background:new 0 0 490 490;" xml:space="preserve">
<g>
	<g id="XMLID_35_">
		<g>
			<polygon style="fill:#A26234;" points="480,330 480,430 450,430 415,430 235,430 235,330 			"/>
			<rect x="235" y="245" style="fill:#553323;" width="245" height="85"/>
			<rect x="235" y="135" style="fill:#553323;" width="245" height="80"/>
			<rect x="235" y="10" style="fill:#553323;" width="245" height="95"/>
			<rect x="235" y="105" style="fill:#704324;" width="245" height="30"/>
			<rect x="235" y="215" style="fill:#704324;" width="245" height="30"/>
			<rect x="415" y="430" style="fill:#A26234;" width="35" height="50"/>
			<polygon style="fill:#704324;" points="235,330 235,430 205,430 205,10 235,10 235,105 235,135 235,215 235,245 			"/>
			<polygon style="fill:#A26234;" points="205,10 205,430 75,430 40,430 10,430 10,10 			"/>
			<rect x="40" y="430" style="fill:#A26234;" width="35" height="50"/>
		</g>
		<g>
			<path style="fill:#231F20;" d="M480,0H10C4.477,0,0,4.477,0,10v420c0,5.523,4.477,10,10,10h20v40c0,5.523,4.477,10,10,10h35
				c5.523,0,10-4.477,10-10v-40h320v40c0,5.523,4.478,10,10,10h35c5.522,0,10-4.477,10-10v-40h20c5.522,0,10-4.477,10-10V10
				C490,4.477,485.522,0,480,0z M470,95H245V20h225V95z M470,205H245v-60h225V205z M225,420h-10V20h10V420z M245,255h225v65H245V255
				z M245,225h225v10H245V225z M245,115h225v10H245V115z M65,470H50v-30h15V470z M20,420V20h175v400H20z M440,470h-15v-30h15V470z
				 M245,420v-80h225v80H245z"/>
			<rect x="145" y="200" style="fill:#231F20;" width="20" height="50"/>
			<rect x="335" y="370" style="fill:#231F20;" width="45" height="20"/>
			<path style="fill:#231F20;" d="M75,35H45c-5.523,0-10,4.477-10,10v25h20V55h20V35z"/>
		</g>
	</g>
</g>
<g>
</g>
<g>
</g>
<g>
</g>
<g>
</g>
<g>
</g>
<g>
</g>
<g>
</g>
<g>
</g>
<g>
</g>
<g>
</g>
<g>
</g>
<g>
</g>
<g>
</g>
<g>
</g>
<g>
</g>
</svg>
