<?xml version="1.0" encoding="iso-8859-1"?>
<!-- Generator: Adobe Illustrator 19.0.0, SVG Export Plug-In . SVG Version: 6.00 Build 0)  -->
<svg version="1.1" id="Layer_1" xmlns="http://www.w3.org/2000/svg" xmlns:xlink="http://www.w3.org/1999/xlink" x="0px" y="0px"
	 viewBox="0 0 490 490" style="enable-background:new 0 0 490 490;" xml:space="preserve">
<g>
	<g id="XMLID_35_">
		<g>
			<polygon style="fill:#704324;" points="480,10 480,45 245,45 10,45 10,10 			"/>
			<rect x="10" y="360" style="fill:#704324;" width="235" height="120"/>
			<rect x="245" y="360" style="fill:#704324;" width="235" height="120"/>
			<rect x="10" y="45" style="fill:#A26234;" width="235" height="315"/>
			<rect x="245" y="45" style="fill:#A26234;" width="235" height="315"/>
		</g>
		<g>
			<path style="fill:#231F20;" d="M480,0H10C4.477,0,0,4.478,0,10v470c0,5.523,4.477,10,10,10h470c5.523,0,10-4.477,10-10V10
				C490,4.478,485.523,0,480,0z M470,20v15H20V20H470z M470,95v255H255V55h215v20H290v20H470z M20,75V55h215v295H20V95h180V75H20z
				 M20,370h215v100H20V370z M255,470V370h215v100H255z"/>
			<rect x="310" y="170" style="fill:#231F20;" width="20" height="50"/>
			<rect x="160" y="170" style="fill:#231F20;" width="20" height="50"/>
			<rect x="335" y="410" style="fill:#231F20;" width="50" height="20"/>
			<rect x="105" y="410" style="fill:#231F20;" width="50" height="20"/>
		</g>
	</g>
</g>
<g>
</g>
<g>
</g>
<g>
</g>
<g>
</g>
<g>
</g>
<g>
</g>
<g>
</g>
<g>
</g>
<g>
</g>
<g>
</g>
<g>
</g>
<g>
</g>
<g>
</g>
<g>
</g>
<g>
</g>
</svg>
