<?xml version="1.0" encoding="iso-8859-1"?>
<!-- Generator: Adobe Illustrator 19.0.0, SVG Export Plug-In . SVG Version: 6.00 Build 0)  -->
<svg version="1.1" id="Layer_1" xmlns="http://www.w3.org/2000/svg" xmlns:xlink="http://www.w3.org/1999/xlink" x="0px" y="0px"
	 viewBox="0 0 490 490" style="enable-background:new 0 0 490 490;" xml:space="preserve">
<g>
	<g id="XMLID_26_">
		<g>
			<rect x="415" y="100" style="fill:#E7ECED;" width="65" height="30"/>
			<rect x="245" y="100" style="fill:#E7ECED;" width="65" height="30"/>
			<rect x="310" y="100" style="fill:#E7ECED;" width="105" height="30"/>
			<polygon style="fill:#546A79;" points="480,45 480,100 415,100 310,100 245,100 245,45 			"/>
			<polygon style="fill:#546A79;" points="480,130 480,360 245,360 245,130 310,130 415,130 			"/>
			<polygon style="fill:#AFB6BB;" points="480,360 480,440 460,440 245,440 245,360 			"/>
			<polygon style="fill:#AFB6BB;" points="460,440 460,480 30,480 30,440 245,440 			"/>
			<polygon style="fill:#AFB6BB;" points="480,10 480,45 245,45 10,45 10,10 			"/>
			<polygon style="fill:#E7ECED;" points="245,360 245,440 30,440 10,440 10,45 245,45 245,100 245,130 			"/>
		</g>
		<g>
			<path style="fill:#231F20;" d="M480,0H10C4.478,0,0,4.477,0,10v430c0,5.523,4.478,10,10,10h10v30c0,5.523,4.478,10,10,10h430
				c5.522,0,10-4.477,10-10v-30h10c5.522,0,10-4.477,10-10V10C490,4.477,485.522,0,480,0z M320,120v-10h85v10H320z M300,120h-45v-10
				h45V120z M255,140h42.963c-0.649,1.829-1.505,3.762-2.632,5.667C289.703,155.178,279.498,160,265,160v20
				c24.213,0,37.633-10.148,45-20.284C317.367,169.852,330.787,180,355,180v-20c-14.498,0-24.703-4.822-30.331-14.333
				c-1.127-1.905-1.982-3.838-2.632-5.667h80.926c-0.649,1.829-1.505,3.762-2.632,5.667C394.703,155.178,384.498,160,370,160v20
				c24.213,0,37.633-10.148,45-20.284C422.367,169.852,435.787,180,460,180v-20c-14.498,0-24.703-4.822-30.331-14.333
				c-1.127-1.905-1.982-3.838-2.632-5.667H470v210H255V140z M425,110h45v10h-45V110z M255,90V55h215v35H255z M470,20v15H20V20H470z
				 M20,430V55h215v375H20z M450,470H40v-20h410V470z M255,430v-60h215v60H255z"/>
			<rect x="190" y="210" style="fill:#231F20;" width="20" height="50"/>
			<rect x="350" y="390" style="fill:#231F20;" width="30" height="20"/>
			<path style="fill:#231F20;" d="M40,85v25h20V95h15V75H50C44.478,75,40,79.477,40,85z"/>
			<path style="fill:#231F20;" d="M60,375H40v25c0,5.523,4.478,10,10,10h25v-20H60V375z"/>
		</g>
	</g>
</g>
<g>
</g>
<g>
</g>
<g>
</g>
<g>
</g>
<g>
</g>
<g>
</g>
<g>
</g>
<g>
</g>
<g>
</g>
<g>
</g>
<g>
</g>
<g>
</g>
<g>
</g>
<g>
</g>
<g>
</g>
</svg>
