<?xml version="1.0" encoding="iso-8859-1"?>
<!-- Generator: Adobe Illustrator 19.0.0, SVG Export Plug-In . SVG Version: 6.00 Build 0)  -->
<svg version="1.1" id="Layer_1" xmlns="http://www.w3.org/2000/svg" xmlns:xlink="http://www.w3.org/1999/xlink" x="0px" y="0px"
	 viewBox="0 0 490 490" style="enable-background:new 0 0 490 490;" xml:space="preserve">
<g>
	<g id="XMLID_43_">
		<g>
			<path style="fill:#546A79;" d="M350,290v60c0,0-10,25-45,25v-50v-35H350z"/>
			<polygon style="fill:#E7ECED;" points="305,375 305,420 145,420 145,325 305,325 			"/>
			<rect x="145" y="290" style="fill:#FFD248;" width="160" height="35"/>
			<rect x="230" y="220" style="fill:#E7ECED;" width="30" height="35"/>
			<polygon style="fill:#E7ECED;" points="205,190 205,150 285,150 285,190 305,190 305,220 260,220 230,220 185,220 185,190 			"/>
			<path style="fill:#546A79;" d="M50,420V150h155v40h-20v30h45v35h30v-35h45v-30h-20v-40h155v270H305v-45c35,0,45-25,45-25v-60h-45
				H145v35v95H50z"/>
			<path style="fill:#546A79;" d="M95,45c19.302,0,35,15.703,35,35s-15.698,35-35,35S60,99.297,60,80S75.698,45,95,45z"/>
			<path style="fill:#546A79;" d="M395,45c19.297,0,35,15.703,35,35s-15.703,35-35,35s-35-15.703-35-35S375.703,45,395,45z"/>
			<path style="fill:#AFB6BB;" d="M145,420h160h135h40v50c0,5.498-4.502,10-10,10H20c-5.498,0-10-4.502-10-10v-50h40H145z"/>
			<path style="fill:#AFB6BB;" d="M480,10v140h-40H285h-80H50H10V10H480z M430,80c0-19.297-15.703-35-35-35s-35,15.703-35,35
				s15.703,35,35,35S430,99.297,430,80z M130,80c0-19.297-15.698-35-35-35S60,60.703,60,80s15.698,35,35,35S130,99.297,130,80z"/>
		</g>
		<g>
			<path style="fill:#231F20;" d="M480,160c5.523,0,10-4.478,10-10V10c0-5.522-4.477-10-10-10H10C4.477,0,0,4.478,0,10v140
				c0,5.522,4.477,10,10,10h30v250H10c-5.523,0-10,4.478-10,10v50c0,11.028,8.972,20,20,20h450c11.028,0,20-8.972,20-20v-50
				c0-5.522-4.477-10-10-10h-30V160H480z M20,20h450v120H20V20z M400,185v225h-85v-25.641c33.336-4.317,43.818-29.479,44.285-30.646
				c0.473-1.182,0.715-2.441,0.715-3.714v-60c0-5.522-4.477-10-10-10H145c-5.523,0-10,4.478-10,10v120H90V185H70v225H60V160h135v20
				h-10c-5.523,0-10,4.478-10,10v30c0,5.522,4.477,10,10,10h35v25c0,5.522,4.477,10,10,10h30c5.523,0,10-4.478,10-10v-25h35
				c5.523,0,10-4.478,10-10v-30c0-5.522-4.477-10-10-10h-10v-20h135v250h-10V185H400z M315,300h25v47.705
				c-2.066,3.678-8.946,13.432-25,16.414V300z M295,315H155v-15h140V315z M155,335h140v75H155V335z M285,200h10v10H195v-10h55v-20
				h-35v-20h60v30C275,195.522,279.477,200,285,200z M250,230v15h-10v-15H250z M470,470H20v-40h450V470z"/>
			<rect x="170" y="40" style="fill:#231F20;" width="150" height="20"/>
			<rect x="170" y="70" style="fill:#231F20;" width="150" height="20"/>
			<rect x="170" y="100" style="fill:#231F20;" width="150" height="20"/>
			<path style="fill:#231F20;" d="M95,125c24.813,0,45-20.187,45-45s-20.187-45-45-45S50,55.187,50,80S70.187,125,95,125z M95,55
				c13.785,0,25,11.215,25,25s-11.215,25-25,25S70,93.785,70,80S81.215,55,95,55z"/>
			<path style="fill:#231F20;" d="M395,125c24.813,0,45-20.187,45-45s-20.187-45-45-45s-45,20.187-45,45S370.187,125,395,125z
				 M395,55c13.785,0,25,11.215,25,25s-11.215,25-25,25s-25-11.215-25-25S381.215,55,395,55z"/>
			<rect x="195" y="440" style="fill:#231F20;" width="100" height="20"/>
			<rect x="385" y="70" style="fill:#231F20;" width="20" height="20"/>
			<rect x="85" y="70" style="fill:#231F20;" width="20" height="20"/>
		</g>
	</g>
</g>
<g>
</g>
<g>
</g>
<g>
</g>
<g>
</g>
<g>
</g>
<g>
</g>
<g>
</g>
<g>
</g>
<g>
</g>
<g>
</g>
<g>
</g>
<g>
</g>
<g>
</g>
<g>
</g>
<g>
</g>
</svg>
