<?xml version="1.0" encoding="iso-8859-1"?>
<!-- Generator: Adobe Illustrator 19.0.0, SVG Export Plug-In . SVG Version: 6.00 Build 0)  -->
<svg version="1.1" id="Layer_1" xmlns="http://www.w3.org/2000/svg" xmlns:xlink="http://www.w3.org/1999/xlink" x="0px" y="0px"
	 viewBox="0 0 490 490" style="enable-background:new 0 0 490 490;" xml:space="preserve">
<g>
	<g id="XMLID_50_">
		<g>
			<rect x="215" y="380" style="fill:#AFB6BB;" width="60" height="40"/>
			<polygon style="fill:#AFB6BB;" points="345,420 345,450 145,450 145,420 185,420 215,420 275,420 305,420 			"/>
			<rect x="275" y="380" style="fill:#E7ECED;" width="30" height="40"/>
			<rect x="185" y="380" style="fill:#E7ECED;" width="30" height="40"/>
			<polygon style="fill:#E7ECED;" points="10,320 480,320 480,380 305,380 275,380 215,380 185,380 10,380 			"/>
			<path style="fill:#AFB6BB;" d="M40,290h410V70H40V290z M480,40v280H10V40H480z"/>
			<rect x="40" y="70" style="fill:#31C0D8;" width="410" height="220"/>
		</g>
		<g>
			<path style="fill:#231F20;" d="M480,30H10C4.478,30,0,34.478,0,40v340c0,5.522,4.478,10,10,10h165v20h-30
				c-5.522,0-10,4.478-10,10v30c0,5.522,4.478,10,10,10h200c5.522,0,10-4.478,10-10v-30c0-5.522-4.478-10-10-10h-30v-20h165
				c5.522,0,10-4.478,10-10V40C490,34.478,485.522,30,480,30z M470,50v260H20V50H470z M225,410v-20h40v20H225z M205,410h-10v-20h10
				V410z M335,440H155v-10h180V440z M285,410v-20h10v20H285z M470,370H20v-40h450V370z"/>
			<path style="fill:#231F20;" d="M40,300h410c5.522,0,10-4.478,10-10V70c0-5.522-4.478-10-10-10H40c-5.522,0-10,4.478-10,10v220
				C30,295.522,34.478,300,40,300z M50,80h390v200H50V80z"/>
			<rect x="230" y="340" style="fill:#231F20;" width="30" height="20"/>
			<path style="fill:#231F20;" d="M65,105v85h20v-75h25V95H75C69.478,95,65,99.478,65,105z"/>
			<rect x="65" y="205" style="fill:#231F20;" width="20" height="20"/>
		</g>
	</g>
</g>
<g>
</g>
<g>
</g>
<g>
</g>
<g>
</g>
<g>
</g>
<g>
</g>
<g>
</g>
<g>
</g>
<g>
</g>
<g>
</g>
<g>
</g>
<g>
</g>
<g>
</g>
<g>
</g>
<g>
</g>
</svg>
