<?xml version="1.0" encoding="iso-8859-1"?>
<!-- Generator: Adobe Illustrator 19.0.0, SVG Export Plug-In . SVG Version: 6.00 Build 0)  -->
<svg version="1.1" id="Layer_1" xmlns="http://www.w3.org/2000/svg" xmlns:xlink="http://www.w3.org/1999/xlink" x="0px" y="0px"
	 viewBox="0 0 445 445" style="enable-background:new 0 0 445 445;" xml:space="preserve">
<g>
	<g id="XMLID_44_">
		<g>
			<path style="fill:#E7ECED;" d="M252.5,205c0,16.602-13.398,30-30,30s-30-13.398-30-30s13.398-30,30-30S252.5,188.398,252.5,205z"
				/>
			<path style="fill:#546A79;" d="M222.5,235c16.602,0,30-13.398,30-30s-13.398-30-30-30s-30,13.398-30,30S205.898,235,222.5,235z
				 M287.5,330h-130V140h130V330z"/>
			<rect x="137.5" y="40" style="fill:#E7ECED;" width="35" height="50"/>
			<rect x="272.5" y="40" style="fill:#E7ECED;" width="35" height="50"/>
			<polygon style="fill:#AFB6BB;" points="137.5,10 307.5,10 307.5,40 272.5,40 172.5,40 137.5,40 			"/>
			<path style="fill:#E7ECED;" d="M422.5,100v40h-25h-110h-130h-110h-25v-40c0-5.498,4.502-10,10-10h105h35h100h35h105
				C417.998,90,422.5,94.502,422.5,100z"/>
			<polygon style="fill:#AFB6BB;" points="287.5,140 397.5,140 397.5,435 47.5,435 47.5,140 157.5,140 157.5,330 287.5,330 			"/>
		</g>
		<g>
			<path style="fill:#231F20;" d="M412.5,80h-95V10c0-5.522-4.478-10-10-10h-170c-5.523,0-10,4.478-10,10v70h-95
				c-11.028,0-20,8.972-20,20v40c0,5.522,4.477,10,10,10h15v285c0,5.522,4.477,10,10,10h350c5.522,0,10-4.478,10-10V150h15
				c5.522,0,10-4.478,10-10v-40C432.5,88.972,423.528,80,412.5,80z M297.5,20v10h-150V20H297.5z M297.5,50v30h-15V50H297.5z
				 M262.5,80h-80V50h80V80z M162.5,50v30h-15V50H162.5z M387.5,425h-330v-15h290v-20h-290V150h90v15h-60v20h60v145
				c0,5.522,4.477,10,10,10h130c5.522,0,10-4.478,10-10V185h60v-20h-60v-15h90V425z M167.5,320V150h110v170H167.5z M412.5,130h-380
				v-30h380V130z"/>
			<path style="fill:#231F20;" d="M222.5,165c-22.056,0-40,17.944-40,40s17.944,40,40,40s40-17.944,40-40S244.556,165,222.5,165z
				 M222.5,225c-11.028,0-20-8.972-20-20c0-7.384,4.032-13.829,10-17.294V210h20v-22.294c5.968,3.465,10,9.91,10,17.294
				C242.5,216.028,233.528,225,222.5,225z"/>
			<rect x="192.5" y="255" style="fill:#231F20;" width="60" height="20"/>
			<rect x="192.5" y="285" style="fill:#231F20;" width="60" height="20"/>
		</g>
	</g>
</g>
<g>
</g>
<g>
</g>
<g>
</g>
<g>
</g>
<g>
</g>
<g>
</g>
<g>
</g>
<g>
</g>
<g>
</g>
<g>
</g>
<g>
</g>
<g>
</g>
<g>
</g>
<g>
</g>
<g>
</g>
</svg>
