<?xml version="1.0" encoding="iso-8859-1"?>
<!-- Generator: Adobe Illustrator 19.0.0, SVG Export Plug-In . SVG Version: 6.00 Build 0)  -->
<svg version="1.1" id="Layer_1" xmlns="http://www.w3.org/2000/svg" xmlns:xlink="http://www.w3.org/1999/xlink" x="0px" y="0px"
	 viewBox="0 0 490 490" style="enable-background:new 0 0 490 490;" xml:space="preserve">
<g>
	<g id="XMLID_35_">
		<g>
			<rect x="210" y="260" style="fill:#E7ECED;" width="230" height="90"/>
			<rect x="210" y="170" style="fill:#E7ECED;" width="230" height="90"/>
			<polygon style="fill:#E7ECED;" points="440,80 440,170 210,170 210,160 210,80 			"/>
			<rect x="50" y="80" style="fill:#E7ECED;" width="160" height="80"/>
			<polygon style="fill:#546A79;" points="50,160 50,450 10,450 10,80 50,80 			"/>
			<polygon style="fill:#546A79;" points="480,80 480,450 440,450 440,350 440,260 440,170 440,80 			"/>
			<polygon style="fill:#AFB6BB;" points="480,40 480,80 440,80 210,80 50,80 10,80 10,40 			"/>
		</g>
		<g>
			<path style="fill:#231F20;" d="M480,30H10C4.477,30,0,34.477,0,40v410c0,5.523,4.477,10,10,10h40c5.523,0,10-4.477,10-10V170h140
				v180c0,5.523,4.477,10,10,10h220v90c0,5.523,4.477,10,10,10h40c5.523,0,10-4.477,10-10V40C490,34.477,485.523,30,480,30z M470,50
				v20H20V50H470z M220,90h210v70H220V90z M430,180v70H220v-70H430z M40,440H20V90h20V440z M60,150v-15h90v-20H60V90h140v60H60z
				 M220,270h210v70H220V270z M470,440h-20V90h20V440z"/>
			<rect x="300" y="115" style="fill:#231F20;" width="50" height="20"/>
			<rect x="300" y="205" style="fill:#231F20;" width="50" height="20"/>
			<rect x="300" y="295" style="fill:#231F20;" width="50" height="20"/>
			<rect x="165" y="115" style="fill:#231F20;" width="20" height="20"/>
		</g>
	</g>
</g>
<g>
</g>
<g>
</g>
<g>
</g>
<g>
</g>
<g>
</g>
<g>
</g>
<g>
</g>
<g>
</g>
<g>
</g>
<g>
</g>
<g>
</g>
<g>
</g>
<g>
</g>
<g>
</g>
<g>
</g>
</svg>
