<?xml version="1.0" encoding="iso-8859-1"?>
<!-- Generator: Adobe Illustrator 19.0.0, SVG Export Plug-In . SVG Version: 6.00 Build 0)  -->
<svg version="1.1" id="Layer_1" xmlns="http://www.w3.org/2000/svg" xmlns:xlink="http://www.w3.org/1999/xlink" x="0px" y="0px"
	 viewBox="0 0 490 490" style="enable-background:new 0 0 490 490;" xml:space="preserve">
<g>
	<g id="XMLID_26_">
		<g>
			<path style="fill:#546A79;" d="M325,290c10.996,0,20,9.004,20,20s-9.004,20-20,20s-20-9.004-20-20S314.004,290,325,290z"/>
			<path style="fill:#31C0D8;" d="M350,55v85H245V45h95C345.498,45,350,49.502,350,55z"/>
			<path style="fill:#31C0D8;" d="M245,45v95H140V55c0-5.498,4.502-10,10-10H245z"/>
			<rect x="140" y="140" style="fill:#31C0D8;" width="105" height="90"/>
			<rect x="245" y="140" style="fill:#31C0D8;" width="105" height="90"/>
			<path style="fill:#AFB6BB;" d="M385,10v470H105V10H385z M350,230v-90V55c0-5.498-4.502-10-10-10h-95h-95c-5.498,0-10,4.502-10,10
				v85v90h105H350z M345,310c0-10.996-9.004-20-20-20s-20,9.004-20,20s9.004,20,20,20S345,320.996,345,310z"/>
		</g>
		<g>
			<path style="fill:#231F20;" d="M385,0H105c-5.522,0-10,4.477-10,10v470c0,5.523,4.478,10,10,10h280c5.522,0,10-4.477,10-10V10
				C395,4.477,390.522,0,385,0z M375,470H115V20h260V470z"/>
			<path style="fill:#231F20;" d="M140,240h210c5.522,0,10-4.477,10-10V55c0-11.028-8.972-20-20-20H150c-11.028,0-20,8.972-20,20
				v175C130,235.523,134.478,240,140,240z M150,150h85v70h-85V150z M255,220v-70h85v70H255z M340,130h-85V55h85V130z M235,55v75h-85
				V55H235z"/>
			<path style="fill:#231F20;" d="M325,280c-16.542,0-30,13.458-30,30s13.458,30,30,30s30-13.458,30-30S341.542,280,325,280z
				 M325,320c-5.514,0-10-4.486-10-10s4.486-10,10-10s10,4.486,10,10S330.514,320,325,320z"/>
		</g>
	</g>
</g>
<g>
</g>
<g>
</g>
<g>
</g>
<g>
</g>
<g>
</g>
<g>
</g>
<g>
</g>
<g>
</g>
<g>
</g>
<g>
</g>
<g>
</g>
<g>
</g>
<g>
</g>
<g>
</g>
<g>
</g>
</svg>
