<?xml version="1.0" encoding="iso-8859-1"?>
<!-- Generator: Adobe Illustrator 19.0.0, SVG Export Plug-In . SVG Version: 6.00 Build 0)  -->
<svg version="1.1" id="Layer_1" xmlns="http://www.w3.org/2000/svg" xmlns:xlink="http://www.w3.org/1999/xlink" x="0px" y="0px"
	 viewBox="0 0 490 490" style="enable-background:new 0 0 490 490;" xml:space="preserve">
<g>
	<g id="XMLID_40_">
		<g>
			<path style="fill:#AFB6BB;" d="M100,115H60V75c0-5.498,4.502-10,10-10h350c5.498,0,10,4.502,10,10v40h-45v365H100V115z M340,430
				V165c0-5.498-4.502-10-10-10h-10c-5.498,0-10,4.502-10,10v265c0,5.498,4.502,10,10,10h10C335.498,440,340,435.498,340,430z
				 M260,430V165c0-5.498-4.502-10-10-10h-10c-5.498,0-10,4.502-10,10v265c0,5.498,4.502,10,10,10h10
				C255.498,440,260,435.498,260,430z M180,430V165c0-5.498-4.502-10-10-10h-10c-5.498,0-10,4.502-10,10v265c0,5.498,4.502,10,10,10
				h10C175.498,440,180,435.498,180,430z"/>
			<path style="fill:#546A79;" d="M340,165v265c0,5.498-4.502,10-10,10h-10c-5.498,0-10-4.502-10-10V165c0-5.498,4.502-10,10-10h10
				C335.498,155,340,159.502,340,165z"/>
			<path style="fill:#546A79;" d="M260,165v265c0,5.498-4.502,10-10,10h-10c-5.498,0-10-4.502-10-10V165c0-5.498,4.502-10,10-10h10
				C255.498,155,260,159.502,260,165z"/>
			<path style="fill:#546A79;" d="M180,165v265c0,5.498-4.502,10-10,10h-10c-5.498,0-10-4.502-10-10V165c0-5.498,4.502-10,10-10h10
				C175.498,155,180,159.502,180,165z"/>
		</g>
		<g>
			<path style="fill:#231F20;" d="M420,55H310V20c0-11.028-8.972-20-20-20h-90c-11.028,0-20,8.972-20,20v35H70
				c-11.028,0-20,8.972-20,20v40c0,5.522,4.478,10,10,10h30v355c0,5.522,4.478,10,10,10h285c5.522,0,10-4.478,10-10V125h35
				c5.522,0,10-4.478,10-10V75C440,63.972,431.028,55,420,55z M200,20h90v35h-90V20z M420,105h-35c-5.522,0-10,4.478-10,10v355H110
				V125h235v-20H70V75h350V105z"/>
			<path style="fill:#231F20;" d="M250,145h-10c-11.028,0-20,8.972-20,20v265c0,11.028,8.972,20,20,20h10c11.028,0,20-8.972,20-20
				V165C270,153.972,261.028,145,250,145z M240,430V165h10l0.002,265H240z"/>
			<path style="fill:#231F20;" d="M330,145h-10c-11.028,0-20,8.972-20,20v265c0,11.028,8.972,20,20,20h10c11.028,0,20-8.972,20-20
				V165C350,153.972,341.028,145,330,145z M320,430V165h10l0.002,265H320z"/>
			<path style="fill:#231F20;" d="M170,145h-10c-11.028,0-20,8.972-20,20v265c0,11.028,8.972,20,20,20h10c11.028,0,20-8.972,20-20
				V165C190,153.972,181.028,145,170,145z M160,430V165h10l0.002,265H160z"/>
		</g>
	</g>
</g>
<g>
</g>
<g>
</g>
<g>
</g>
<g>
</g>
<g>
</g>
<g>
</g>
<g>
</g>
<g>
</g>
<g>
</g>
<g>
</g>
<g>
</g>
<g>
</g>
<g>
</g>
<g>
</g>
<g>
</g>
</svg>
