<?xml version="1.0" encoding="iso-8859-1"?>
<!-- Generator: Adobe Illustrator 19.0.0, SVG Export Plug-In . SVG Version: 6.00 Build 0)  -->
<svg version="1.1" id="Layer_1" xmlns="http://www.w3.org/2000/svg" xmlns:xlink="http://www.w3.org/1999/xlink" x="0px" y="0px"
	 viewBox="0 0 490 490" style="enable-background:new 0 0 490 490;" xml:space="preserve">
<g>
	<g id="XMLID_34_">
		<g>
			<rect x="420" y="445" style="fill:#AFB6BB;" width="40" height="35"/>
			<rect x="30" y="445" style="fill:#AFB6BB;" width="40" height="35"/>
			<polygon style="fill:#E7ECED;" points="430,10 430,410 60,410 60,10 10,10 10,445 30,445 70,445 420,445 460,445 480,445 480,10 
							"/>
			<path style="fill:#888F93;" d="M335,55v290c0,16.602-13.398,30-30,30s-30-13.398-30-30V55c0-16.602,13.398-30,30-30
				S335,38.398,335,55z"/>
			<path style="fill:#888F93;" d="M215,55v290c0,16.602-13.398,30-30,30s-30-13.398-30-30V55c0-16.602,13.398-30,30-30
				S215,38.398,215,55z"/>
			<path style="fill:#AFB6BB;" d="M395,345c0,16.602-13.398,30-30,30s-30-13.398-30-30V55c0-16.602,13.398-30,30-30s30,13.398,30,30
				V345z"/>
			<path style="fill:#AFB6BB;" d="M275,55v290c0,16.602-13.398,30-30,30s-30-13.398-30-30V55c0-16.602,13.398-30,30-30
				S275,38.398,275,55z"/>
			<path style="fill:#AFB6BB;" d="M155,55v290c0,16.602-13.398,30-30,30s-30-13.398-30-30V55c0-16.602,13.398-30,30-30
				S155,38.398,155,55z"/>
		</g>
		<path style="fill:#231F20;" d="M480,0h-50c-5.522,0-10,4.478-10,10v55h-15V55c0-22.056-17.944-40-40-40
			c-11.938,0-22.664,5.264-30,13.585C327.664,20.264,316.938,15,305,15s-22.664,5.264-30,13.585C267.664,20.264,256.938,15,245,15
			s-22.665,5.264-30,13.585C207.665,20.264,196.938,15,185,15s-22.665,5.264-30,13.585C147.665,20.264,136.938,15,125,15
			c-22.056,0-40,17.944-40,40v10H70V10c0-5.522-4.477-10-10-10H10C4.477,0,0,4.478,0,10v435c0,5.522,4.477,10,10,10h10v25
			c0,5.522,4.477,10,10,10h40c5.523,0,10-4.478,10-10v-25h330v25c0,5.522,4.478,10,10,10h40c5.522,0,10-4.478,10-10v-25h10
			c5.522,0,10-4.478,10-10V10C490,4.478,485.522,0,480,0z M420,85v230h-15V85H420z M365,35c11.028,0,20,8.972,20,20v290
			c0,11.028-8.972,20-20,20s-20-8.972-20-20V55C345,43.972,353.972,35,365,35z M305,35c11.028,0,20,8.972,20,20v290
			c0,11.028-8.972,20-20,20s-20-8.972-20-20V55C285,43.972,293.972,35,305,35z M245,35c11.028,0,20,8.972,20,20v290
			c0,11.028-8.972,20-20,20c-11.028,0-20-8.972-20-20V55C225,43.972,233.972,35,245,35z M185,35c11.028,0,20,8.972,20,20v290
			c0,11.028-8.972,20-20,20s-20-8.972-20-20V55C165,43.972,173.972,35,185,35z M105,55c0-11.028,8.972-20,20-20s20,8.972,20,20v290
			c0,11.028-8.972,20-20,20s-20-8.972-20-20V55z M125,385c11.938,0,22.665-5.264,30-13.585c7.335,8.321,18.062,13.585,30,13.585
			s22.665-5.264,30-13.585c7.335,8.321,18.062,13.585,30,13.585c11.938,0,22.664-5.264,30-13.585
			c7.336,8.321,18.062,13.585,30,13.585s22.664-5.264,30-13.585c7.336,8.321,18.062,13.585,30,13.585c22.056,0,40-17.944,40-40v-10
			h15v65H70v-65h15v10C85,367.056,102.944,385,125,385z M85,85v230H70V85H85z M60,470H40v-15h20V470z M450,470h-20v-15h20V470z
			 M470,435H20V20h30v380H35v20h420v-20h-15V20h30V435z"/>
	</g>
</g>
<g>
</g>
<g>
</g>
<g>
</g>
<g>
</g>
<g>
</g>
<g>
</g>
<g>
</g>
<g>
</g>
<g>
</g>
<g>
</g>
<g>
</g>
<g>
</g>
<g>
</g>
<g>
</g>
<g>
</g>
</svg>
