<?xml version="1.0" encoding="iso-8859-1"?>
<!-- Generator: Adobe Illustrator 19.0.0, SVG Export Plug-In . SVG Version: 6.00 Build 0)  -->
<svg version="1.1" id="Layer_1" xmlns="http://www.w3.org/2000/svg" xmlns:xlink="http://www.w3.org/1999/xlink" x="0px" y="0px"
	 viewBox="0 0 465 465" style="enable-background:new 0 0 465 465;" xml:space="preserve">
<g>
	<g id="XMLID_28_">
		<g>
			<path style="fill:#AFB6BB;" d="M307.5,10v30c0,5.498-4.502,10-10,10h-130c-5.498,0-10-4.502-10-10V10H307.5z"/>
			<path style="fill:#E7ECED;" d="M127.5,240h210c5.498,0,10,4.502,10,10v90h-230v-90C117.5,244.502,122.002,240,127.5,240z"/>
			<rect x="117.5" y="340" style="fill:#546A79;" width="230" height="40"/>
			<path style="fill:#AFB6BB;" d="M387.5,390v25h-115h-80h-115v-25c0-5.498,4.502-10,10-10h30h230h30
				C382.998,380,387.5,384.502,387.5,390z"/>
			<path style="fill:#FFD248;" d="M192.5,415h80c0,22.1-17.9,40-40,40S192.5,437.1,192.5,415z"/>
		</g>
		<g>
			<path style="fill:#231F20;" d="M377.5,370h-20V250c0-11.028-8.972-20-20-20h-95V60h55c11.028,0,20-8.972,20-20V10
				c0-5.522-4.477-10-10-10h-150c-5.523,0-10,4.478-10,10v30c0,11.028,8.972,20,20,20h55v170h-95c-11.028,0-20,8.972-20,20v120h-20
				c-11.028,0-20,8.972-20,20v25c0,5.522,4.477,10,10,10h106.006c4.646,22.795,24.847,40,48.994,40s44.348-17.205,48.994-40H387.5
				c5.523,0,10-4.478,10-10v-25C397.5,378.972,388.528,370,377.5,370z M167.5,20h130l0.001,20H167.5V20z M337.5,250v80h-210v-80
				H337.5z M127.5,350h210v20h-210V350z M232.5,445c-13.036,0-24.152-8.361-28.28-20h56.56C256.652,436.639,245.536,445,232.5,445z
				 M377.5,405h-290v-15h290V405z"/>
			<path style="fill:#231F20;" d="M157.5,280h15v-20h-25c-5.523,0-10,4.478-10,10v20h20V280z"/>
		</g>
	</g>
</g>
<g>
</g>
<g>
</g>
<g>
</g>
<g>
</g>
<g>
</g>
<g>
</g>
<g>
</g>
<g>
</g>
<g>
</g>
<g>
</g>
<g>
</g>
<g>
</g>
<g>
</g>
<g>
</g>
<g>
</g>
</svg>
