<?xml version="1.0" encoding="iso-8859-1"?>
<!-- Generator: Adobe Illustrator 19.0.0, SVG Export Plug-In . SVG Version: 6.00 Build 0)  -->
<svg version="1.1" id="Layer_1" xmlns="http://www.w3.org/2000/svg" xmlns:xlink="http://www.w3.org/1999/xlink" x="0px" y="0px"
	 viewBox="0 0 490 490" style="enable-background:new 0 0 490 490;" xml:space="preserve">
<g>
	<g id="XMLID_37_">
		<g>
			<path style="fill:#E7ECED;" d="M380,320c5.498,0,10-4.502,10-10s-4.502-10-10-10s-10,4.502-10,10S374.502,320,380,320z M415,310
				c0,19.297-15.703,35-35,35s-35-15.703-35-35s15.703-35,35-35S415,290.703,415,310z"/>
			<path style="fill:#E7ECED;" d="M380,110c35.898,0,65,29.102,65,65s-29.102,65-65,65s-65-29.102-65-65S344.102,110,380,110z
				 M405,175c0-13.799-11.201-25-25-25s-25,11.201-25,25s11.201,25,25,25S405,188.799,405,175z"/>
			<path style="fill:#AFB6BB;" d="M480,70v310h-30h-40H280V230v-70V70H480z M445,175c0-35.898-29.102-65-65-65s-65,29.102-65,65
				s29.102,65,65,65S445,210.898,445,175z M415,310c0-19.297-15.703-35-35-35s-35,15.703-35,35s15.703,35,35,35S415,329.297,415,310
				z"/>
			<polygon style="fill:#546A79;" points="80,380 80,420 40,420 40,380 45,380 			"/>
			<rect x="410" y="380" style="fill:#546A79;" width="40" height="40"/>
			<rect x="10" y="160" style="fill:#546A79;" width="270" height="70"/>
			<polygon style="fill:#AFB6BB;" points="280,230 280,380 245,380 245,265 45,265 45,380 40,380 10,380 10,230 			"/>
			<polygon style="fill:#878D91;" points="245,265 245,380 80,380 45,380 45,265 			"/>
			<rect x="10" y="70" style="fill:#31C0D8;" width="270" height="90"/>
			<path style="fill:#231F20;" d="M380,150c13.799,0,25,11.201,25,25s-11.201,25-25,25s-25-11.201-25-25S366.201,150,380,150z"/>
			<path style="fill:#231F20;" d="M390,310c0,5.498-4.502,10-10,10s-10-4.502-10-10s4.502-10,10-10S390,304.502,390,310z"/>
		</g>
		<g>
			<path style="fill:#231F20;" d="M480,60H10C4.477,60,0,64.478,0,70v310c0,5.522,4.477,10,10,10h20v30c0,5.522,4.477,10,10,10h40
				c5.523,0,10-4.478,10-10v-30h310v30c0,5.522,4.477,10,10,10h40c5.523,0,10-4.478,10-10v-30h20c5.523,0,10-4.478,10-10V70
				C490,64.478,485.523,60,480,60z M270,80v70H20V80H270z M270,170v50H20v-50H270z M70,410H50v-20h20V410z M235,370H55v-60h125v-20
				H55v-15h180V370z M45,255c-5.523,0-10,4.478-10,10v105H20V240h250v130h-15V265c0-5.522-4.477-10-10-10H45z M440,410h-20v-20h20
				V410z M470,370H290V80h180V370z"/>
			<path style="fill:#231F20;" d="M380,250c41.355,0,75-33.645,75-75s-33.645-75-75-75s-75,33.645-75,75S338.645,250,380,250z
				 M380,120c30.327,0,55,24.673,55,55s-24.673,55-55,55s-55-24.673-55-55S349.673,120,380,120z"/>
			<path style="fill:#231F20;" d="M380,265c-24.813,0-45,20.187-45,45s20.187,45,45,45s45-20.187,45-45S404.813,265,380,265z
				 M380,335c-13.785,0-25-11.215-25-25s11.215-25,25-25s25,11.215,25,25S393.785,335,380,335z"/>
			<rect x="80" y="185" style="fill:#231F20;" width="175" height="20"/>
			<rect x="35" y="185" style="fill:#231F20;" width="25" height="20"/>
			<rect x="135" y="95" style="fill:#231F20;" width="20" height="40"/>
			<rect x="175" y="95" style="fill:#231F20;" width="20" height="40"/>
			<rect x="215" y="95" style="fill:#231F20;" width="20" height="40"/>
			<rect x="95" y="95" style="fill:#231F20;" width="20" height="40"/>
			<rect x="55" y="95" style="fill:#231F20;" width="20" height="40"/>
			<rect x="195" y="290" style="fill:#231F20;" width="20" height="20"/>
		</g>
	</g>
</g>
<g>
</g>
<g>
</g>
<g>
</g>
<g>
</g>
<g>
</g>
<g>
</g>
<g>
</g>
<g>
</g>
<g>
</g>
<g>
</g>
<g>
</g>
<g>
</g>
<g>
</g>
<g>
</g>
<g>
</g>
</svg>
