<?xml version="1.0" encoding="iso-8859-1"?>
<!-- Generator: Adobe Illustrator 19.0.0, SVG Export Plug-In . SVG Version: 6.00 Build 0)  -->
<svg version="1.1" id="Layer_1" xmlns="http://www.w3.org/2000/svg" xmlns:xlink="http://www.w3.org/1999/xlink" x="0px" y="0px"
	 viewBox="0 0 470 470" style="enable-background:new 0 0 470 470;" xml:space="preserve">
<g>
	<g id="XMLID_47_">
		<g>
			<rect x="185" y="315" style="fill:#E7ECED;" width="100" height="35"/>
			<rect x="185" y="160" style="fill:#E7ECED;" width="100" height="35"/>
			<polygon style="fill:#AFB6BB;" points="455,390 455,460 15,460 15,390 45,390 425,390 			"/>
			<path style="fill:#E7ECED;" d="M65,50h340c10.996,0,20,9.004,20,20v10H45V70C45,59.004,53.999,50,65,50z"/>
			<path style="fill:#E7ECED;" d="M455,245v30h-30H45H15v-30c0-5.498,4.502-10,10-10h40h340h40C450.498,235,455,239.502,455,245z"/>
			<path style="fill:#E7ECED;" d="M455,90v30h-30H45H15V90c0-5.498,4.502-10,10-10h20h380h20C450.498,80,455,84.502,455,90z"/>
			<path style="fill:#DD352E;" d="M45,120h380v95c0,10.996-9.004,20-20,20H65c-11.001,0-20-9.004-20-20V120z M285,160H185v35h100
				V160z"/>
			<path style="fill:#DD352E;" d="M45,275h380v115H45V275z M185,315v35h100v-35H185z"/>
		</g>
		<g>
			<path style="fill:#231F20;" d="M435,130h20c5.523,0,10-4.478,10-10V90c0-11.028-8.972-20-20-20h-10c0-16.542-13.458-30-30-30h-90
				V30c0-16.542-13.458-30-30-30H185c-16.542,0-30,13.458-30,30v10H65c-16.542,0-30,13.458-30,30H25C13.972,70,5,78.972,5,90v30
				c0,5.522,4.477,10,10,10h20v85c0,3.506,0.61,6.87,1.72,10H25c-11.028,0-20,8.972-20,20v30c0,5.522,4.477,10,10,10h20v95H15
				c-5.523,0-10,4.478-10,10v70c0,5.522,4.477,10,10,10h440c5.523,0,10-4.478,10-10v-70c0-5.522-4.477-10-10-10h-20v-95h20
				c5.523,0,10-4.478,10-10v-30c0-11.028-8.972-20-20-20h-11.72c1.11-3.13,1.72-6.494,1.72-10V130z M175,30c0-5.514,4.486-10,10-10
				h100c5.514,0,10,4.486,10,10v10H175V30z M65,60h340c5.514,0,10,4.486,10,10H55C55,64.486,59.486,60,65,60z M25,90h420v20H25V90z
				 M445,450H25v-50h420V450z M415,305h-65v20h65v55H55v-55h65v-20H55v-20h360V305z M445,265H25v-20h420V265z M65,225
				c-5.514,0-10-4.486-10-10v-45h65v-20H55v-20h360v20h-65v20h65v45c0,5.514-4.486,10-10,10H65z"/>
			<path style="fill:#231F20;" d="M155,170h20v25c0,5.522,4.477,10,10,10h100c5.523,0,10-4.478,10-10v-25h20v-20H155V170z M275,185
				h-80v-15h80V185z"/>
			<path style="fill:#231F20;" d="M175,350c0,5.522,4.477,10,10,10h100c5.523,0,10-4.478,10-10v-25h20v-20H155v20h20V350z M275,340
				h-80v-15h80V340z"/>
			<rect x="200" y="415" style="fill:#231F20;" width="70" height="20"/>
			<rect x="285" y="415" style="fill:#231F20;" width="20" height="20"/>
			<rect x="165" y="415" style="fill:#231F20;" width="20" height="20"/>
		</g>
	</g>
</g>
<g>
</g>
<g>
</g>
<g>
</g>
<g>
</g>
<g>
</g>
<g>
</g>
<g>
</g>
<g>
</g>
<g>
</g>
<g>
</g>
<g>
</g>
<g>
</g>
<g>
</g>
<g>
</g>
<g>
</g>
</svg>
