<?xml version="1.0" encoding="iso-8859-1"?>
<!-- Generator: Adobe Illustrator 19.0.0, SVG Export Plug-In . SVG Version: 6.00 Build 0)  -->
<svg version="1.1" id="Layer_1" xmlns="http://www.w3.org/2000/svg" xmlns:xlink="http://www.w3.org/1999/xlink" x="0px" y="0px"
	 viewBox="0 0 490 490" style="enable-background:new 0 0 490 490;" xml:space="preserve">
<g>
	<g id="XMLID_32_">
		<g>
			<path style="fill:#91979C;" d="M95,205V20c0-5.498,4.502-10,10-10h280c5.498,0,10,4.502,10,10v185H95z"/>
			<path style="fill:#AFB6BB;" d="M95,205h300v265c0,5.498-4.502,10-10,10H105c-5.498,0-10-4.502-10-10V205z"/>
		</g>
		<g>
			<path style="fill:#231F20;" d="M385,0H105C93.972,0,85,8.972,85,20v450c0,11.028,8.972,20,20,20h280c11.028,0,20-8.972,20-20V20
				C405,8.972,396.028,0,385,0z M385,20v175H105V20H385z M105,470V250h220v-20H105v-15h280l0.001,255H105z"/>
			<path style="fill:#231F20;" d="M335,295h-20v20h10v30h-10v20h20c5.523,0,10-4.478,10-10v-50C345,299.478,340.523,295,335,295z"/>
			<path style="fill:#231F20;" d="M345,135V85c0-5.522-4.477-10-10-10h-20v20h10v30h-10v20h20C340.523,145,345,140.522,345,135z"/>
			<rect x="120" y="130" style="fill:#231F20;" width="30" height="20"/>
			<rect x="120" y="160" style="fill:#231F20;" width="50" height="20"/>
		</g>
	</g>
</g>
<g>
</g>
<g>
</g>
<g>
</g>
<g>
</g>
<g>
</g>
<g>
</g>
<g>
</g>
<g>
</g>
<g>
</g>
<g>
</g>
<g>
</g>
<g>
</g>
<g>
</g>
<g>
</g>
<g>
</g>
</svg>
