<?xml version="1.0" encoding="iso-8859-1"?>
<!-- Generator: Adobe Illustrator 19.0.0, SVG Export Plug-In . SVG Version: 6.00 Build 0)  -->
<svg version="1.1" id="Layer_1" xmlns="http://www.w3.org/2000/svg" xmlns:xlink="http://www.w3.org/1999/xlink" x="0px" y="0px"
	 viewBox="0 0 480 480" style="enable-background:new 0 0 480 480;" xml:space="preserve">
<g>
	<g id="XMLID_42_">
		<g>
			<rect x="105" y="45" style="fill:#31C0D8;" width="270" height="90"/>
			<path style="fill:#AFB6BB;" d="M155,365c19.302,0,35,15.703,35,35s-15.698,35-35,35s-35-15.703-35-35S135.698,365,155,365z
				 M155,410c5.498,0,10-4.502,10-10s-4.502-10-10-10s-10,4.502-10,10S149.502,410,155,410z"/>
			<path style="fill:#AFB6BB;" d="M325,410c5.498,0,10-4.502,10-10s-4.502-10-10-10s-10,4.502-10,10S319.502,410,325,410z M325,365
				c19.297,0,35,15.703,35,35s-15.703,35-35,35s-35-15.703-35-35S305.703,365,325,365z"/>
			<path style="fill:#E7ECED;" d="M70,470V10h340v460H70z M375,135V45H105v90H375z M360,400c0-19.297-15.703-35-35-35
				s-35,15.703-35,35s15.703,35,35,35S360,419.297,360,400z M190,400c0-19.297-15.698-35-35-35s-35,15.703-35,35s15.698,35,35,35
				S190,419.297,190,400z"/>
			<path style="fill:#FFD248;" d="M70,10v460H30c-11.001,0-20-9.004-20-20V30c0-10.996,8.999-20,20-20H70z"/>
			<path style="fill:#FFD248;" d="M470,30v420c0,10.996-9.004,20-20,20h-40V10h40C460.996,10,470,19.004,470,30z"/>
			<path style="fill:#231F20;" d="M335,400c0,5.498-4.502,10-10,10s-10-4.502-10-10s4.502-10,10-10S335,394.502,335,400z"/>
			<path style="fill:#231F20;" d="M165,400c0,5.498-4.502,10-10,10s-10-4.502-10-10s4.502-10,10-10S165,394.502,165,400z"/>
		</g>
		<g>
			<path style="fill:#231F20;" d="M450,0H30C13.458,0,0,13.458,0,30v420c0,16.542,13.458,30,30,30h420c16.542,0,30-13.458,30-30V30
				C480,13.458,466.542,0,450,0z M230,245v215H80V20h320v440H250V245H230z M20,450V30c0-5.514,4.486-10,10-10h30v440H30
				C24.486,460,20,455.514,20,450z M460,450c0,5.514-4.486,10-10,10h-30V20h30c5.514,0,10,4.486,10,10V450z"/>
			<path style="fill:#231F20;" d="M385,135V45c0-5.522-4.477-10-10-10H105c-5.523,0-10,4.478-10,10v90c0,5.522,4.477,10,10,10h270
				C380.523,145,385,140.522,385,135z M365,125H115V55h250V125z"/>
			<path style="fill:#231F20;" d="M155,355c-24.813,0-45,20.187-45,45s20.187,45,45,45s45-20.187,45-45S179.813,355,155,355z
				 M155,425c-13.785,0-25-11.215-25-25s11.215-25,25-25s25,11.215,25,25S168.785,425,155,425z"/>
			<path style="fill:#231F20;" d="M325,355c-24.813,0-45,20.187-45,45s20.187,45,45,45s45-20.187,45-45S349.813,355,325,355z
				 M325,425c-13.785,0-25-11.215-25-25s11.215-25,25-25s25,11.215,25,25S338.785,425,325,425z"/>
			<rect x="140" y="70" style="fill:#231F20;" width="20" height="40"/>
			<rect x="170" y="70" style="fill:#231F20;" width="20" height="40"/>
			<rect x="200" y="70" style="fill:#231F20;" width="20" height="40"/>
			<rect x="230" y="70" style="fill:#231F20;" width="20" height="40"/>
			<rect x="260" y="70" style="fill:#231F20;" width="20" height="40"/>
			<rect x="290" y="70" style="fill:#231F20;" width="20" height="40"/>
			<rect x="320" y="70" style="fill:#231F20;" width="20" height="40"/>
		</g>
	</g>
</g>
<g>
</g>
<g>
</g>
<g>
</g>
<g>
</g>
<g>
</g>
<g>
</g>
<g>
</g>
<g>
</g>
<g>
</g>
<g>
</g>
<g>
</g>
<g>
</g>
<g>
</g>
<g>
</g>
<g>
</g>
</svg>
