<?xml version="1.0" encoding="iso-8859-1"?>
<!-- Generator: Adobe Illustrator 19.0.0, SVG Export Plug-In . SVG Version: 6.00 Build 0)  -->
<svg version="1.1" id="Layer_1" xmlns="http://www.w3.org/2000/svg" xmlns:xlink="http://www.w3.org/1999/xlink" x="0px" y="0px"
	 viewBox="0 0 480 480" style="enable-background:new 0 0 480 480;" xml:space="preserve">
<g>
	<g id="XMLID_51_">
		<g>
			<path style="fill:#AFB6BB;" d="M470,60v360c0,27.598-22.402,50-50,50H60c-27.598,0-50-22.402-50-50V60c0-27.598,22.402-50,50-50
				h360C447.598,10,470,32.402,470,60z M425,405V75c0-10.996-9.004-20-20-20H75c-10.996,0-20,9.004-20,20v330
				c0,10.996,9.004,20,20,20h330C415.996,425,425,415.996,425,405z"/>
			<path style="fill:#546A79;" d="M345,315v25c0,5.498-4.502,10-10,10h-30c-5.498,0-10-4.502-10-10v-25H345z"/>
			<path style="fill:#E7ECED;" d="M75,425c-10.996,0-20-9.004-20-20V75c0-10.996,9.004-20,20-20h330c10.996,0,20,9.004,20,20v330
				c0,10.996-9.004,20-20,20H75z M375,175c0-24.902-20.098-45-45-45h-20c-24.902,0-45,20.098-45,45c0,19.6,12.598,35.996,30,42.207
				V315v25c0,5.498,4.502,10,10,10h30c5.498,0,10-4.502,10-10v-25v-97.793C362.402,210.996,375,194.6,375,175z M215,175
				c0-24.902-20.098-45-45-45h-20c-24.902,0-45,20.098-45,45c0,19.6,12.598,35.996,30,42.207V315v25c0,5.498,4.502,10,10,10h30
				c5.498,0,10-4.502,10-10v-25v-97.793C202.402,210.996,215,194.6,215,175z"/>
			<path style="fill:#546A79;" d="M185,315v25c0,5.498-4.502,10-10,10h-30c-5.498,0-10-4.502-10-10v-25H185z"/>
			<path style="fill:#546A79;" d="M170,130c24.902,0,45,20.098,45,45c0,19.6-12.598,35.996-30,42.207V315h-50v-97.793
				c-17.402-6.211-30-22.607-30-42.207c0-24.902,20.098-45,45-45H170z"/>
			<path style="fill:#546A79;" d="M330,130c24.902,0,45,20.098,45,45c0,19.6-12.598,35.996-30,42.207V315h-50v-97.793
				c-17.402-6.211-30-22.607-30-42.207c0-24.902,20.098-45,45-45H330z"/>
		</g>
		<g>
			<path style="fill:#231F20;" d="M420,0H60C26.916,0,0,26.916,0,60v360c0,33.084,26.916,60,60,60h360c33.084,0,60-26.916,60-60V60
				C480,26.916,453.084,0,420,0z M460,420c0,22.056-17.944,40-40,40H60c-22.056,0-40-17.944-40-40V60c0-22.056,17.944-40,40-40h360
				c22.056,0,40,17.944,40,40V420z"/>
			<path style="fill:#231F20;" d="M405,45H75c-16.542,0-30,13.458-30,30v330c0,16.542,13.458,30,30,30h330c16.542,0,30-13.458,30-30
				V75C435,58.458,421.542,45,405,45z M415,405c0,5.514-4.486,10-10,10H250v-55h-20v55H75c-5.514,0-10-4.486-10-10V75
				c0-5.514,4.486-10,10-10h155v55h20V65h155c5.514,0,10,4.486,10,10V405z"/>
			<path style="fill:#231F20;" d="M170,120h-20c-30.327,0-55,24.673-55,55c0,20.644,11.801,39.435,30,48.756V340
				c0,11.028,8.972,20,20,20h30c11.028,0,20-8.972,20-20V223.756c18.199-9.321,30-28.112,30-48.756C225,144.673,200.327,120,170,120
				z M145,340v-15h30.002v15H145z M181.639,207.789c-3.981,1.421-6.639,5.191-6.639,9.418L175.002,305H145v-87.793
				c0-4.227-2.657-7.997-6.639-9.418C124.389,202.802,115,189.625,115,175c0-19.299,15.701-35,35-35h20c19.299,0,35,15.701,35,35
				C205,189.625,195.611,202.802,181.639,207.789z"/>
			<path style="fill:#231F20;" d="M330,120h-20c-30.327,0-55,24.673-55,55c0,20.644,11.801,39.435,30,48.756V340
				c0,11.028,8.972,20,20,20h30c11.028,0,20-8.972,20-20V223.756c18.199-9.321,30-28.112,30-48.756C385,144.673,360.327,120,330,120
				z M305,340v-15h30.002v15H305z M341.639,207.789c-3.981,1.421-6.639,5.191-6.639,9.418L335.002,305H305v-87.793
				c0-4.227-2.657-7.997-6.639-9.418C284.389,202.802,275,189.625,275,175c0-19.299,15.701-35,35-35h20c19.299,0,35,15.701,35,35
				C365,189.625,355.611,202.802,341.639,207.789z"/>
			<polygon style="fill:#231F20;" points="295,180 310,180 310,200 330,200 330,180 345,180 345,160 295,160 			"/>
			<polygon style="fill:#231F20;" points="135,180 150,180 150,200 170,200 170,180 185,180 185,160 135,160 			"/>
			<rect x="380" y="80" style="fill:#231F20;" width="20" height="20"/>
			<rect x="80" y="80" style="fill:#231F20;" width="20" height="20"/>
			<rect x="380" y="380" style="fill:#231F20;" width="20" height="20"/>
			<rect x="80" y="380" style="fill:#231F20;" width="20" height="20"/>
		</g>
	</g>
</g>
<g>
</g>
<g>
</g>
<g>
</g>
<g>
</g>
<g>
</g>
<g>
</g>
<g>
</g>
<g>
</g>
<g>
</g>
<g>
</g>
<g>
</g>
<g>
</g>
<g>
</g>
<g>
</g>
<g>
</g>
</svg>
