<?xml version="1.0" encoding="iso-8859-1"?>
<!-- Generator: Adobe Illustrator 19.0.0, SVG Export Plug-In . SVG Version: 6.00 Build 0)  -->
<svg version="1.1" id="Layer_1" xmlns="http://www.w3.org/2000/svg" xmlns:xlink="http://www.w3.org/1999/xlink" x="0px" y="0px"
	 viewBox="0 0 410 410" style="enable-background:new 0 0 410 410;" xml:space="preserve">
<g>
	<g id="XMLID_26_">
		<g>
			<rect x="25" y="337.5" style="fill:#AFB6BB;" width="35" height="60"/>
			<rect x="350" y="337.5" style="fill:#AFB6BB;" width="35" height="60"/>
			<polygon style="fill:#DD352E;" points="385,302.5 385,337.5 350,337.5 60,337.5 25,337.5 25,302.5 			"/>
			<path style="fill:#DF4F2D;" d="M75,227.5h260v-150c0-5.498,4.502-10,10-10h45c5.498,0,10,4.502,10,10v215c0,5.498-4.502,10-10,10
				h-5H25h-5c-5.498,0-10-4.502-10-10v-215c0-5.498,4.502-10,10-10h45c5.498,0,10,4.502,10,10V227.5z"/>
			<polygon style="fill:#DD352E;" points="75,77.5 75,12.5 335,12.5 335,77.5 335,227.5 75,227.5 			"/>
		</g>
		<g>
			<path style="fill:#231F20;" d="M390,57.5h-45v-45c0-5.523-4.478-10-10-10H75c-5.523,0-10,4.477-10,10v45H20
				c-11.028,0-20,8.972-20,20v215c0,9.299,6.388,17.113,15,19.342V397.5c0,5.523,4.477,10,10,10h35c5.523,0,10-4.477,10-10v-50h270
				v50c0,5.523,4.478,10,10,10h35c5.522,0,10-4.477,10-10v-85.658c8.612-2.229,15-10.043,15-19.342v-215
				C410,66.472,401.028,57.5,390,57.5z M85,22.5h110v110h20v-110h110v195H85V22.5z M20,77.5h45v180h20v-20h240v20h20v-180h45v215H20
				V77.5z M50,387.5H35v-40h15V387.5z M35,327.5v-15h340v15H35z M375,387.5h-15v-40h15V387.5z"/>
			<rect x="100" y="37.5" style="fill:#231F20;" width="20" height="20"/>
			<rect x="130" y="37.5" style="fill:#231F20;" width="20" height="20"/>
			<rect x="160" y="37.5" style="fill:#231F20;" width="20" height="20"/>
			<rect x="100" y="67.5" style="fill:#231F20;" width="20" height="20"/>
			<rect x="130" y="67.5" style="fill:#231F20;" width="20" height="20"/>
			<rect x="160" y="67.5" style="fill:#231F20;" width="20" height="20"/>
			<rect x="100" y="97.5" style="fill:#231F20;" width="20" height="20"/>
			<rect x="130" y="97.5" style="fill:#231F20;" width="20" height="20"/>
			<rect x="160" y="97.5" style="fill:#231F20;" width="20" height="20"/>
			<rect x="100" y="127.5" style="fill:#231F20;" width="20" height="20"/>
			<rect x="130" y="127.5" style="fill:#231F20;" width="20" height="20"/>
			<rect x="160" y="127.5" style="fill:#231F20;" width="20" height="20"/>
			<rect x="230" y="37.5" style="fill:#231F20;" width="20" height="20"/>
			<rect x="260" y="37.5" style="fill:#231F20;" width="20" height="20"/>
			<rect x="290" y="37.5" style="fill:#231F20;" width="20" height="20"/>
			<rect x="230" y="67.5" style="fill:#231F20;" width="20" height="20"/>
			<rect x="260" y="67.5" style="fill:#231F20;" width="20" height="20"/>
			<rect x="290" y="67.5" style="fill:#231F20;" width="20" height="20"/>
			<rect x="230" y="97.5" style="fill:#231F20;" width="20" height="20"/>
			<rect x="260" y="97.5" style="fill:#231F20;" width="20" height="20"/>
			<rect x="290" y="97.5" style="fill:#231F20;" width="20" height="20"/>
			<rect x="230" y="127.5" style="fill:#231F20;" width="20" height="20"/>
			<rect x="260" y="127.5" style="fill:#231F20;" width="20" height="20"/>
			<rect x="290" y="127.5" style="fill:#231F20;" width="20" height="20"/>
			<rect x="100" y="172.5" style="fill:#231F20;" width="210" height="20"/>
		</g>
	</g>
</g>
<g>
</g>
<g>
</g>
<g>
</g>
<g>
</g>
<g>
</g>
<g>
</g>
<g>
</g>
<g>
</g>
<g>
</g>
<g>
</g>
<g>
</g>
<g>
</g>
<g>
</g>
<g>
</g>
<g>
</g>
</svg>
