<?xml version="1.0" encoding="iso-8859-1"?>
<!-- Generator: Adobe Illustrator 19.0.0, SVG Export Plug-In . SVG Version: 6.00 Build 0)  -->
<svg version="1.1" id="Layer_1" xmlns="http://www.w3.org/2000/svg" xmlns:xlink="http://www.w3.org/1999/xlink" x="0px" y="0px"
	 viewBox="0 0 490 490" style="enable-background:new 0 0 490 490;" xml:space="preserve">
<g>
	<g id="XMLID_35_">
		<g>
			<rect x="300" y="440" style="fill:#546A79;" width="35" height="40"/>
			<rect x="155" y="440" style="fill:#546A79;" width="35" height="40"/>
			<path style="fill:#546A79;" d="M245,260c30.4,0,55,24.6,55,55s-24.6,55-55,55s-55-24.6-55-55S214.6,260,245,260z M265,315
				c0-10.996-9.004-20-20-20s-20,9.004-20,20s9.004,20,20,20S265,325.996,265,315z"/>
			<path style="fill:#546A79;" d="M245,80c30.4,0,55,24.6,55,55s-24.6,55-55,55s-55-24.6-55-55S214.6,80,245,80z M265,135
				c0-10.996-9.004-20-20-20s-20,9.004-20,20s9.004,20,20,20S265,145.996,265,135z"/>
			<path style="fill:#AFB6BB;" d="M335,10v430h-35H190h-35V10H335z M300,135c0-30.4-24.6-55-55-55s-55,24.6-55,55s24.6,55,55,55
				S300,165.4,300,135z M300,315c0-30.4-24.6-55-55-55s-55,24.6-55,55s24.6,55,55,55S300,345.4,300,315z"/>
			<path style="fill:#231F20;" d="M245,115c10.996,0,20,9.004,20,20s-9.004,20-20,20s-20-9.004-20-20S234.004,115,245,115z"/>
			<path style="fill:#231F20;" d="M245,295c10.996,0,20,9.004,20,20s-9.004,20-20,20s-20-9.004-20-20S234.004,295,245,295z"/>
		</g>
		<g>
			<path style="fill:#231F20;" d="M335,0H155c-5.522,0-10,4.478-10,10v470c0,5.522,4.478,10,10,10h35c5.522,0,10-4.478,10-10v-30h90
				v30c0,5.522,4.478,10,10,10h35c5.522,0,10-4.478,10-10V10C345,4.478,340.522,0,335,0z M180,470h-15v-20h15V470z M165,430v-15h140
				v-20H165V20h160v410H165z M325,470h-15v-20h15V470z"/>
			<path style="fill:#231F20;" d="M245,200c35.841,0,65-29.159,65-65s-29.159-65-65-65s-65,29.159-65,65S209.159,200,245,200z
				 M245,90c24.813,0,45,20.187,45,45s-20.187,45-45,45s-45-20.187-45-45S220.187,90,245,90z"/>
			<path style="fill:#231F20;" d="M245,250c-35.841,0-65,29.159-65,65s29.159,65,65,65s65-29.159,65-65S280.841,250,245,250z
				 M245,360c-24.813,0-45-20.187-45-45s20.187-45,45-45s45,20.187,45,45S269.813,360,245,360z"/>
			<rect x="220" y="35" style="fill:#231F20;" width="50" height="20"/>
			<rect x="210" y="215" style="fill:#231F20;" width="30" height="20"/>
			<rect x="250" y="215" style="fill:#231F20;" width="30" height="20"/>
		</g>
	</g>
</g>
<g>
</g>
<g>
</g>
<g>
</g>
<g>
</g>
<g>
</g>
<g>
</g>
<g>
</g>
<g>
</g>
<g>
</g>
<g>
</g>
<g>
</g>
<g>
</g>
<g>
</g>
<g>
</g>
<g>
</g>
</svg>
