<?xml version="1.0" encoding="iso-8859-1"?>
<!-- Generator: Adobe Illustrator 19.0.0, SVG Export Plug-In . SVG Version: 6.00 Build 0)  -->
<svg version="1.1" id="Layer_1" xmlns="http://www.w3.org/2000/svg" xmlns:xlink="http://www.w3.org/1999/xlink" x="0px" y="0px"
	 viewBox="0 0 490 490" style="enable-background:new 0 0 490 490;" xml:space="preserve">
<g>
	<g id="XMLID_49_">
		<g>
			<path style="fill:#AFB6BB;" d="M245,410H10v60c0,5.498,4.502,10,10,10h450c5.498,0,10-4.502,10-10v-60H245z"/>
			<path style="fill:#E7ECED;" d="M10,195h235v215H10V195z M125,235c-38.701,0-70,31.299-70,70s31.299,70,70,70s70-31.299,70-70
				S163.701,235,125,235z"/>
			<path style="fill:#E7ECED;" d="M480,195H245V10h225c5.498,0,10,4.502,10,10V195z M415,100c0-27.598-22.402-50-50-50
				s-50,22.402-50,50s22.402,50,50,50S415,127.598,415,100z"/>
			<path style="fill:#E7ECED;" d="M10,20c0-5.498,4.502-10,10-10h225v185H10V20z M175,100c0-27.598-22.402-50-50-50
				s-50,22.402-50,50s22.402,50,50,50S175,127.598,175,100z"/>
			<path style="fill:#E7ECED;" d="M435,305c0-38.701-31.299-70-70-70s-70,31.299-70,70s31.299,70,70,70S435,343.701,435,305z
				 M480,410H245V195h235V410z"/>
			<path style="fill:#546A79;" d="M365,235c38.701,0,70,31.299,70,70s-31.299,70-70,70s-70-31.299-70-70S326.299,235,365,235z"/>
			<path style="fill:#546A79;" d="M125,375c-38.701,0-70-31.299-70-70s31.299-70,70-70s70,31.299,70,70S163.701,375,125,375z"/>
			<path style="fill:#546A79;" d="M125,50c27.598,0,50,22.402,50,50s-22.402,50-50,50s-50-22.402-50-50S97.402,50,125,50z"/>
			<path style="fill:#546A79;" d="M365,50c27.598,0,50,22.402,50,50s-22.402,50-50,50s-50-22.402-50-50S337.402,50,365,50z"/>
		</g>
		<g>
			<path style="fill:#231F20;" d="M470,0H20C8.972,0,0,8.972,0,20v450c0,11.028,8.972,20,20,20h450c11.028,0,20-8.972,20-20V20
				C490,8.972,481.028,0,470,0z M470,40h-40v20h40l0.001,125H255V60h40V40h-40V20h215V40z M470.001,245l0.001,155H255V245h40v-20
				h-40v-20h215.001v20H430v20H470.001z M20,225v-20h215v20h-40v20h40v155H20V245h40v-20H20z M235,20v20h-40v20h40v125H20V60h40V40
				H20V20H235z M20,470v-50h450.002v50H20z"/>
			<rect x="35" y="435" style="fill:#231F20;" width="80" height="20"/>
			<rect x="290" y="435" style="fill:#231F20;" width="165" height="20"/>
			<rect x="130" y="435" style="fill:#231F20;" width="20" height="20"/>
			<rect x="170" y="435" style="fill:#231F20;" width="20" height="20"/>
			<rect x="210" y="435" style="fill:#231F20;" width="20" height="20"/>
			<rect x="250" y="435" style="fill:#231F20;" width="20" height="20"/>
			<path style="fill:#231F20;" d="M125,160c33.084,0,60-26.916,60-60s-26.916-60-60-60s-60,26.916-60,60S91.916,160,125,160z
				 M125,60c22.056,0,40,17.944,40,40s-17.944,40-40,40s-40-17.944-40-40S102.944,60,125,60z"/>
			<path style="fill:#231F20;" d="M125,385c44.112,0,80-35.888,80-80s-35.888-80-80-80s-80,35.888-80,80S80.888,385,125,385z
				 M125,245c33.084,0,60,26.916,60,60s-26.916,60-60,60s-60-26.916-60-60S91.916,245,125,245z"/>
			<path style="fill:#231F20;" d="M365,160c33.084,0,60-26.916,60-60s-26.916-60-60-60s-60,26.916-60,60S331.916,160,365,160z
				 M365,60c22.056,0,40,17.944,40,40s-17.944,40-40,40s-40-17.944-40-40S342.944,60,365,60z"/>
			<path style="fill:#231F20;" d="M365,225c-44.112,0-80,35.888-80,80s35.888,80,80,80s80-35.888,80-80S409.112,225,365,225z
				 M365,365c-33.084,0-60-26.916-60-60s26.916-60,60-60s60,26.916,60,60S398.084,365,365,365z"/>
			<rect x="355" y="295" style="fill:#231F20;" width="20" height="20"/>
			<rect x="355" y="265" style="fill:#231F20;" width="20" height="20"/>
			<rect x="355" y="325" style="fill:#231F20;" width="20" height="20"/>
			<rect x="325" y="295" style="fill:#231F20;" width="20" height="20"/>
			<rect x="385" y="295" style="fill:#231F20;" width="20" height="20"/>
			<rect x="115" y="295" style="fill:#231F20;" width="20" height="20"/>
			<rect x="115" y="90" style="fill:#231F20;" width="20" height="20"/>
			<rect x="355" y="90" style="fill:#231F20;" width="20" height="20"/>
			<rect x="115" y="265" style="fill:#231F20;" width="20" height="20"/>
			<rect x="115" y="325" style="fill:#231F20;" width="20" height="20"/>
			<rect x="85" y="295" style="fill:#231F20;" width="20" height="20"/>
			<rect x="145" y="295" style="fill:#231F20;" width="20" height="20"/>
		</g>
	</g>
</g>
<g>
</g>
<g>
</g>
<g>
</g>
<g>
</g>
<g>
</g>
<g>
</g>
<g>
</g>
<g>
</g>
<g>
</g>
<g>
</g>
<g>
</g>
<g>
</g>
<g>
</g>
<g>
</g>
<g>
</g>
</svg>
