<?xml version="1.0" encoding="iso-8859-1"?>
<!-- Generator: Adobe Illustrator 19.0.0, SVG Export Plug-In . SVG Version: 6.00 Build 0)  -->
<svg version="1.1" id="Layer_1" xmlns="http://www.w3.org/2000/svg" xmlns:xlink="http://www.w3.org/1999/xlink" x="0px" y="0px"
	 viewBox="0 0 490 490" style="enable-background:new 0 0 490 490;" xml:space="preserve">
<g>
	<g id="XMLID_26_">
		<g>
			<rect x="55" y="257.5" style="fill:#E7ECED;" width="40" height="200"/>
			<rect x="395" y="257.5" style="fill:#E7ECED;" width="40" height="200"/>
			<path style="fill:#878D91;" d="M245,197.5v60H95H55H45c-11.001,0-20-9.004-20-20v-40H245z"/>
			<path style="fill:#878D91;" d="M245,197.5h220v40c0,10.996-9.004,20-20,20h-10h-40H245V197.5z"/>
			<polygon style="fill:#AFB6BB;" points="480,162.5 480,197.5 465,197.5 245,197.5 25,197.5 10,197.5 10,162.5 175,162.5 
				270,162.5 380,162.5 			"/>
			<rect x="270" y="42.5" style="fill:#FFD248;" width="110" height="120"/>
			<path style="fill:#E7ECED;" d="M220,32.5l-12.7,42.202C218.101,83.799,225,97.3,225,112.5c0,27.598-22.402,50-50,50
				s-50-22.402-50-50c0-15.2,6.899-28.701,17.7-37.798L130,32.5H220z"/>
		</g>
		<g>
			<path style="fill:#231F20;" d="M480,152.5h-90v-110c0-5.523-4.477-10-10-10H270c-5.523,0-10,4.477-10,10v110h-40.327
				c9.522-10.624,15.327-24.645,15.327-40c0-15.258-5.888-29.803-16.348-40.82l10.923-36.298c0.912-3.028,0.336-6.31-1.55-8.848
				S223.163,22.5,220,22.5h-90c-3.163,0-6.139,1.496-8.025,4.034s-2.462,5.819-1.55,8.848l10.923,36.298
				C120.888,82.697,115,97.242,115,112.5c0,15.355,5.805,29.376,15.327,40H10c-5.523,0-10,4.477-10,10v35c0,5.523,4.477,10,10,10h5
				v30c0,16.542,13.458,30,30,30v190c0,5.523,4.477,10,10,10h40c5.523,0,10-4.477,10-10v-190h280v190c0,5.523,4.477,10,10,10h40
				c5.523,0,10-4.477,10-10v-190c16.542,0,30-13.458,30-30v-30h5c5.523,0,10-4.477,10-10v-35C490,156.977,485.523,152.5,480,152.5z
				 M280,52.5h90v100h-90V52.5z M135,112.5c0-11.591,5.155-22.58,14.142-30.149c3.052-2.571,4.284-6.709,3.134-10.531l-8.824-29.32
				h63.096l-8.824,29.32c-1.15,3.821,0.082,7.96,3.134,10.531C209.845,89.92,215,100.909,215,112.5c0,22.056-17.944,40-40,40
				S135,134.556,135,112.5z M20,172.5h450v15H20V172.5z M85,447.5H65v-180h20V447.5z M45,247.5c-5.514,0-10-4.486-10-10v-30h200v40
				H45z M425,447.5h-20v-180h20V447.5z M455,237.5c0,5.514-4.486,10-10,10H255v-40h200V237.5z"/>
			<rect x="275" y="217.5" style="fill:#231F20;" width="20" height="20"/>
			<rect x="195" y="217.5" style="fill:#231F20;" width="20" height="20"/>
			<rect x="315" y="62.5" style="fill:#231F20;" width="20" height="20"/>
			<rect x="340" y="62.5" style="fill:#231F20;" width="20" height="20"/>
			<rect x="290" y="92.5" style="fill:#231F20;" width="20" height="20"/>
			<rect x="315" y="92.5" style="fill:#231F20;" width="20" height="20"/>
			<rect x="340" y="92.5" style="fill:#231F20;" width="20" height="20"/>
			<rect x="310" y="122.5" style="fill:#231F20;" width="20" height="20"/>
			<rect x="335" y="122.5" style="fill:#231F20;" width="20" height="20"/>
		</g>
	</g>
</g>
<g>
</g>
<g>
</g>
<g>
</g>
<g>
</g>
<g>
</g>
<g>
</g>
<g>
</g>
<g>
</g>
<g>
</g>
<g>
</g>
<g>
</g>
<g>
</g>
<g>
</g>
<g>
</g>
<g>
</g>
</svg>
