<?xml version="1.0" encoding="iso-8859-1"?>
<!-- Generator: Adobe Illustrator 19.0.0, SVG Export Plug-In . SVG Version: 6.00 Build 0)  -->
<svg version="1.1" id="Layer_1" xmlns="http://www.w3.org/2000/svg" xmlns:xlink="http://www.w3.org/1999/xlink" x="0px" y="0px"
	 viewBox="0 0 490 490" style="enable-background:new 0 0 490 490;" xml:space="preserve">
<g>
	<g id="XMLID_46_">
		<g>
			<path style="fill:#8C9397;" d="M427.5,363.438c9.697,0,17.5,7.803,17.5,17.5s-7.803,17.5-17.5,17.5s-17.5-7.803-17.5-17.5
				S417.803,363.438,427.5,363.438z"/>
			<path style="fill:#8C9397;" d="M427.5,298.438c9.697,0,17.5,7.803,17.5,17.5s-7.803,17.5-17.5,17.5s-17.5-7.803-17.5-17.5
				S417.803,298.438,427.5,298.438z"/>
			<polygon style="fill:#546A79;" points="480,433.438 480,473.438 10,473.438 10,433.438 375,433.438 			"/>
			<path style="fill:#E7ECED;" d="M427.5,363.438c-9.697,0-17.5,7.803-17.5,17.5s7.803,17.5,17.5,17.5s17.5-7.803,17.5-17.5
				S437.197,363.438,427.5,363.438z M427.5,333.438c9.697,0,17.5-7.803,17.5-17.5s-7.803-17.5-17.5-17.5s-17.5,7.803-17.5,17.5
				S417.803,333.438,427.5,333.438z M480,153.438v280H375v-290h95C475.498,143.438,480,147.94,480,153.438z"/>
			<path style="fill:#AFB6BB;" d="M375,143.438v290H10v-280c0-5.498,4.502-10,10-10h190h70H375z M340,398.438v-220H45v220H340z"/>
			<path style="fill:#AFB6BB;" d="M280,143.438h-70c0-19.297,15.703-35,35-35S280,124.142,280,143.438z"/>
			<rect x="45" y="178.438" style="fill:#31C0D8;" width="295" height="220"/>
		</g>
		<g>
			<path style="fill:#231F20;" d="M470,133.438H288.866c-3.099-13.596-12.362-24.867-24.691-30.699l78.085-82.423L327.74,6.561
				L245,93.898L162.26,6.561l-14.52,13.756l78.085,82.423c-12.33,5.832-21.593,17.104-24.691,30.699H20c-11.028,0-20,8.972-20,20
				v320c0,5.522,4.478,10,10,10h470c5.522,0,10-4.478,10-10v-320C490,142.41,481.028,133.438,470,133.438z M470,423.438h-85v-270h85
				V423.438z M245,118.438c10.23,0,19.041,6.18,22.906,15h-45.813C225.959,124.618,234.77,118.438,245,118.438z M365,153.438v270H20
				v-270H365z M470,463.438H20v-20h450V463.438z"/>
			<path style="fill:#231F20;" d="M45,408.438h295c5.522,0,10-4.478,10-10v-220c0-5.522-4.478-10-10-10H45c-5.522,0-10,4.478-10,10
				v220C35,403.961,39.478,408.438,45,408.438z M55,188.438h275v200H55V188.438z"/>
			<path style="fill:#231F20;" d="M70,213.438v45h20v-35h15v-20H80C74.478,203.438,70,207.916,70,213.438z"/>
			<rect x="70" y="273.438" style="fill:#231F20;" width="20" height="20"/>
			<path style="fill:#231F20;" d="M427.5,343.438c15.163,0,27.5-12.337,27.5-27.5s-12.337-27.5-27.5-27.5s-27.5,12.337-27.5,27.5
				S412.337,343.438,427.5,343.438z M427.5,308.438c4.206,0,7.5,3.294,7.5,7.5s-3.294,7.5-7.5,7.5s-7.5-3.294-7.5-7.5
				S423.294,308.438,427.5,308.438z"/>
			<path style="fill:#231F20;" d="M427.5,353.438c-15.163,0-27.5,12.337-27.5,27.5s12.337,27.5,27.5,27.5s27.5-12.337,27.5-27.5
				S442.663,353.438,427.5,353.438z M427.5,388.438c-4.206,0-7.5-3.294-7.5-7.5s3.294-7.5,7.5-7.5s7.5,3.294,7.5,7.5
				S431.706,388.438,427.5,388.438z"/>
			<rect x="405" y="253.438" style="fill:#231F20;" width="45" height="20"/>
			<rect x="405" y="213.438" style="fill:#231F20;" width="45" height="20"/>
			<rect x="405" y="173.438" style="fill:#231F20;" width="45" height="20"/>
		</g>
	</g>
</g>
<g>
</g>
<g>
</g>
<g>
</g>
<g>
</g>
<g>
</g>
<g>
</g>
<g>
</g>
<g>
</g>
<g>
</g>
<g>
</g>
<g>
</g>
<g>
</g>
<g>
</g>
<g>
</g>
<g>
</g>
</svg>
