<?xml version="1.0" encoding="iso-8859-1"?>
<!-- Generator: Adobe Illustrator 18.0.0, SVG Export Plug-In . SVG Version: 6.00 Build 0)  -->
<!DOCTYPE svg PUBLIC "-//W3C//DTD SVG 1.1//EN" "http://www.w3.org/Graphics/SVG/1.1/DTD/svg11.dtd">
<svg version="1.1" id="Capa_1" xmlns="http://www.w3.org/2000/svg" xmlns:xlink="http://www.w3.org/1999/xlink" x="0px" y="0px"
	 viewBox="0 0 203.896 203.896" style="enable-background:new 0 0 203.896 203.896;" xml:space="preserve">
<path d="M141.531,190.772l-18.777-17.165L140.291,8.291c0.225-2.115-0.459-4.226-1.882-5.807C136.987,0.903,134.96,0,132.833,0
	H71.156c-2.127,0-4.154,0.903-5.576,2.484c-1.423,1.582-2.107,3.692-1.882,5.807L81.23,173.608l-18.866,17.254
	c-2.285,2.089-3.051,5.368-1.928,8.253c1.122,2.883,3.898,4.781,6.99,4.781c0.003,0,0.006,0,0.01,0l69.045-0.089
	c3.093-0.004,5.866-1.906,6.983-4.791C144.582,196.134,143.814,192.859,141.531,190.772z M79.494,15h45.002L108.15,169.085H95.834
	L79.494,15z M86.767,188.872L92,184.085h19.985l5.193,4.748L86.767,188.872z"/>
<g>
</g>
<g>
</g>
<g>
</g>
<g>
</g>
<g>
</g>
<g>
</g>
<g>
</g>
<g>
</g>
<g>
</g>
<g>
</g>
<g>
</g>
<g>
</g>
<g>
</g>
<g>
</g>
<g>
</g>
</svg>
