<?xml version="1.0" encoding="iso-8859-1"?>
<!-- Generator: Adobe Illustrator 18.0.0, SVG Export Plug-In . SVG Version: 6.00 Build 0)  -->
<!DOCTYPE svg PUBLIC "-//W3C//DTD SVG 1.1//EN" "http://www.w3.org/Graphics/SVG/1.1/DTD/svg11.dtd">
<svg version="1.1" id="Capa_1" xmlns="http://www.w3.org/2000/svg" xmlns:xlink="http://www.w3.org/1999/xlink" x="0px" y="0px"
	 viewBox="0 0 222.785 222.785" style="enable-background:new 0 0 222.785 222.785;" xml:space="preserve">
<path d="M151.086,60.938h-12.32V7.5c0-4.143-3.358-7.5-7.5-7.5H91.52c-4.142,0-7.5,3.357-7.5,7.5v53.438h-12.32
	c-4.142,0-7.5,3.357-7.5,7.5v146.848c0,4.143,3.358,7.5,7.5,7.5h79.387c4.142,0,7.5-3.357,7.5-7.5V68.438
	C158.586,64.295,155.228,60.938,151.086,60.938z M79.199,129.047h64.387v35.273H79.199V129.047z M123.766,15v21.518H99.02V15
	H123.766z M91.52,75.938c4.142,0,7.5-3.357,7.5-7.5v-16.92h24.746v16.92c0,4.143,3.358,7.5,7.5,7.5h12.32v38.109H79.199V75.938
	H91.52z M79.199,207.785V179.32h64.387v28.465H79.199z"/>
<g>
</g>
<g>
</g>
<g>
</g>
<g>
</g>
<g>
</g>
<g>
</g>
<g>
</g>
<g>
</g>
<g>
</g>
<g>
</g>
<g>
</g>
<g>
</g>
<g>
</g>
<g>
</g>
<g>
</g>
</svg>
