<?xml version="1.0" encoding="iso-8859-1"?>
<!-- Generator: Adobe Illustrator 18.0.0, SVG Export Plug-In . SVG Version: 6.00 Build 0)  -->
<!DOCTYPE svg PUBLIC "-//W3C//DTD SVG 1.1//EN" "http://www.w3.org/Graphics/SVG/1.1/DTD/svg11.dtd">
<svg version="1.1" id="Capa_1" xmlns="http://www.w3.org/2000/svg" xmlns:xlink="http://www.w3.org/1999/xlink" x="0px" y="0px"
	 viewBox="0 0 202.008 202.008" style="enable-background:new 0 0 202.008 202.008;" xml:space="preserve">
<path d="M149.317,45.627h-14.591V7.5c0-4.143-3.357-7.5-7.5-7.5H74.782c-4.143,0-7.5,3.357-7.5,7.5v38.127H52.69
	c-4.143,0-7.5,3.358-7.5,7.5v141.381c0,4.143,3.357,7.5,7.5,7.5h96.627c4.143,0,7.5-3.357,7.5-7.5V53.127
	C156.817,48.984,153.46,45.627,149.317,45.627z M60.19,103.301h81.627v41.033H60.19V103.301z M119.727,15v30.627H82.282V15H119.727z
	 M74.782,60.627h52.444h14.591v27.674H60.19V60.627H74.782z M60.19,187.008v-27.674h81.627v27.674H60.19z"/>
<g>
</g>
<g>
</g>
<g>
</g>
<g>
</g>
<g>
</g>
<g>
</g>
<g>
</g>
<g>
</g>
<g>
</g>
<g>
</g>
<g>
</g>
<g>
</g>
<g>
</g>
<g>
</g>
<g>
</g>
</svg>
