<?xml version="1.0" encoding="iso-8859-1"?>
<!-- Generator: Adobe Illustrator 18.0.0, SVG Export Plug-In . SVG Version: 6.00 Build 0)  -->
<!DOCTYPE svg PUBLIC "-//W3C//DTD SVG 1.1//EN" "http://www.w3.org/Graphics/SVG/1.1/DTD/svg11.dtd">
<svg version="1.1" id="Capa_1" xmlns="http://www.w3.org/2000/svg" xmlns:xlink="http://www.w3.org/1999/xlink" x="0px" y="0px"
	 viewBox="0 0 214.99 214.99" style="enable-background:new 0 0 214.99 214.99;" xml:space="preserve">
<path d="M214.472,118.557l-29.551-75.439c-1.126-2.874-3.897-4.765-6.983-4.765h-36.1V27.739c0-4.142-3.358-7.5-7.5-7.5H9.365
	c-2.625,0-5.058,1.372-6.417,3.617c-1.359,2.245-1.445,5.037-0.227,7.362l18.457,35.244C8.234,90.448,0,119.076,0,140.651
	c0,18.569,6.387,36.782,17.984,51.284c1.423,1.779,3.579,2.816,5.858,2.816h116.691c2.279,0,4.434-1.036,5.857-2.816
	c11.596-14.501,17.982-32.714,17.982-51.284c0-22.318-8.817-52.169-22.535-76.63V53.353h30.982l27.684,70.675
	c1.159,2.959,3.989,4.767,6.985,4.767c0.91,0,1.835-0.167,2.733-0.518C214.08,126.765,215.982,122.413,214.472,118.557z
	 M34.438,73.464h95.498c3.319,6.146,6.304,12.683,8.898,19.322H25.54C28.134,86.147,31.118,79.611,34.438,73.464z M126.838,35.239
	v23.225H33.921L21.759,35.239H126.838z M136.813,179.751H27.563C19.331,168.309,15,154.865,15,140.651
	c0-9.575,1.966-21.056,5.412-32.865h123.55c3.445,11.809,5.411,23.289,5.411,32.865C149.373,154.866,145.042,168.31,136.813,179.751
	z"/>
<g>
</g>
<g>
</g>
<g>
</g>
<g>
</g>
<g>
</g>
<g>
</g>
<g>
</g>
<g>
</g>
<g>
</g>
<g>
</g>
<g>
</g>
<g>
</g>
<g>
</g>
<g>
</g>
<g>
</g>
</svg>
