<?xml version="1.0" encoding="iso-8859-1"?>
<!-- Generator: Adobe Illustrator 18.0.0, SVG Export Plug-In . SVG Version: 6.00 Build 0)  -->
<!DOCTYPE svg PUBLIC "-//W3C//DTD SVG 1.1//EN" "http://www.w3.org/Graphics/SVG/1.1/DTD/svg11.dtd">
<svg version="1.1" id="Capa_1" xmlns="http://www.w3.org/2000/svg" xmlns:xlink="http://www.w3.org/1999/xlink" x="0px" y="0px"
	 viewBox="0 0 203.896 203.896" style="enable-background:new 0 0 203.896 203.896;" xml:space="preserve">
<path d="M148.06,2.814C146.637,1.036,144.482,0,142.203,0H61.693c-2.274,0-4.426,1.032-5.85,2.806
	c-1.423,1.774-1.965,4.098-1.472,6.318l17.544,79.069c-7.509,6.681-11.726,15.594-11.726,25.091
	c0,17.671,14.802,32.403,34.259,35.464v40.147H68.761c-4.142,0-7.5,3.358-7.5,7.5c0,4.142,3.358,7.5,7.5,7.5h66.375
	c4.142,0,7.5-3.358,7.5-7.5c0-4.142-3.358-7.5-7.5-7.5h-25.688V148.75c19.459-3.061,34.263-17.793,34.263-35.465
	c0-9.596-4.29-18.573-11.933-25.271L149.52,9.146C150.021,6.923,149.483,4.594,148.06,2.814z M116.095,89.383
	c-0.679,3.021,0.567,6.149,3.139,7.874c6.023,4.041,9.478,9.883,9.478,16.028c0,11.608-11.998,21.053-26.749,21.059
	c-0.005,0-0.009-0.001-0.014-0.001c-0.004,0-0.009,0.001-0.014,0.001c-14.748-0.006-26.745-9.45-26.745-21.058
	c0-6.079,3.389-11.878,9.298-15.912c2.533-1.729,3.758-4.825,3.094-7.819L71.039,15h61.79L116.095,89.383z"/>
<g>
</g>
<g>
</g>
<g>
</g>
<g>
</g>
<g>
</g>
<g>
</g>
<g>
</g>
<g>
</g>
<g>
</g>
<g>
</g>
<g>
</g>
<g>
</g>
<g>
</g>
<g>
</g>
<g>
</g>
</svg>
