<?xml version="1.0" encoding="iso-8859-1"?>
<!-- Generator: Adobe Illustrator 18.0.0, SVG Export Plug-In . SVG Version: 6.00 Build 0)  -->
<!DOCTYPE svg PUBLIC "-//W3C//DTD SVG 1.1//EN" "http://www.w3.org/Graphics/SVG/1.1/DTD/svg11.dtd">
<svg version="1.1" id="Capa_1" xmlns="http://www.w3.org/2000/svg" xmlns:xlink="http://www.w3.org/1999/xlink" x="0px" y="0px"
	 viewBox="0 0 177.693 177.693" style="enable-background:new 0 0 177.693 177.693;" xml:space="preserve">
<path d="M159.437,128.301c1.344-13.247,1.926-26.519,1.791-39.79c0.002-0.037,0.006-0.074,0.006-0.112
	c0-0.063-0.008-0.124-0.01-0.188c-0.131-11.947-0.861-23.892-2.191-35.813c-0.012-0.469-0.061-0.927-0.154-1.37
	c-1.178-10.204-2.768-20.392-4.824-30.548c-0.484-6.798-6.223-13.698-11.07-18.376C141.585,0.754,139.718,0,137.775,0L39.92,0.006
	c-1.942,0-3.809,0.754-5.207,2.103c-4.849,4.677-10.589,11.576-11.074,18.371c-2.054,10.146-3.642,20.323-4.819,30.517
	c-0.103,0.477-0.159,0.97-0.167,1.476c-1.316,11.817-2.042,23.656-2.18,35.499c-0.008,0.143-0.021,0.283-0.021,0.428
	c0,0.087,0.01,0.171,0.013,0.257c-0.129,13.227,0.454,26.453,1.794,39.656c0.017,0.354,0.054,0.701,0.118,1.041
	c1.202,11.502,2.946,22.984,5.263,34.429c0.267,3.645,2.223,8.557,9.389,12.847c1.164,0.697,2.496,1.065,3.853,1.065h103.933
	c1.357,0,2.689-0.368,3.855-1.066c7.162-4.29,9.117-9.201,9.385-12.846c2.316-11.438,4.061-22.915,5.262-34.41
	C159.382,129.023,159.419,128.665,159.437,128.301z M146.064,80.898H31.63c0.228-6.94,0.667-13.879,1.317-20.811h111.801
	C145.398,67.02,145.837,73.958,146.064,80.898z M31.47,95.898h114.754c-0.09,8.186-0.469,16.37-1.146,24.547H32.616
	C31.939,112.269,31.56,104.084,31.47,95.898z M38.454,22.896c0.088-0.434,0.138-0.873,0.149-1.314c0.172-0.73,1.29-3.107,4.47-6.576
	L134.622,15c3.18,3.472,4.297,5.85,4.467,6.581c0.012,0.441,0.063,0.882,0.15,1.315c1.506,7.382,2.744,14.781,3.766,22.191H34.688
	C35.71,37.678,36.947,30.278,38.454,22.896z M139.24,161.361c-0.051,0.252-0.09,0.506-0.115,0.761
	c-0.121,0.133-0.316,0.327-0.615,0.571H39.185c-0.3-0.245-0.496-0.439-0.617-0.572c-0.025-0.255-0.063-0.509-0.115-0.76
	c-1.759-8.618-3.188-17.261-4.287-25.916h109.359C142.427,144.101,140.997,152.743,139.24,161.361z"/>
<g>
</g>
<g>
</g>
<g>
</g>
<g>
</g>
<g>
</g>
<g>
</g>
<g>
</g>
<g>
</g>
<g>
</g>
<g>
</g>
<g>
</g>
<g>
</g>
<g>
</g>
<g>
</g>
<g>
</g>
</svg>
