<?xml version="1.0" encoding="iso-8859-1"?>
<!-- Generator: Adobe Illustrator 18.0.0, SVG Export Plug-In . SVG Version: 6.00 Build 0)  -->
<!DOCTYPE svg PUBLIC "-//W3C//DTD SVG 1.1//EN" "http://www.w3.org/Graphics/SVG/1.1/DTD/svg11.dtd">
<svg version="1.1" id="Capa_1" xmlns="http://www.w3.org/2000/svg" xmlns:xlink="http://www.w3.org/1999/xlink" x="0px" y="0px"
	 viewBox="0 0 197.723 197.723" style="enable-background:new 0 0 197.723 197.723;" xml:space="preserve">
<path d="M177.979,0H19.744c-4.143,0-7.5,3.358-7.5,7.5c0,23.415,19.049,42.465,42.463,42.465h9.551V74.14
	c0,16.505,11.618,30.34,27.104,33.776v74.807H65.672c-4.143,0-7.5,3.358-7.5,7.5s3.357,7.5,7.5,7.5h66.377
	c4.143,0,7.5-3.358,7.5-7.5s-3.357-7.5-7.5-7.5h-25.688v-74.808c15.484-3.438,27.102-17.271,27.102-33.775V49.965h9.551
	c23.415,0,42.465-19.05,42.465-42.465C185.479,3.358,182.121,0,177.979,0z M143.014,34.965h-9.695
	c-8.191,0-14.855,6.665-14.855,14.856V74.14c0,10.81-8.794,19.604-19.604,19.604c-10.809,0-19.602-8.794-19.602-19.604V49.821
	c0-8.192-6.663-14.856-14.854-14.856h-9.697c-12.544,0-23.15-8.455-26.422-19.965h141.152
	C166.166,26.51,155.559,34.965,143.014,34.965z"/>
<g>
</g>
<g>
</g>
<g>
</g>
<g>
</g>
<g>
</g>
<g>
</g>
<g>
</g>
<g>
</g>
<g>
</g>
<g>
</g>
<g>
</g>
<g>
</g>
<g>
</g>
<g>
</g>
<g>
</g>
</svg>
