<?xml version="1.0" encoding="iso-8859-1"?>
<!-- Generator: Adobe Illustrator 18.0.0, SVG Export Plug-In . SVG Version: 6.00 Build 0)  -->
<!DOCTYPE svg PUBLIC "-//W3C//DTD SVG 1.1//EN" "http://www.w3.org/Graphics/SVG/1.1/DTD/svg11.dtd">
<svg version="1.1" id="Capa_1" xmlns="http://www.w3.org/2000/svg" xmlns:xlink="http://www.w3.org/1999/xlink" x="0px" y="0px"
	 viewBox="0 0 219.396 219.396" style="enable-background:new 0 0 219.396 219.396;" xml:space="preserve">
<path d="M154.515,122.09c14.542-5.678,24.301-19.636,24.301-35.62c0-21.113-17.177-38.291-38.29-38.291
	c-6.412,0-12.608,1.59-18.103,4.539V42.099c0-2.558-1.283-4.813-3.237-6.167l3.188-27.57c0.246-2.125-0.428-4.254-1.851-5.851
	c-1.423-1.598-3.46-2.511-5.6-2.511H80.725c-2.139,0-4.176,0.913-5.6,2.511c-1.423,1.597-2.096,3.726-1.851,5.851l3.188,27.57
	c-1.955,1.354-3.237,3.609-3.237,6.167v22.626C53.5,74.13,40.581,94.28,40.581,116.424c0,0.265,0.015,0.526,0.042,0.784
	l5.444,51.975c0.001,0.01,0.002,0.02,0.003,0.029l4.553,43.466c0.4,3.818,3.619,6.719,7.459,6.719h79.486
	c3.84,0,7.059-2.9,7.459-6.719l4.553-43.466c0.001-0.01,0.002-0.02,0.003-0.029L154.515,122.09z M56.407,123.924h82.834
	l-3.877,37.006H60.284L56.407,123.924z M163.815,86.47c0,7.759-3.797,14.721-9.827,18.976
	c-3.123-15.861-12.883-29.782-26.735-38.117c3.856-2.679,8.464-4.15,13.272-4.15C153.368,63.179,163.815,73.627,163.815,86.47z
	 M106.506,15l-2.266,19.599H91.408L89.142,15H106.506z M83.303,76.741c2.956-1.082,4.922-3.895,4.922-7.043v-20.1h19.198v20.099
	c0,3.149,1.966,5.961,4.922,7.043c14.194,5.195,24.394,17.63,27.04,32.184h-83.12C58.91,94.37,69.109,81.937,83.303,76.741z
	 M64.836,204.396l-2.982-28.467h71.939l-2.982,28.467H64.836z"/>
<g>
</g>
<g>
</g>
<g>
</g>
<g>
</g>
<g>
</g>
<g>
</g>
<g>
</g>
<g>
</g>
<g>
</g>
<g>
</g>
<g>
</g>
<g>
</g>
<g>
</g>
<g>
</g>
<g>
</g>
</svg>
