<?xml version="1.0" encoding="iso-8859-1"?>
<!-- Generator: Adobe Illustrator 18.0.0, SVG Export Plug-In . SVG Version: 6.00 Build 0)  -->
<!DOCTYPE svg PUBLIC "-//W3C//DTD SVG 1.1//EN" "http://www.w3.org/Graphics/SVG/1.1/DTD/svg11.dtd">
<svg version="1.1" id="Capa_1" xmlns="http://www.w3.org/2000/svg" xmlns:xlink="http://www.w3.org/1999/xlink" x="0px" y="0px"
	 viewBox="0 0 203.896 203.896" style="enable-background:new 0 0 203.896 203.896;" xml:space="preserve">
<path d="M150.516,9.17c0.509-2.225-0.024-4.561-1.447-6.346C147.646,1.039,145.488,0,143.205,0H60.691
	c-2.276,0-4.43,1.036-5.853,2.812c-1.424,1.777-1.963,4.105-1.466,6.327c0.36,1.616,8.912,40.058,14.836,82.164
	c6.136,43.617,6.429,68.959,4.736,83.683c-0.094,0.432-0.146,0.879-0.161,1.335c-1.124,8.735-2.967,13.472-4.605,16.036
	c-1.476,2.309-1.575,5.238-0.259,7.642c1.315,2.404,3.838,3.898,6.578,3.898h54.898c2.74,0,5.263-1.494,6.578-3.898
	c1.316-2.403,1.217-5.333-0.259-7.642c-2.227-3.483-3.711-8.886-4.596-15.705c0.001-0.022,0.004-0.044,0.004-0.067
	c0-0.624-0.084-1.227-0.229-1.806C126.51,134.842,141.037,50.774,150.516,9.17z M69.971,15h63.951
	c-2.974,14.213-8.722,43.163-13.081,74.131c-4.801,34.107-6.604,60.623-5.408,79.954H88.46c1.195-19.315-0.604-45.805-5.397-79.871
	C78.708,58.261,72.949,29.246,69.971,15z M85.576,188.896c0.4-1.514,0.759-3.124,1.085-4.811h30.571
	c0.326,1.688,0.686,3.298,1.086,4.811H85.576z"/>
<g>
</g>
<g>
</g>
<g>
</g>
<g>
</g>
<g>
</g>
<g>
</g>
<g>
</g>
<g>
</g>
<g>
</g>
<g>
</g>
<g>
</g>
<g>
</g>
<g>
</g>
<g>
</g>
<g>
</g>
</svg>
