<?xml version="1.0" encoding="iso-8859-1"?>
<!-- Generator: Adobe Illustrator 18.0.0, SVG Export Plug-In . SVG Version: 6.00 Build 0)  -->
<!DOCTYPE svg PUBLIC "-//W3C//DTD SVG 1.1//EN" "http://www.w3.org/Graphics/SVG/1.1/DTD/svg11.dtd">
<svg version="1.1" id="Capa_1" xmlns="http://www.w3.org/2000/svg" xmlns:xlink="http://www.w3.org/1999/xlink" x="0px" y="0px"
	 viewBox="0 0 222.293 222.293" style="enable-background:new 0 0 222.293 222.293;" xml:space="preserve">
<path d="M177.221,49.057h-58.574V15h10.537c4.143,0,7.5-3.358,7.5-7.5s-3.357-7.5-7.5-7.5h-18.037c-4.143,0-7.5,3.358-7.5,7.5
	v41.557H45.072c-4.143,0-7.5,3.358-7.5,7.5v28.129c0,4.142,3.357,7.5,7.5,7.5h10.579l8.32,123.113
	c0.267,3.937,3.537,6.994,7.483,6.994h79.383c3.945,0,7.217-3.057,7.483-6.994l8.322-123.113h10.577c4.143,0,7.5-3.358,7.5-7.5
	V56.557C184.721,52.415,181.363,49.057,177.221,49.057z M143.828,207.293H78.465L70.687,92.186h80.922L143.828,207.293z
	 M169.721,77.186h-10.088H62.662h-10.09V64.057h117.148V77.186z"/>
<g>
</g>
<g>
</g>
<g>
</g>
<g>
</g>
<g>
</g>
<g>
</g>
<g>
</g>
<g>
</g>
<g>
</g>
<g>
</g>
<g>
</g>
<g>
</g>
<g>
</g>
<g>
</g>
<g>
</g>
</svg>
