<?xml version="1.0" encoding="iso-8859-1"?>
<!-- Generator: Adobe Illustrator 18.0.0, SVG Export Plug-In . SVG Version: 6.00 Build 0)  -->
<!DOCTYPE svg PUBLIC "-//W3C//DTD SVG 1.1//EN" "http://www.w3.org/Graphics/SVG/1.1/DTD/svg11.dtd">
<svg version="1.1" id="Capa_1" xmlns="http://www.w3.org/2000/svg" xmlns:xlink="http://www.w3.org/1999/xlink" x="0px" y="0px"
	 viewBox="0 0 192.896 192.896" style="enable-background:new 0 0 192.896 192.896;" xml:space="preserve">
<path d="M133.089,80.204V7.5c0-4.142-3.357-7.5-7.5-7.5H67.308c-1.99,0-3.899,0.791-5.306,2.199
	c-1.406,1.408-2.196,3.317-2.194,5.307l0.063,72.698c0,17.614,12.51,32.359,29.113,35.829v61.863H67.308c-4.143,0-7.5,3.358-7.5,7.5
	c0,4.142,3.357,7.5,7.5,7.5h58.281c4.143,0,7.5-3.358,7.5-7.5c0-4.142-3.357-7.5-7.5-7.5h-21.605v-61.863
	C120.582,112.563,133.089,97.818,133.089,80.204z M74.87,80.198L74.814,15h43.274v65.204c0,11.913-9.692,21.604-21.605,21.604
	C84.565,101.809,74.87,92.117,74.87,80.198z"/>
<g>
</g>
<g>
</g>
<g>
</g>
<g>
</g>
<g>
</g>
<g>
</g>
<g>
</g>
<g>
</g>
<g>
</g>
<g>
</g>
<g>
</g>
<g>
</g>
<g>
</g>
<g>
</g>
<g>
</g>
</svg>
