<?xml version="1.0" encoding="iso-8859-1"?>
<!-- Generator: Adobe Illustrator 18.0.0, SVG Export Plug-In . SVG Version: 6.00 Build 0)  -->
<!DOCTYPE svg PUBLIC "-//W3C//DTD SVG 1.1//EN" "http://www.w3.org/Graphics/SVG/1.1/DTD/svg11.dtd">
<svg version="1.1" id="Capa_1" xmlns="http://www.w3.org/2000/svg" xmlns:xlink="http://www.w3.org/1999/xlink" x="0px" y="0px"
	 viewBox="0 0 197.723 197.723" style="enable-background:new 0 0 197.723 197.723;" xml:space="preserve">
<path d="M132.172,182.723h-25.686V142.27c19.937-4.667,35.112-27.27,35.112-54.387c0-8.803-1.625-17.562-4.699-25.329
	c-0.05-0.125-0.102-0.249-0.158-0.371c-0.354-0.77-0.683-1.537-0.977-2.282c-2.385-6.021-3.646-12.87-3.646-19.806
	c0-10.636,2.897-20.702,8.158-28.344c1.58-2.295,1.757-5.276,0.461-7.742C139.44,1.544,136.884,0,134.098,0H63.625
	c-2.787,0-5.343,1.545-6.64,4.012c-1.296,2.467-1.117,5.449,0.463,7.744c5.263,7.639,8.162,17.704,8.162,28.341
	c0,6.926-1.26,13.773-3.645,19.8c-0.297,0.751-0.626,1.518-0.977,2.277c-0.059,0.127-0.115,0.257-0.166,0.387
	c-3.073,7.766-4.697,16.522-4.697,25.322c0,27.229,15.3,49.908,35.36,54.444v40.395H65.797c-4.142,0-7.5,3.358-7.5,7.5
	s3.358,7.5,7.5,7.5h66.375c4.143,0,7.5-3.358,7.5-7.5S136.314,182.723,132.172,182.723z M71.125,87.884
	c0-6.859,1.235-13.639,3.573-19.62c0.434-0.947,0.842-1.904,1.216-2.848c3.073-7.767,4.697-16.521,4.697-25.319
	c0-8.816-1.602-17.397-4.615-25.097h45.735c-3.012,7.7-4.613,16.282-4.613,25.097c0,8.808,1.625,17.568,4.7,25.331
	c0.367,0.928,0.771,1.876,1.202,2.823c2.342,5.984,3.578,12.769,3.578,19.633c0,21.837-12.702,40.285-27.736,40.285
	C83.827,128.169,71.125,109.721,71.125,87.884z"/>
<g>
</g>
<g>
</g>
<g>
</g>
<g>
</g>
<g>
</g>
<g>
</g>
<g>
</g>
<g>
</g>
<g>
</g>
<g>
</g>
<g>
</g>
<g>
</g>
<g>
</g>
<g>
</g>
<g>
</g>
</svg>
