<?xml version="1.0" encoding="iso-8859-1"?>
<!-- Generator: Adobe Illustrator 18.0.0, SVG Export Plug-In . SVG Version: 6.00 Build 0)  -->
<!DOCTYPE svg PUBLIC "-//W3C//DTD SVG 1.1//EN" "http://www.w3.org/Graphics/SVG/1.1/DTD/svg11.dtd">
<svg version="1.1" id="Capa_1" xmlns="http://www.w3.org/2000/svg" xmlns:xlink="http://www.w3.org/1999/xlink" x="0px" y="0px"
	 viewBox="0 0 222.785 222.785" style="enable-background:new 0 0 222.785 222.785;" xml:space="preserve">
<path d="M157.97,118.572c-0.002-0.006-0.004-0.012-0.006-0.017l-22.476-51.679V7.5c0-4.143-3.357-7.5-7.5-7.5h-33
	c-4.143,0-7.5,3.357-7.5,7.5v59.365l-22.657,51.67c-0.003,0.006-0.005,0.013-0.007,0.019c-0.095,0.217-0.178,0.438-0.252,0.665
	c-0.006,0.016-0.012,0.031-0.018,0.047c-0.229,0.72-0.355,1.485-0.355,2.281v93.738c0,4.143,3.357,7.5,7.5,7.5h79.387
	c4.143,0,7.5-3.357,7.5-7.5v-93.738C158.586,120.489,158.365,119.484,157.97,118.572z M79.199,129.047h64.387v35.273H79.199V129.047
	z M120.488,15v21.518h-18V15H120.488z M101.856,71.449c0.417-0.949,0.632-1.975,0.632-3.012v-16.92h18v16.92
	c0,1.029,0.212,2.047,0.622,2.991l18.535,42.618H83.178L101.856,71.449z M79.199,207.785V179.32h64.387v28.465H79.199z"/>
<g>
</g>
<g>
</g>
<g>
</g>
<g>
</g>
<g>
</g>
<g>
</g>
<g>
</g>
<g>
</g>
<g>
</g>
<g>
</g>
<g>
</g>
<g>
</g>
<g>
</g>
<g>
</g>
<g>
</g>
</svg>
