<?xml version="1.0" encoding="iso-8859-1"?>
<!-- Generator: Adobe Illustrator 19.0.0, SVG Export Plug-In . SVG Version: 6.00 Build 0)  -->
<svg version="1.1" id="Layer_1" xmlns="http://www.w3.org/2000/svg" xmlns:xlink="http://www.w3.org/1999/xlink" x="0px" y="0px"
	 viewBox="0 0 490 490" style="enable-background:new 0 0 490 490;" xml:space="preserve">
<g>
	<g id="XMLID_36_">
		<g>
			<polygon style="fill:#E7ECED;" points="460,325 460,375 410,375 410,325 80,325 80,375 30,375 30,325 10,325 10,285 45,285 
				350,285 445,285 480,285 480,325 			"/>
			<rect x="350" y="150" style="fill:#AFB6BB;" width="95" height="135"/>
			<path style="fill:#546A79;" d="M480,125v160h-35V150h-95H45v135H10V125c0-5.498,4.502-10,10-10h450
				C475.498,115,480,119.502,480,125z"/>
			<rect x="75" y="185" style="fill:#FFD248;" width="35" height="65"/>
			<rect x="285" y="185" style="fill:#FFD248;" width="35" height="65"/>
			<rect x="220" y="185" style="fill:#FFD248;" width="35" height="65"/>
			<path style="fill:#FFD248;" d="M75,185v65h35v-65H75z M220,185v65h35v-65H220z M320,185h-35v65h35V185z M350,150v135H45V150H350z
				"/>
		</g>
		<g>
			<path style="fill:#231F20;" d="M470,105H20c-11.028,0-20,8.972-20,20v200c0,5.522,4.478,10,10,10h10v40c0,5.522,4.478,10,10,10
				h50c5.522,0,10-4.478,10-10v-40h310v40c0,5.522,4.478,10,10,10h50c5.522,0,10-4.478,10-10v-40h10c5.522,0,10-4.478,10-10V125
				C490,113.972,481.028,105,470,105z M470,125v150h-15V150c0-5.522-4.478-10-10-10H45c-5.522,0-10,4.478-10,10v125H20V125H470z
				 M55,275V160h285v115H55z M360,160h75v115h-75V160z M470,315h-10c-5.522,0-10,4.478-10,10v40h-30v-30h15v-20H55v20h15v30H40v-40
				c0-5.522-4.478-10-10-10H20v-20h450V315z"/>
			<path style="fill:#231F20;" d="M110,175H75c-5.522,0-10,4.478-10,10v65c0,5.522,4.478,10,10,10h35c5.522,0,10-4.478,10-10v-65
				C120,179.478,115.522,175,110,175z M100,240H85v-45h15V240z"/>
			<path style="fill:#231F20;" d="M255,175h-35c-5.522,0-10,4.478-10,10v65c0,5.522,4.478,10,10,10h35c5.522,0,10-4.478,10-10v-65
				C265,179.478,260.522,175,255,175z M245,240h-15v-45h15V240z"/>
			<path style="fill:#231F20;" d="M320,175h-35c-5.522,0-10,4.478-10,10v65c0,5.522,4.478,10,10,10h35c5.522,0,10-4.478,10-10v-65
				C330,179.478,325.522,175,320,175z M310,240h-15v-45h15V240z"/>
			<path style="fill:#231F20;" d="M160,175h-30v20h20v65h20v-75C170,179.478,165.522,175,160,175z"/>
			<rect x="180" y="185" style="fill:#231F20;" width="20" height="20"/>
			<rect x="180" y="230" style="fill:#231F20;" width="20" height="20"/>
			<rect x="370" y="175" style="fill:#231F20;" width="55" height="20"/>
			<rect x="370" y="205" style="fill:#231F20;" width="55" height="20"/>
			<rect x="370" y="235" style="fill:#231F20;" width="25" height="20"/>
			<rect x="405" y="235" style="fill:#231F20;" width="20" height="20"/>
		</g>
	</g>
</g>
<g>
</g>
<g>
</g>
<g>
</g>
<g>
</g>
<g>
</g>
<g>
</g>
<g>
</g>
<g>
</g>
<g>
</g>
<g>
</g>
<g>
</g>
<g>
</g>
<g>
</g>
<g>
</g>
<g>
</g>
</svg>
