<?xml version="1.0" encoding="iso-8859-1"?>
<!-- Generator: Adobe Illustrator 19.0.0, SVG Export Plug-In . SVG Version: 6.00 Build 0)  -->
<svg version="1.1" id="Layer_1" xmlns="http://www.w3.org/2000/svg" xmlns:xlink="http://www.w3.org/1999/xlink" x="0px" y="0px"
	 viewBox="0 0 490 490" style="enable-background:new 0 0 490 490;" xml:space="preserve">
<g id="XMLID_26_">
	<g>
		<g id="XMLID_35_">
			<g>
				<path style="fill:#FFFFFF;" d="M245,55v70c0,5.498-4.502,10-10,10H85c-5.498,0-10-4.502-10-10V45h170V55z"/>
				<path style="fill:#FFFFFF;" d="M415,45v80c0,5.498-4.502,10-10,10H255c-5.498,0-10-4.502-10-10V45H415z"/>
				<polygon style="fill:#8A9094;" points="480,10 480,45 455,45 415,45 245,45 75,45 35,45 10,45 10,10 				"/>
				<polygon style="fill:#AFB6BB;" points="465,350 465,480 430,480 430,455 430,375 430,350 455,350 				"/>
				<rect x="60" y="375" style="fill:#8A9094;" width="370" height="80"/>
				<polygon style="fill:#FFD248;" points="430,350 430,375 60,375 60,350 35,350 35,205 455,205 455,350 				"/>
				<path style="fill:#E7ECED;" d="M255,135h150c5.498,0,10-4.502,10-10V45h40v130H35V45h40v80c0,5.498,4.502,10,10,10h150
					c5.498,0,10-4.502,10-10C245,130.498,249.502,135,255,135z"/>
				<rect x="35" y="175" style="fill:#FF9E48;" width="420" height="30"/>
				<polygon style="fill:#AFB6BB;" points="60,455 60,480 25,480 25,350 35,350 60,350 60,375 				"/>
			</g>
			<g>
				<path style="fill:#231F20;" d="M480,0H10C4.477,0,0,4.477,0,10v35c0,5.523,4.477,10,10,10h15v285c-5.523,0-10,4.477-10,10v130
					c0,5.523,4.477,10,10,10h35c5.523,0,10-4.477,10-10v-15h350v15c0,5.523,4.477,10,10,10h35c5.523,0,10-4.477,10-10V350
					c0-5.523-4.477-10-10-10V55h15c5.523,0,10-4.477,10-10V10C490,4.477,485.523,0,480,0z M255,55h150v70H255V55z M235,125H85V55
					h150V125z M85,145h150c3.645,0,7.054-0.996,10-2.706c2.946,1.71,6.355,2.706,10,2.706h150c11.028,0,20-8.972,20-20V55h20v110H45
					V55h20v70C65,136.028,73.972,145,85,145z M445,195H45v-10h400V195z M50,470H35V360h15V470z M70,445v-60h350v60H70z M455,470h-15
					V360h15V470z M430,340c-5.523,0-10,4.477-10,10v15H70v-15c0-5.523-4.477-10-10-10H45V215h190v110h20V215h190v125H430z M470,35
					H20V20h450V35z"/>
				<rect x="200" y="405" style="fill:#231F20;" width="90" height="20"/>
			</g>
		</g>
	</g>
</g>
<g>
</g>
<g>
</g>
<g>
</g>
<g>
</g>
<g>
</g>
<g>
</g>
<g>
</g>
<g>
</g>
<g>
</g>
<g>
</g>
<g>
</g>
<g>
</g>
<g>
</g>
<g>
</g>
<g>
</g>
</svg>
