<?xml version="1.0" encoding="iso-8859-1"?>
<!-- Generator: Adobe Illustrator 19.0.0, SVG Export Plug-In . SVG Version: 6.00 Build 0)  -->
<svg version="1.1" id="Layer_1" xmlns="http://www.w3.org/2000/svg" xmlns:xlink="http://www.w3.org/1999/xlink" x="0px" y="0px"
	 viewBox="0 0 490 490" style="enable-background:new 0 0 490 490;" xml:space="preserve">
<g>
	<g id="XMLID_35_">
		<g>
			<rect x="20" y="425" style="fill:#704324;" width="35" height="55"/>
			<rect x="435" y="425" style="fill:#704324;" width="35" height="55"/>
			<polygon style="fill:#704324;" points="480,10 480,55 470,55 245,55 20,55 10,55 10,10 			"/>
			<polygon style="fill:#A26234;" points="245,55 245,425 55,425 20,425 20,55 			"/>
			<polygon style="fill:#A26234;" points="470,55 470,425 435,425 245,425 245,55 			"/>
		</g>
		<g>
			<path style="fill:#231F20;" d="M480,0H10C4.478,0,0,4.478,0,10v45c0,5.523,4.478,10,10,10v415c0,5.523,4.478,10,10,10h35
				c5.522,0,10-4.477,10-10v-45h360v45c0,5.523,4.478,10,10,10h35c5.522,0,10-4.477,10-10V65c5.522,0,10-4.477,10-10V10
				C490,4.478,485.522,0,480,0z M20,20h450v25H20V20z M45,470H30v-35h15V470z M30,415V65h205v350H30z M255,415V65h205v350H255z
				 M460,470h-15v-35h15V470z"/>
			<rect x="290" y="220" style="fill:#231F20;" width="20" height="40"/>
			<rect x="180" y="220" style="fill:#231F20;" width="20" height="40"/>
		</g>
	</g>
</g>
<g>
</g>
<g>
</g>
<g>
</g>
<g>
</g>
<g>
</g>
<g>
</g>
<g>
</g>
<g>
</g>
<g>
</g>
<g>
</g>
<g>
</g>
<g>
</g>
<g>
</g>
<g>
</g>
<g>
</g>
</svg>
