<?xml version="1.0" encoding="iso-8859-1"?>
<!-- Generator: Adobe Illustrator 19.0.0, SVG Export Plug-In . SVG Version: 6.00 Build 0)  -->
<svg version="1.1" id="Layer_1" xmlns="http://www.w3.org/2000/svg" xmlns:xlink="http://www.w3.org/1999/xlink" x="0px" y="0px"
	 viewBox="0 0 490 490" style="enable-background:new 0 0 490 490;" xml:space="preserve">
<g>
	<g id="XMLID_35_">
		<g>
			<rect x="155" y="47.5" style="fill:#E7ECED;" width="95" height="95"/>
			<polygon style="fill:#FFD248;" points="55,22.5 155,22.5 155,47.5 155,142.5 55,142.5 			"/>
			<polygon style="fill:#E7ECED;" points="425,72.5 425,107.5 315,107.5 295,107.5 295,72.5 325,72.5 			"/>
			<polygon style="fill:#31C0D8;" points="445,107.5 445,142.5 315,142.5 315,107.5 425,107.5 			"/>
			<polygon style="fill:#FFD248;" points="455,37.5 455,72.5 425,72.5 325,72.5 325,37.5 			"/>
			<rect x="440" y="432.5" style="fill:#546A79;" width="40" height="35"/>
			<rect x="10" y="432.5" style="fill:#546A79;" width="40" height="35"/>
			<polygon style="fill:#AFB6BB;" points="480,307.9 480,432.5 440,432.5 50,432.5 10,432.5 10,307.9 			"/>
			<rect x="10" y="182.5" style="fill:#E7ECED;" width="470" height="125.4"/>
			<polygon style="fill:#AFB6BB;" points="480,142.5 480,182.5 10,182.5 10,142.5 55,142.5 155,142.5 250,142.5 315,142.5 
				445,142.5 			"/>
		</g>
		<g>
			<rect x="215" y="237.5" style="fill:#231F20;" width="60" height="20"/>
			<rect x="290" y="237.5" style="fill:#231F20;" width="20" height="20"/>
			<rect x="180" y="237.5" style="fill:#231F20;" width="20" height="20"/>
			<rect x="215" y="362.5" style="fill:#231F20;" width="60" height="20"/>
			<rect x="290" y="362.5" style="fill:#231F20;" width="20" height="20"/>
			<rect x="180" y="362.5" style="fill:#231F20;" width="20" height="20"/>
			<path style="fill:#231F20;" d="M480,132.5h-25v-25c0-5.523-4.478-10-10-10h-10v-15h20c5.522,0,10-4.477,10-10v-35
				c0-5.523-4.478-10-10-10H325c-5.522,0-10,4.477-10,10v25h-20c-5.522,0-10,4.477-10,10v35c0,5.523,4.478,10,10,10h10v15h-45v-85
				c0-5.523-4.478-10-10-10h-85v-15c0-5.523-4.478-10-10-10H55c-5.522,0-10,4.477-10,10v110H10c-5.522,0-10,4.477-10,10v325
				c0,5.523,4.478,10,10,10h40c5.522,0,10-4.477,10-10v-25h370v25c0,5.523,4.478,10,10,10h40c5.522,0,10-4.477,10-10v-325
				C490,136.977,485.522,132.5,480,132.5z M335,47.5h110v15H335V47.5z M305,82.5h110v15H305V82.5z M435,117.5v15H325v-15H435z
				 M165,92.5h55v-20h-55v-15h75v75h-75V92.5z M145,32.5v100H65v-65h55v-20H65v-15H145z M20,152.5h450v20H20V152.5z M470,297.9H20
				V192.5h450V297.9z M40,457.5H20v-15h20V457.5z M20,422.5V317.9h450v104.6H20z M470,457.5h-20v-15h20V457.5z"/>
		</g>
	</g>
</g>
<g>
</g>
<g>
</g>
<g>
</g>
<g>
</g>
<g>
</g>
<g>
</g>
<g>
</g>
<g>
</g>
<g>
</g>
<g>
</g>
<g>
</g>
<g>
</g>
<g>
</g>
<g>
</g>
<g>
</g>
</svg>
