<?xml version="1.0" encoding="iso-8859-1"?>
<!-- Generator: Adobe Illustrator 19.0.0, SVG Export Plug-In . SVG Version: 6.00 Build 0)  -->
<svg version="1.1" id="Layer_1" xmlns="http://www.w3.org/2000/svg" xmlns:xlink="http://www.w3.org/1999/xlink" x="0px" y="0px"
	 viewBox="0 0 490 490" style="enable-background:new 0 0 490 490;" xml:space="preserve">
<g>
	<g id="XMLID_35_">
		<g>
			<rect x="55" y="345" style="fill:#A26234;" width="380" height="80"/>
			<rect x="55" y="220" style="fill:#A26234;" width="380" height="80"/>
			<rect x="55" y="90" style="fill:#A26234;" width="380" height="80"/>
			<polygon style="fill:#704324;" points="470,55 470,170 435,170 435,90 55,90 55,170 20,170 20,55 			"/>
			<polygon style="fill:#704324;" points="470,170 470,300 435,300 435,220 55,220 55,300 20,300 20,170 55,170 435,170 			"/>
			<polygon style="fill:#704324;" points="470,300 470,425 435,425 435,345 55,345 55,425 20,425 20,300 55,300 435,300 			"/>
			<rect x="20" y="425" style="fill:#704324;" width="35" height="55"/>
			<rect x="435" y="425" style="fill:#704324;" width="35" height="55"/>
			<polygon style="fill:#A26234;" points="480,10 480,55 470,55 20,55 10,55 10,10 			"/>
		</g>
		<g>
			<path style="fill:#231F20;" d="M480,0H10C4.477,0,0,4.478,0,10v45c0,5.523,4.477,10,10,10v415c0,5.523,4.477,10,10,10h35
				c5.523,0,10-4.477,10-10v-45h360v45c0,5.523,4.478,10,10,10h35c5.522,0,10-4.477,10-10V65c5.522,0,10-4.477,10-10V10
				C490,4.478,485.522,0,480,0z M20,20h450v25H20V20z M425,415H65v-60h360V415z M435,335H55c-5.523,0-10,4.478-10,10v70H30V310h430
				v105h-15v-70C445,339.478,440.522,335,435,335z M460,160h-15V90c0-5.522-4.478-10-10-10H55c-5.523,0-10,4.478-10,10v70H30V65h430
				V160z M425,160H65v-60h360V160z M30,180h430v110h-15v-70c0-5.522-4.478-10-10-10H55c-5.523,0-10,4.478-10,10v70H30V180z M425,290
				H65v-60h360V290z M45,470H30v-35h15V470z M460,470h-15v-35h15V470z"/>
			<rect x="225" y="120" style="fill:#231F20;" width="40" height="20"/>
			<rect x="225" y="250" style="fill:#231F20;" width="40" height="20"/>
			<rect x="225" y="375" style="fill:#231F20;" width="40" height="20"/>
		</g>
	</g>
</g>
<g>
</g>
<g>
</g>
<g>
</g>
<g>
</g>
<g>
</g>
<g>
</g>
<g>
</g>
<g>
</g>
<g>
</g>
<g>
</g>
<g>
</g>
<g>
</g>
<g>
</g>
<g>
</g>
<g>
</g>
</svg>
