<?xml version="1.0" encoding="iso-8859-1"?>
<!-- Generator: Adobe Illustrator 19.0.0, SVG Export Plug-In . SVG Version: 6.00 Build 0)  -->
<svg version="1.1" id="Layer_1" xmlns="http://www.w3.org/2000/svg" xmlns:xlink="http://www.w3.org/1999/xlink" x="0px" y="0px"
	 viewBox="0 0 490 490" style="enable-background:new 0 0 490 490;" xml:space="preserve">
<g>
	<g id="XMLID_35_">
		<g>
			<rect x="40" y="430" style="fill:#704324;" width="35" height="50"/>
			<rect x="415" y="430" style="fill:#704324;" width="35" height="50"/>
			<polygon style="fill:#A26234;" points="245,330 10,330 10,430 40,430 75,430 415,430 450,430 480,430 480,330 			"/>
			<polygon style="fill:#A26234;" points="480,100 480,130 360,130 245,130 245,100 			"/>
			<polygon style="fill:#A26234;" points="245,100 245,130 10,130 10,100 125,100 			"/>
			<rect x="10" y="230" style="fill:#A26234;" width="235" height="30"/>
			<polygon style="fill:#A26234;" points="480,230 480,260 245,260 245,230 360,230 			"/>
			<rect x="245" y="260" style="fill:#553323;" width="235" height="70"/>
			<rect x="10" y="260" style="fill:#553323;" width="235" height="70"/>
			<rect x="360" y="130" style="fill:#553323;" width="120" height="100"/>
			<rect x="245" y="130" style="fill:#553323;" width="115" height="100"/>
			<rect x="10" y="130" style="fill:#553323;" width="235" height="100"/>
			<rect x="245" y="10" style="fill:#553323;" width="235" height="90"/>
			<rect x="125" y="10" style="fill:#553323;" width="120" height="90"/>
			<rect x="10" y="10" style="fill:#553323;" width="115" height="90"/>
		</g>
		<g>
			<path style="fill:#231F20;" d="M480,0H10C4.478,0,0,4.477,0,10v420c0,5.523,4.478,10,10,10h20v40c0,5.523,4.478,10,10,10h35
				c5.522,0,10-4.477,10-10v-40h320v40c0,5.523,4.478,10,10,10h35c5.522,0,10-4.477,10-10v-40h20c5.522,0,10-4.477,10-10V10
				C490,4.477,485.522,0,480,0z M470,90H255V20h215V90z M255,220v-80h95v80H255z M235,90H135V20h100V90z M235,110v10H20v-10H235z
				 M235,140v80H20v-80H235z M235,240v10H20v-10H235z M235,270v50H20v-50H235z M255,270h215v50H255V270z M255,250v-10h215v10H255z
				 M370,220v-80h100v80H370z M255,120v-10h215v10H255z M115,20v70H20V20H115z M65,470H50v-30h15V470z M440,470h-15v-30h15V470z
				 M255,420v-60h-20v60H20v-80h450v80H255z"/>
			<rect x="340" y="370" style="fill:#231F20;" width="40" height="20"/>
			<rect x="110" y="370" style="fill:#231F20;" width="40" height="20"/>
		</g>
	</g>
</g>
<g>
</g>
<g>
</g>
<g>
</g>
<g>
</g>
<g>
</g>
<g>
</g>
<g>
</g>
<g>
</g>
<g>
</g>
<g>
</g>
<g>
</g>
<g>
</g>
<g>
</g>
<g>
</g>
<g>
</g>
</svg>
