<?xml version="1.0" encoding="iso-8859-1"?>
<!-- Generator: Adobe Illustrator 19.0.0, SVG Export Plug-In . SVG Version: 6.00 Build 0)  -->
<svg version="1.1" id="Layer_1" xmlns="http://www.w3.org/2000/svg" xmlns:xlink="http://www.w3.org/1999/xlink" x="0px" y="0px"
	 viewBox="0 0 490 490" style="enable-background:new 0 0 490 490;" xml:space="preserve">
<g>
	<g id="XMLID_35_">
		<g>
			<polygon style="fill:#704324;" points="35,277.5 35,467.5 75,467.5 75,307.5 415,307.5 415,467.5 455,467.5 455,277.5 			"/>
			<polygon style="fill:#A26234;" points="480,242.5 480,277.5 455,277.5 35,277.5 10,277.5 10,242.5 			"/>
			<rect x="220" y="192.5" style="fill:#C7CAC7;" width="50" height="40"/>
			<rect x="140" y="32.5" style="fill:#E7ECED;" width="210" height="115"/>
			<polygon style="fill:#AFB6BB;" points="350,147.5 350,192.5 270,192.5 220,192.5 140,192.5 140,147.5 			"/>
		</g>
		<g>
			<path style="fill:#231F20;" d="M480,232.5H295v-10h-15v-20h70c5.523,0,10-4.477,10-10v-160c0-5.523-4.477-10-10-10H140
				c-5.523,0-10,4.477-10,10v160c0,5.523,4.477,10,10,10h70v20h-15v10H10c-5.523,0-10,4.477-10,10v35c0,5.523,4.477,10,10,10h15v180
				h20v-180h400v180h20v-180h15c5.523,0,10-4.477,10-10v-35C490,236.977,485.523,232.5,480,232.5z M340,42.5v95H150v-95H340z
				 M150,157.5h190v25H150V157.5z M230,202.5h30v20h-30V202.5z M470,267.5H20v-15h450V267.5z"/>
			<polygon style="fill:#231F20;" points="55,297.5 55,317.5 65,317.5 65,467.5 85,467.5 85,317.5 405,317.5 405,467.5 425,467.5 
				425,317.5 435,317.5 435,297.5 			"/>
		</g>
	</g>
</g>
<g>
</g>
<g>
</g>
<g>
</g>
<g>
</g>
<g>
</g>
<g>
</g>
<g>
</g>
<g>
</g>
<g>
</g>
<g>
</g>
<g>
</g>
<g>
</g>
<g>
</g>
<g>
</g>
<g>
</g>
</svg>
