<?xml version="1.0" encoding="iso-8859-1"?>
<!-- Generator: Adobe Illustrator 19.0.0, SVG Export Plug-In . SVG Version: 6.00 Build 0)  -->
<svg version="1.1" id="Layer_1" xmlns="http://www.w3.org/2000/svg" xmlns:xlink="http://www.w3.org/1999/xlink" x="0px" y="0px"
	 viewBox="0 0 490 490" style="enable-background:new 0 0 490 490;" xml:space="preserve">
<g>
	<rect x="30" y="372.5" style="fill:#A26234;" width="215" height="100"/>
	<rect x="245" y="282.5" style="fill:#704324;" width="215" height="190"/>
	<g>
		<g id="XMLID_35_">
			<g>
				<polygon style="fill:#A26234;" points="480,242.5 480,282.5 460,282.5 245,282.5 30,282.5 10,282.5 10,242.5 325,242.5 
					385,242.5 				"/>
				<path style="fill:#E7ECED;" d="M425,112.5H285c0-38.701,31.299-70,70-70S425,73.799,425,112.5z"/>
				<path style="fill:#AFB6BB;" d="M385,162.5v80h-60v-80c0-5.498,4.502-10,10-10h40C380.498,152.5,385,157.002,385,162.5z"/>
				<rect x="30" y="282.5" style="fill:#704324;" width="215" height="90"/>
				<polygon style="fill:#43B05C;" points="155.801,152.1 220,182.5 220,192.5 60,192.5 60,167.5 125,137.5 				"/>
				<polygon style="fill:#23A24D;" points="220,142.5 220,182.5 155.801,152.1 190,132.5 				"/>
				<polygon style="fill:#31C0D8;" points="220,82.5 220,142.5 190,132.5 155.801,152.1 125,137.5 60,167.5 60,82.5 				"/>
			</g>
			<g>
				<path style="fill:#231F20;" d="M480,232.5h-85v-70c0-11.028-8.972-20-20-20h-10v-20h60c5.522,0,10-4.477,10-10
					c0-44.112-35.888-80-80-80s-80,35.888-80,80c0,5.523,4.478,10,10,10h60v20h-10c-11.028,0-20,8.972-20,20v70H10
					c-5.522,0-10,4.477-10,10v40c0,5.523,4.478,10,10,10h10v180h20v-90h195v90h20v-180h195v180h20v-180h10c5.522,0,10-4.477,10-10
					v-40C490,236.977,485.522,232.5,480,232.5z M355,52.5c29.678,0,54.392,21.659,59.167,50H295.833
					C300.608,74.159,325.322,52.5,355,52.5z M335,162.5h40v70h-40V162.5z M235,362.5H40v-70h195V362.5z M470,272.5H20v-20h450V272.5
					z"/>
				<rect x="115" y="317.5" style="fill:#231F20;" width="40" height="20"/>
				<rect x="115" y="407.5" style="fill:#231F20;" width="40" height="20"/>
				<rect x="285" y="352.5" style="fill:#231F20;" width="20" height="40"/>
				<path style="fill:#231F20;" d="M425,307.5h-35v20h25v20h20v-30C435,311.977,430.522,307.5,425,307.5z"/>
				<rect x="345" y="177.5" style="fill:#231F20;" width="20" height="20"/>
				<path style="fill:#231F20;" d="M60,202.5h160c5.522,0,10-4.477,10-10v-110c0-5.523-4.478-10-10-10h-20.857l-52.071-52.071
					c-3.906-3.905-10.236-3.905-14.143,0L80.857,72.5H60c-5.522,0-10,4.477-10,10v110C50,198.023,54.478,202.5,60,202.5z
					 M70,173.898l54.943-25.359l71.696,33.96H70V173.898z M210,166.698l-32.608-15.446l13.695-7.849L210,149.708V166.698z
					 M140,41.642L170.857,72.5h-61.715L140,41.642z M210,92.5v36.126l-16.838-5.613c-2.702-0.902-5.661-0.607-8.135,0.811
					l-29.657,16.997l-26.087-12.357c-2.68-1.27-5.782-1.286-8.474-0.043L70,151.871V92.5H210z"/>
				<rect x="145" y="102.5" style="fill:#231F20;" width="20" height="20"/>
			</g>
		</g>
	</g>
</g>
<g>
</g>
<g>
</g>
<g>
</g>
<g>
</g>
<g>
</g>
<g>
</g>
<g>
</g>
<g>
</g>
<g>
</g>
<g>
</g>
<g>
</g>
<g>
</g>
<g>
</g>
<g>
</g>
<g>
</g>
</svg>
