<?xml version="1.0" encoding="iso-8859-1"?>
<!-- Generator: Adobe Illustrator 19.0.0, SVG Export Plug-In . SVG Version: 6.00 Build 0)  -->
<svg version="1.1" id="Layer_1" xmlns="http://www.w3.org/2000/svg" xmlns:xlink="http://www.w3.org/1999/xlink" x="0px" y="0px"
	 viewBox="0 0 490 490" style="enable-background:new 0 0 490 490;" xml:space="preserve">
<g>
	<rect x="225" y="415" style="fill:#7C8287;" width="40" height="75"/>
	<g>
		<g id="XMLID_38_">
			<g>
				<path style="fill:#E7ECED;" d="M200,20v145h-50V20c0-5.498,4.502-10,10-10h30C195.498,10,200,14.502,200,20z"/>
				<path style="fill:#E7ECED;" d="M340,20v145h-50V20c0-5.498,4.502-10,10-10h30C335.498,10,340,14.502,340,20z"/>
				<path style="fill:#AFB6BB;" d="M115,405V215H95c-5.498,0-10-4.502-10-10v-30c0-5.498,4.502-10,10-10h55h50h90h50h55
					c5.498,0,10,4.502,10,10v30c0,5.498-4.502,10-10,10h-20v190c0,5.498-4.502,10-10,10H265h-40H125
					C119.502,415,115,410.498,115,405z"/>
			</g>
			<g>
				<path style="fill:#231F20;" d="M395,155h-45V20c0-11.028-8.972-20-20-20h-30c-11.028,0-20,8.972-20,20v135h-70V20
					c0-11.028-8.972-20-20-20h-30c-11.028,0-20,8.972-20,20v135H95c-11.028,0-20,8.972-20,20v30c0,11.028,8.972,20,20,20h10v180
					c0,11.028,8.972,20,20,20h90v65h20v-65h20v65h20v-65h90c11.028,0,20-8.972,20-20V225h10c11.028,0,20-8.972,20-20v-30
					C415,163.972,406.028,155,395,155z M300,20h30v135h-30V20z M160,20h30v135h-30V20z M395,205h-20c-5.523,0-10,4.478-10,10v190
					H125V225h215v-20H95v-30h300V205z"/>
				<rect x="165" y="275" style="fill:#231F20;" width="160" height="20"/>
				<rect x="165" y="315" style="fill:#231F20;" width="160" height="20"/>
				<rect x="165" y="355" style="fill:#231F20;" width="160" height="20"/>
				<path style="fill:#231F20;" d="M165,235h-20c-5.523,0-10,4.478-10,10v20h20v-10h10V235z"/>
			</g>
		</g>
	</g>
</g>
<g>
</g>
<g>
</g>
<g>
</g>
<g>
</g>
<g>
</g>
<g>
</g>
<g>
</g>
<g>
</g>
<g>
</g>
<g>
</g>
<g>
</g>
<g>
</g>
<g>
</g>
<g>
</g>
<g>
</g>
</svg>
