<?xml version="1.0" encoding="iso-8859-1"?>
<!-- Generator: Adobe Illustrator 19.0.0, SVG Export Plug-In . SVG Version: 6.00 Build 0)  -->
<svg version="1.1" id="Layer_1" xmlns="http://www.w3.org/2000/svg" xmlns:xlink="http://www.w3.org/1999/xlink" x="0px" y="0px"
	 viewBox="0 0 490 490" style="enable-background:new 0 0 490 490;" xml:space="preserve">
<g>
	<g id="XMLID_35_">
		<g>
			<rect x="40" y="342.5" style="fill:#AFB6BB;" width="35" height="80"/>
			<rect x="415" y="342.5" style="fill:#AFB6BB;" width="35" height="80"/>
			<path style="fill:#DD352E;" d="M480,332.5c0,5.498-4.502,10-10,10H20c-5.498,0-10-4.502-10-10v-205c0-5.498,4.502-10,10-10h60
				c5.498,0,10,4.502,10,10v145h310v-145c0-5.498,4.502-10,10-10h60c5.498,0,10,4.502,10,10V332.5z"/>
			<path style="fill:#BF352E;" d="M390,67.5H100c-5.498,0-10,4.502-10,10v195h310v-195C400,72.002,395.498,67.5,390,67.5z"/>
		</g>
		<g>
			<path style="fill:#231F20;" d="M470,107.5h-60v-30c0-11.028-8.972-20-20-20H100c-11.028,0-20,8.972-20,20v30H20
				c-11.028,0-20,8.972-20,20v205c0,11.028,8.972,20,20,20h10v70c0,5.523,4.477,10,10,10h35c5.523,0,10-4.477,10-10v-70h320v70
				c0,5.523,4.477,10,10,10h35c5.523,0,10-4.477,10-10v-70h10c11.028,0,20-8.972,20-20v-205C490,116.472,481.028,107.5,470,107.5z
				 M100,77.5h135v140h20v-140h135l0.001,185H390H100V77.5z M65,412.5H50v-60h15V412.5z M440,412.5h-15v-60h15V412.5z M20,332.5
				v-160h40v-20H20v-25h60v175h20v-20h290v20h20v-175h60v25h-40v20h40v160H20z"/>
			<rect x="125" y="97.5" style="fill:#231F20;" width="20" height="20"/>
			<rect x="160" y="97.5" style="fill:#231F20;" width="20" height="20"/>
			<rect x="195" y="97.5" style="fill:#231F20;" width="20" height="20"/>
			<rect x="125" y="137.5" style="fill:#231F20;" width="20" height="20"/>
			<rect x="160" y="137.5" style="fill:#231F20;" width="20" height="20"/>
			<rect x="195" y="137.5" style="fill:#231F20;" width="20" height="20"/>
			<rect x="125" y="177.5" style="fill:#231F20;" width="20" height="20"/>
			<rect x="160" y="177.5" style="fill:#231F20;" width="20" height="20"/>
			<rect x="195" y="177.5" style="fill:#231F20;" width="20" height="20"/>
			<rect x="125" y="217.5" style="fill:#231F20;" width="20" height="20"/>
			<rect x="160" y="217.5" style="fill:#231F20;" width="20" height="20"/>
			<rect x="195" y="217.5" style="fill:#231F20;" width="20" height="20"/>
			<rect x="275" y="97.5" style="fill:#231F20;" width="20" height="20"/>
			<rect x="310" y="97.5" style="fill:#231F20;" width="20" height="20"/>
			<rect x="345" y="97.5" style="fill:#231F20;" width="20" height="20"/>
			<rect x="275" y="137.5" style="fill:#231F20;" width="20" height="20"/>
			<rect x="310" y="137.5" style="fill:#231F20;" width="20" height="20"/>
			<rect x="345" y="137.5" style="fill:#231F20;" width="20" height="20"/>
			<rect x="275" y="177.5" style="fill:#231F20;" width="20" height="20"/>
			<rect x="310" y="177.5" style="fill:#231F20;" width="20" height="20"/>
			<rect x="345" y="177.5" style="fill:#231F20;" width="20" height="20"/>
			<rect x="275" y="217.5" style="fill:#231F20;" width="20" height="20"/>
			<rect x="310" y="217.5" style="fill:#231F20;" width="20" height="20"/>
			<rect x="345" y="217.5" style="fill:#231F20;" width="20" height="20"/>
		</g>
	</g>
</g>
<g>
</g>
<g>
</g>
<g>
</g>
<g>
</g>
<g>
</g>
<g>
</g>
<g>
</g>
<g>
</g>
<g>
</g>
<g>
</g>
<g>
</g>
<g>
</g>
<g>
</g>
<g>
</g>
<g>
</g>
</svg>
