<?xml version="1.0" encoding="iso-8859-1"?>
<!-- Generator: Adobe Illustrator 19.0.0, SVG Export Plug-In . SVG Version: 6.00 Build 0)  -->
<svg version="1.1" id="Layer_1" xmlns="http://www.w3.org/2000/svg" xmlns:xlink="http://www.w3.org/1999/xlink" x="0px" y="0px"
	 viewBox="0 0 490 490" style="enable-background:new 0 0 490 490;" xml:space="preserve">
<g>
	<g id="XMLID_31_">
		<g>
			<rect x="20" y="10" style="fill:#AFB6BB;" width="450" height="70"/>
			<path style="fill:#E7ECED;" d="M470,80v400H20V80H470z M430,445v-45V175v-50H60v50v225v45H430z"/>
			<polygon style="fill:#546A79;" points="90,400 400,400 430,400 430,445 60,445 60,400 			"/>
			<polygon style="fill:#546A79;" points="60,175 60,400 90,400 90,240 400,240 400,400 430,400 430,175 			"/>
			<rect x="60" y="125" style="fill:#AFB6BB;" width="370" height="50"/>
			<rect x="90" y="240" style="fill:#31C0D8;" width="310" height="160"/>
		</g>
		<g>
			<path style="fill:#231F20;" d="M470,0H20c-5.522,0-10,4.478-10,10v470c0,5.522,4.478,10,10,10h450c5.522,0,10-4.478,10-10V10
				C480,4.478,475.522,0,470,0z M460,20v50H30V20H460z M30,470V90h430v380H30z"/>
			<rect x="45" y="35" style="fill:#231F20;" width="25" height="20"/>
			<rect x="85" y="35" style="fill:#231F20;" width="25" height="20"/>
			<rect x="365" y="35" style="fill:#231F20;" width="25" height="20"/>
			<rect x="405" y="35" style="fill:#231F20;" width="40" height="20"/>
			<rect x="125" y="35" style="fill:#231F20;" width="225" height="20"/>
			<path style="fill:#231F20;" d="M430,115H60c-5.522,0-10,4.478-10,10v320c0,5.522,4.478,10,10,10h370c5.522,0,10-4.478,10-10V125
				C440,119.478,435.522,115,430,115z M235,135v20h20v-20h165v30H70v-30H235z M400,230H90c-5.522,0-10,4.478-10,10v150H70V185h350
				v205h-10V240C410,234.478,405.522,230,400,230z M390,250v140H100V250H390z M70,435v-25h350v25H70z"/>
			<rect x="230" y="195" style="fill:#231F20;" width="30" height="20"/>
			<rect x="280" y="195" style="fill:#231F20;" width="30" height="20"/>
			<rect x="330" y="195" style="fill:#231F20;" width="30" height="20"/>
			<rect x="380" y="195" style="fill:#231F20;" width="30" height="20"/>
			<rect x="80" y="195" style="fill:#231F20;" width="30" height="20"/>
			<rect x="130" y="195" style="fill:#231F20;" width="30" height="20"/>
			<rect x="180" y="195" style="fill:#231F20;" width="30" height="20"/>
			<path style="fill:#231F20;" d="M239.7,324.02c-5.498,3.437-14.7,9.188-14.7,20.98s9.202,17.544,14.7,20.98
				c1.815,1.134,4.854,3.033,5.293,3.892c0,0,0.007,0.039,0.007,0.128v5h20v-5c0-11.792-9.202-17.544-14.7-20.98
				c-1.815-1.134-4.854-3.033-5.293-3.892c0,0-0.007-0.039-0.007-0.128c0-0.046,0.002-0.079,0-0.09
				c0.515-0.939,3.505-2.809,5.3-3.93c5.498-3.437,14.7-9.188,14.7-20.98s-9.202-17.544-14.7-20.98
				c-1.815-1.134-4.854-3.033-5.293-3.892c0,0-0.007-0.039-0.007-0.128c0-0.046,0.002-0.079,0-0.09
				c0.515-0.939,3.505-2.809,5.3-3.93c5.498-3.437,14.7-9.188,14.7-20.98v-5h-20v5c0,0.046-0.002,0.079,0,0.09
				c-0.515,0.939-3.505,2.809-5.3,3.93c-5.498,3.437-14.7,9.188-14.7,20.98s9.202,17.544,14.7,20.98
				c1.815,1.134,4.854,3.033,5.293,3.892c0,0,0.007,0.039,0.007,0.128c0,0.046-0.002,0.079,0,0.09
				C244.485,321.029,241.495,322.898,239.7,324.02z"/>
			<path style="fill:#231F20;" d="M299.7,324.02c-5.498,3.437-14.7,9.188-14.7,20.98s9.202,17.544,14.7,20.98
				c1.815,1.134,4.854,3.033,5.293,3.892c0,0,0.007,0.039,0.007,0.128v5h20v-5c0-11.792-9.202-17.544-14.7-20.98
				c-1.815-1.134-4.854-3.033-5.293-3.892c0,0-0.007-0.039-0.007-0.128c0-0.046,0.002-0.079,0-0.09
				c0.515-0.939,3.505-2.809,5.3-3.93c5.498-3.437,14.7-9.188,14.7-20.98s-9.202-17.544-14.7-20.98
				c-1.815-1.134-4.854-3.033-5.293-3.892c0,0-0.007-0.039-0.007-0.128v-5h-20v5c0,11.792,9.202,17.544,14.7,20.98
				c1.815,1.134,4.854,3.033,5.293,3.892c0,0,0.007,0.039,0.007,0.128c0,0.046-0.002,0.079,0,0.09
				C304.485,321.029,301.495,322.898,299.7,324.02z"/>
			<path style="fill:#231F20;" d="M179.7,324.02c-5.498,3.437-14.7,9.188-14.7,20.98s9.202,17.544,14.7,20.98
				c1.815,1.134,4.854,3.033,5.293,3.892c0,0,0.007,0.039,0.007,0.128v5h20v-5c0-11.792-9.202-17.544-14.7-20.98
				c-1.815-1.134-4.854-3.033-5.293-3.892c0,0-0.007-0.039-0.007-0.128c0-0.046,0.002-0.079,0-0.09
				c0.515-0.939,3.505-2.809,5.3-3.93c5.498-3.437,14.7-9.188,14.7-20.98s-9.202-17.544-14.7-20.98
				c-1.815-1.134-4.854-3.033-5.293-3.892c0,0-0.007-0.039-0.007-0.128v-5h-20v5c0,11.792,9.202,17.544,14.7,20.98
				c1.815,1.134,4.854,3.033,5.293,3.892c0,0,0.007,0.039,0.007,0.128c0,0.046-0.002,0.079,0,0.09
				C184.485,321.029,181.495,322.898,179.7,324.02z"/>
		</g>
	</g>
</g>
<g>
</g>
<g>
</g>
<g>
</g>
<g>
</g>
<g>
</g>
<g>
</g>
<g>
</g>
<g>
</g>
<g>
</g>
<g>
</g>
<g>
</g>
<g>
</g>
<g>
</g>
<g>
</g>
<g>
</g>
</svg>
