<?xml version="1.0" encoding="iso-8859-1"?>
<!-- Generator: Adobe Illustrator 19.0.0, SVG Export Plug-In . SVG Version: 6.00 Build 0)  -->
<svg version="1.1" id="Layer_1" xmlns="http://www.w3.org/2000/svg" xmlns:xlink="http://www.w3.org/1999/xlink" x="0px" y="0px"
	 viewBox="0 0 427 427" style="enable-background:new 0 0 427 427;" xml:space="preserve">
<g>
	<g id="XMLID_35_">
		<g>
			<path style="fill:#A58763;" d="M157.213,375.867h38.969h34.639h38.967c4.762,0,8.66,3.898,8.66,8.659v17.319H148.555v-17.319
				C148.555,379.766,152.453,375.867,157.213,375.867z"/>
			<rect x="196.182" y="90.101" style="fill:#6B5B4B;" width="34.639" height="285.767"/>
			<g>
				<polygon style="fill:#685642;" points="27.32,59.792 27.32,90.101 196.182,90.101 230.82,90.101 399.682,90.101 399.682,59.792 
					378.033,59.792 				"/>
				<polygon style="fill:#A58763;" points="10,25.154 10,59.792 27.32,59.792 378.033,59.792 399.682,59.792 417,59.792 417,25.154 
									"/>
			</g>
		</g>
		<path style="fill:#231F20;" d="M417,15.154H10c-5.522,0-10,4.477-10,10v34.638c0,5.523,4.478,10,10,10h7.32v20.309
			c0,5.523,4.478,10,10,10h158.861v265.767h-28.969c-10.288,0-18.658,8.371-18.658,18.659v7.319h-28.969v20h207.83v-20h-28.969
			v-7.319c0-10.289-8.371-18.659-18.66-18.659H240.82V100.101h158.861c5.522,0,10-4.477,10-10V69.792H417c5.522,0,10-4.477,10-10
			V25.154C427,19.631,422.522,15.154,417,15.154z M268.447,391.846H158.555v-5.979h109.893v5.979H268.447z M206.182,365.867V100.101
			h14.639v265.767L206.182,365.867L206.182,365.867z M407,49.792h-7.318c-5.522,0-10,4.477-10,10v20.309H37.32V69.792h340.713v-20
			H20V35.154h387V49.792z"/>
	</g>
</g>
<g>
</g>
<g>
</g>
<g>
</g>
<g>
</g>
<g>
</g>
<g>
</g>
<g>
</g>
<g>
</g>
<g>
</g>
<g>
</g>
<g>
</g>
<g>
</g>
<g>
</g>
<g>
</g>
<g>
</g>
</svg>
