<?xml version="1.0" encoding="iso-8859-1"?>
<!-- Generator: Adobe Illustrator 19.0.0, SVG Export Plug-In . SVG Version: 6.00 Build 0)  -->
<svg version="1.1" id="Layer_1" xmlns="http://www.w3.org/2000/svg" xmlns:xlink="http://www.w3.org/1999/xlink" x="0px" y="0px"
	 viewBox="0 0 490 490" style="enable-background:new 0 0 490 490;" xml:space="preserve">
<g>
	<g id="XMLID_41_">
		<g>
			<rect x="400" y="292.5" style="fill:#E7ECED;" width="40" height="35"/>
			<rect x="330" y="292.5" style="fill:#E7ECED;" width="40" height="35"/>
			<rect x="260" y="292.5" style="fill:#E7ECED;" width="40" height="35"/>
			<rect x="260" y="222.5" style="fill:#E7ECED;" width="40" height="35"/>
			<rect x="330" y="222.5" style="fill:#E7ECED;" width="40" height="35"/>
			<rect x="400" y="222.5" style="fill:#E7ECED;" width="40" height="35"/>
			<path style="fill:#E7ECED;" d="M70,82.5v-35c0-5.498,4.502-10,10-10h90c5.498,0,10,4.502,10,10v35v280v30v5
				c0,5.498-4.502,10-10,10H80c-5.498,0-10-4.502-10-10v-4.6v-30.4V82.5z"/>
			<rect x="180" y="362.5" style="fill:#546A79;" width="300" height="30"/>
			<path style="fill:#AFB6BB;" d="M470,82.5c5.498,0,10,4.502,10,10v270H180v-280H470z M445,187.5v-70H255v70H445z M440,327.5v-35
				h-40v35H440z M440,257.5v-35h-40v35H440z M370,327.5v-35h-40v35H370z M370,257.5v-35h-40v35H370z M300,327.5v-35h-40v35H300z
				 M300,257.5v-35h-40v35H300z"/>
			<rect x="255" y="117.5" style="fill:#31C0D8;" width="190" height="70"/>
			<rect x="10" y="362.5" style="fill:#546A79;" width="60" height="30.4"/>
			<path style="fill:#AFB6BB;" d="M70,362.5H10v-270c0-5.498,4.502-10,10-10h50V362.5z"/>
		</g>
		<g>
			<path style="fill:#231F20;" d="M470,72.5H190v-25c0-11.028-8.972-20-20-20H80c-11.028,0-20,8.972-20,20v25H20
				c-11.028,0-20,8.972-20,20v300.4c0,5.522,4.478,10,10,10h50.762c2.364,8.409,10.083,14.6,19.238,14.6h30v25
				c0,11.028,8.972,20,20,20h80c11.028,0,20-8.972,20-20v-40h250c5.522,0,10-4.478,10-10v-300C490,81.472,481.028,72.5,470,72.5z
				 M210,92.5v235h20v-235h240v260H190v-260H210z M20,92.5h40v260H20V92.5z M20,372.5h40v10.4H20V372.5z M80,342.5h70v-20H80v-275
				h90l0.002,350H80V342.5z M210,442.5h-80v-25h40c9.299,0,17.113-6.388,19.342-15H210V442.5z M190,382.5v-10h280v10H190z"/>
			<path style="fill:#231F20;" d="M255,197.5h190c5.522,0,10-4.478,10-10v-70c0-5.522-4.478-10-10-10H255c-5.522,0-10,4.478-10,10
				v70C245,193.022,249.478,197.5,255,197.5z M265,127.5h170v50H265V127.5z"/>
			<path style="fill:#231F20;" d="M90,67.5v20h20v-10h10v-20h-20C94.478,57.5,90,61.978,90,67.5z"/>
			<path style="fill:#231F20;" d="M300,212.5h-40c-5.522,0-10,4.478-10,10v35c0,5.522,4.478,10,10,10h40c5.522,0,10-4.478,10-10v-35
				C310,216.978,305.522,212.5,300,212.5z M290,247.5h-20v-15h20V247.5z"/>
			<path style="fill:#231F20;" d="M300,282.5h-40c-5.522,0-10,4.478-10,10v35c0,5.522,4.478,10,10,10h40c5.522,0,10-4.478,10-10v-35
				C310,286.978,305.522,282.5,300,282.5z M290,317.5h-20v-15h20V317.5z"/>
			<path style="fill:#231F20;" d="M370,212.5h-40c-5.522,0-10,4.478-10,10v35c0,5.522,4.478,10,10,10h40c5.522,0,10-4.478,10-10v-35
				C380,216.978,375.522,212.5,370,212.5z M360,247.5h-20v-15h20V247.5z"/>
			<path style="fill:#231F20;" d="M370,282.5h-40c-5.522,0-10,4.478-10,10v35c0,5.522,4.478,10,10,10h40c5.522,0,10-4.478,10-10v-35
				C380,286.978,375.522,282.5,370,282.5z M360,317.5h-20v-15h20V317.5z"/>
			<path style="fill:#231F20;" d="M440,212.5h-40c-5.522,0-10,4.478-10,10v35c0,5.522,4.478,10,10,10h40c5.522,0,10-4.478,10-10v-35
				C450,216.978,445.522,212.5,440,212.5z M430,247.5h-20v-15h20V247.5z"/>
			<path style="fill:#231F20;" d="M440,282.5h-40c-5.522,0-10,4.478-10,10v35c0,5.522,4.478,10,10,10h40c5.522,0,10-4.478,10-10v-35
				C450,286.978,445.522,282.5,440,282.5z M430,317.5h-20v-15h20V317.5z"/>
			<rect x="280" y="137.5" style="fill:#231F20;" width="20" height="30"/>
			<rect x="310" y="137.5" style="fill:#231F20;" width="20" height="30"/>
			<rect x="340" y="137.5" style="fill:#231F20;" width="20" height="30"/>
			<rect x="370" y="137.5" style="fill:#231F20;" width="20" height="30"/>
			<rect x="400" y="137.5" style="fill:#231F20;" width="20" height="30"/>
		</g>
	</g>
</g>
<g>
</g>
<g>
</g>
<g>
</g>
<g>
</g>
<g>
</g>
<g>
</g>
<g>
</g>
<g>
</g>
<g>
</g>
<g>
</g>
<g>
</g>
<g>
</g>
<g>
</g>
<g>
</g>
<g>
</g>
</svg>
