<?xml version="1.0" encoding="iso-8859-1"?>
<!-- Generator: Adobe Illustrator 19.0.0, SVG Export Plug-In . SVG Version: 6.00 Build 0)  -->
<svg version="1.1" id="Layer_1" xmlns="http://www.w3.org/2000/svg" xmlns:xlink="http://www.w3.org/1999/xlink" x="0px" y="0px"
	 viewBox="0 0 490 490" style="enable-background:new 0 0 490 490;" xml:space="preserve">
<g>
	<g id="XMLID_39_">
		<g>
			<rect x="40" y="435" style="fill:#E7ECED;" width="35" height="45"/>
			<rect x="415" y="435" style="fill:#E7ECED;" width="35" height="45"/>
			<polygon style="fill:#AFB6BB;" points="480,395 480,435 450,435 415,435 75,435 40,435 10,435 10,395 30,395 460,395 			"/>
			<rect x="70" y="190" style="fill:#546A79;" width="55" height="30"/>
			<path style="fill:#E7ECED;" d="M460,175v220H30V175c0-10.996,9.004-20,20-20h75v35H70v30h55h240h55v-30h-55v-35h75
				C450.996,155,460,164.004,460,175z"/>
			<rect x="365" y="190" style="fill:#546A79;" width="55" height="30"/>
			<path style="fill:#FFD248;" d="M125,80h-10c-10.996,0-20-9.004-20-20V30c0-10.996,9.004-20,20-20h260c10.996,0,20,9.004,20,20v30
				c0,10.996-9.004,20-20,20h-10v75v35v30H125v-30v-35V80z"/>
		</g>
		<g>
			<path style="fill:#231F20;" d="M480,385h-10V175c0-16.542-13.458-30-30-30h-65V90c16.542,0,30-13.458,30-30V30
				c0-16.542-13.458-30-30-30H115C98.458,0,85,13.458,85,30v30c0,16.542,13.458,30,30,30v55H50c-16.542,0-30,13.458-30,30v210H10
				c-5.523,0-10,4.478-10,10v40c0,5.522,4.477,10,10,10h20v35c0,5.522,4.477,10,10,10h35c5.523,0,10-4.478,10-10v-35h320v35
				c0,5.522,4.478,10,10,10h35c5.522,0,10-4.478,10-10v-35h20c5.522,0,10-4.478,10-10v-40C490,389.478,485.522,385,480,385z
				 M375,200h35v10h-35V200z M105,60V30c0-5.514,4.486-10,10-10h260c5.514,0,10,4.486,10,10v30c0,5.514-4.486,10-10,10h-10
				c-5.522,0-10,4.478-10,10v130H135V90h185V70H125h-10C109.486,70,105,65.514,105,60z M115,210H80v-10h35V210z M40,175
				c0-5.514,4.486-10,10-10h65v15H70c-5.523,0-10,4.478-10,10v30c0,5.522,4.477,10,10,10h350c5.522,0,10-4.478,10-10v-30
				c0-5.522-4.478-10-10-10h-45v-15h65c5.514,0,10,4.486,10,10v210H40V175z M65,470H50v-25h15V470z M440,470h-15v-25h15V470z
				 M470,425H20v-20h450V425z"/>
			<rect x="155" y="105" style="fill:#231F20;" width="20" height="20"/>
			<rect x="195" y="125" style="fill:#231F20;" width="20" height="20"/>
			<rect x="235" y="105" style="fill:#231F20;" width="20" height="20"/>
			<rect x="235" y="140" style="fill:#231F20;" width="20" height="20"/>
			<rect x="315" y="140" style="fill:#231F20;" width="20" height="20"/>
			<rect x="155" y="140" style="fill:#231F20;" width="20" height="20"/>
			<rect x="275" y="125" style="fill:#231F20;" width="20" height="20"/>
			<rect x="315" y="105" style="fill:#231F20;" width="20" height="20"/>
			<rect x="315" y="175" style="fill:#231F20;" width="20" height="20"/>
			<rect x="275" y="165" style="fill:#231F20;" width="20" height="20"/>
			<rect x="235" y="175" style="fill:#231F20;" width="20" height="20"/>
			<rect x="195" y="165" style="fill:#231F20;" width="20" height="20"/>
			<rect x="155" y="175" style="fill:#231F20;" width="20" height="20"/>
			<rect x="315" y="40" style="fill:#231F20;" width="20" height="20"/>
			<rect x="275" y="30" style="fill:#231F20;" width="20" height="20"/>
			<rect x="235" y="40" style="fill:#231F20;" width="20" height="20"/>
			<rect x="195" y="30" style="fill:#231F20;" width="20" height="20"/>
			<rect x="155" y="40" style="fill:#231F20;" width="20" height="20"/>
			<path style="fill:#231F20;" d="M360,265H130c-11.028,0-20,8.972-20,20h270C380,273.972,371.028,265,360,265z"/>
			<path style="fill:#231F20;" d="M360,325H130c-11.028,0-20,8.972-20,20h270C380,333.972,371.028,325,360,325z"/>
		</g>
	</g>
</g>
<g>
</g>
<g>
</g>
<g>
</g>
<g>
</g>
<g>
</g>
<g>
</g>
<g>
</g>
<g>
</g>
<g>
</g>
<g>
</g>
<g>
</g>
<g>
</g>
<g>
</g>
<g>
</g>
<g>
</g>
</svg>
