<?xml version="1.0" encoding="iso-8859-1"?>
<!-- Generator: Adobe Illustrator 19.0.0, SVG Export Plug-In . SVG Version: 6.00 Build 0)  -->
<svg version="1.1" id="Layer_1" xmlns="http://www.w3.org/2000/svg" xmlns:xlink="http://www.w3.org/1999/xlink" x="0px" y="0px"
	 viewBox="0 0 490 490" style="enable-background:new 0 0 490 490;" xml:space="preserve">
<g>
	<g id="XMLID_29_">
		<g>
			<rect x="355" y="10" style="fill:#E7ECED;" width="115" height="70"/>
			<rect x="20" y="10" style="fill:#989EA3;" width="335" height="70"/>
			<path style="fill:#989EA3;" d="M85,120c13.799,0,25,11.201,25,25s-11.201,25-25,25s-25-11.201-25-25S71.201,120,85,120z"/>
			<path style="fill:#31C0D8;" d="M245,180c49.697,0,90,40.293,90,90c0,49.697-40.303,90-90,90c-49.707,0-90-40.303-90-90
				C155,220.293,195.293,180,245,180z"/>
			<path style="fill:#AFB6BB;" d="M245,145c69.004,0,125,55.996,125,125s-55.996,125-125,125s-125-55.996-125-125
				S175.996,145,245,145z M335,270c0-49.707-40.303-90-90-90c-49.707,0-90,40.293-90,90c0,49.697,40.293,90,90,90
				C294.697,360,335,319.697,335,270z"/>
			<path style="fill:#E7ECED;" d="M470,80v400H20V80h335H470z M370,270c0-69.004-55.996-125-125-125s-125,55.996-125,125
				s55.996,125,125,125S370,339.004,370,270z M110,145c0-13.799-11.201-25-25-25s-25,11.201-25,25s11.201,25,25,25
				S110,158.799,110,145z"/>
		</g>
		<g>
			<path style="fill:#231F20;" d="M470,0H20c-5.523,0-10,4.478-10,10v470c0,5.522,4.477,10,10,10h450c5.522,0,10-4.478,10-10V10
				C480,4.478,475.522,0,470,0z M460,70h-95V20h95V70z M345,20v50H30V20H345z M30,470v-20h340v-20H30V90h430v380H30z"/>
			<path style="fill:#231F20;" d="M245,135c-74.439,0-135,60.561-135,135s60.561,135,135,135s135-60.561,135-135
				S319.439,135,245,135z M245,385c-63.411,0-115-51.589-115-115s51.589-115,115-115s115,51.589,115,115S308.411,385,245,385z"/>
			<path style="fill:#231F20;" d="M245,170c-55.14,0-100,44.859-100,100s44.86,100,100,100c55.141,0,100-44.859,100-100
				S300.141,170,245,170z M245,350c-44.112,0-80-35.888-80-80s35.888-80,80-80s80,35.888,80,80S289.112,350,245,350z"/>
			<path style="fill:#231F20;" d="M190,275h20c0-22.056,17.944-40,40-40v-20C216.916,215,190,241.916,190,275z"/>
			<rect x="45" y="35" style="fill:#231F20;" width="25" height="20"/>
			<rect x="85" y="35" style="fill:#231F20;" width="25" height="20"/>
			<rect x="125" y="35" style="fill:#231F20;" width="110" height="20"/>
			<rect x="385" y="35" style="fill:#231F20;" width="20" height="20"/>
			<rect x="420" y="35" style="fill:#231F20;" width="20" height="20"/>
			<rect x="405" y="115" style="fill:#231F20;" width="35" height="20"/>
			<rect x="380" y="145" style="fill:#231F20;" width="60" height="20"/>
			<path style="fill:#231F20;" d="M85,110c-19.299,0-35,15.701-35,35s15.701,35,35,35s35-15.701,35-35S104.299,110,85,110z M85,160
				c-8.271,0-15-6.729-15-15s6.729-15,15-15s15,6.729,15,15S93.271,160,85,160z"/>
		</g>
	</g>
</g>
<g>
</g>
<g>
</g>
<g>
</g>
<g>
</g>
<g>
</g>
<g>
</g>
<g>
</g>
<g>
</g>
<g>
</g>
<g>
</g>
<g>
</g>
<g>
</g>
<g>
</g>
<g>
</g>
<g>
</g>
</svg>
